<?xml version="1.0" encoding="utf-8"?>
<!-- Generator: Adobe Illustrator 21.1.0, SVG Export Plug-In . SVG Version: 6.00 Build 0)  -->
<svg version="1.1" id="Capa_1" xmlns="http://www.w3.org/2000/svg" xmlns:xlink="http://www.w3.org/1999/xlink" x="0px" y="0px"
	 viewBox="0 0 469.1 500" style="enable-background:new 0 0 469.1 500;" xml:space="preserve">
<style type="text/css">
	.st0{fill:#CCCCCC;}
</style>
<g>
	<path class="st0" d="M416.4,423.6c10,0,18.7-3.3,26.1-9.9L316,287.2c-3.1,2.2-6,4.3-8.8,6.3c-9.5,7-17.2,12.4-23,16.3
		c-5.9,3.9-13.8,7.9-23.6,11.9c-9.8,4.1-19,6.1-27.4,6.1h-0.5c-8.5,0-17.6-2-27.4-6.1c-9.8-4.1-17.7-8-23.6-11.9
		c-5.9-3.9-13.6-9.4-23-16.3c-2.6-1.9-5.6-4.1-8.7-6.3L23.3,413.7c7.4,6.5,16.1,9.9,26.2,9.9H416.4z M416.4,423.6"/>
	<path class="st0" d="M34.8,207.5c-9.5-6.3-17.9-13.6-25.2-21.7v192.6l111.6-111.6C98.8,251.2,70.1,231.4,34.8,207.5L34.8,207.5z
		 M34.8,207.5"/>
	<path class="st0" d="M431.4,207.5c-34,23-62.8,42.8-86.6,59.4l111.5,111.5V185.8C449.2,193.8,440.9,201,431.4,207.5L431.4,207.5z
		 M431.4,207.5"/>
	<path class="st0" d="M416.4,72.6H49.5c-12.8,0-22.7,4.3-29.5,13C13,94.2,9.6,105,9.6,118c0,10.5,4.6,21.8,13.7,34
		c9.1,12.2,18.9,21.8,29.2,28.8c5.6,4,22.7,15.8,51.1,35.5c15.3,10.6,28.7,19.9,40.2,27.9c9.8,6.8,18.2,12.7,25.2,17.6
		c0.8,0.6,2,1.5,3.7,2.6c1.8,1.3,4.1,2.9,6.9,5c5.4,3.9,9.9,7.1,13.5,9.5c3.6,2.4,7.9,5.1,13,8.1c5.1,3,9.9,5.2,14.3,6.7
		c4.5,1.5,8.6,2.3,12.5,2.3h0.5c3.8,0,8-0.8,12.5-2.3c4.5-1.5,9.3-3.7,14.3-6.7c5.1-3,9.4-5.7,13-8.1c3.6-2.4,8.1-5.6,13.5-9.5
		c2.8-2,5.1-3.7,6.9-5c1.7-1.2,2.9-2.1,3.7-2.6c5.4-3.8,13.9-9.6,25.2-17.5c20.6-14.4,51.1-35.5,91.4-63.5
		c12.1-8.5,22.3-18.7,30.4-30.7c8.1-12,12.2-24.5,12.2-37.6c0-11-4-20.4-11.9-28.2C436.6,76.5,427.2,72.6,416.4,72.6L416.4,72.6z
		 M416.4,72.6"/>
</g>
</svg>
