<?xml version="1.0" encoding="utf-8"?>
<!-- Generator: Adobe Illustrator 21.1.0, SVG Export Plug-In . SVG Version: 6.00 Build 0)  -->
<svg version="1.1" id="Capa_1" xmlns="http://www.w3.org/2000/svg" xmlns:xlink="http://www.w3.org/1999/xlink" x="0px" y="0px"
	 viewBox="0 0 380 500" style="enable-background:new 0 0 380 500;" xml:space="preserve">
<style type="text/css">
	.st0{fill:#CCCCCC;}
</style>
<path class="st0" d="M370.8,343.5c0.8,5.8-1,10.9-5.3,15.2L314.9,409c-2.3,2.5-5.3,4.7-9,6.5c-3.7,1.8-7.3,2.9-10.9,3.4
	c-0.3,0-1,0.1-2.3,0.2c-1.3,0.1-2.9,0.2-5,0.2c-4.8,0-12.6-0.8-23.4-2.5c-10.8-1.7-24-5.7-39.6-12.2c-15.6-6.5-33.3-16.2-53.1-29.1
	c-19.8-12.9-40.9-30.7-63.2-53.3c-17.8-17.5-32.5-34.3-44.2-50.3c-11.7-16-21.1-30.8-28.2-44.4c-7.1-13.6-12.4-25.9-16-36.9
	c-3.6-11-6-20.6-7.2-28.6c-1.3-8-1.8-14.3-1.5-18.8c0.3-4.6,0.4-7.1,0.4-7.6c0.5-3.6,1.7-7.2,3.4-10.8c1.8-3.7,3.9-6.7,6.5-9
	l50.6-50.6c3.6-3.6,7.6-5.3,12.2-5.3c3.3,0,6.2,0.9,8.8,2.9c2.5,1.9,4.7,4.2,6.5,7l40.8,77.3c2.3,4.1,2.9,8.5,1.9,13.3
	c-1,4.8-3.2,8.9-6.5,12.2l-18.7,18.7c-0.5,0.5-1,1.3-1.3,2.5c-0.4,1.1-0.6,2.1-0.6,2.9c1,5.3,3.3,11.4,6.9,18.3
	c3,6.1,7.7,13.5,14.1,22.3c6.3,8.8,15.4,18.9,27,30.3c11.4,11.7,21.6,20.8,30.5,27.2c8.9,6.5,16.3,11.2,22.3,14.3
	c6,3,10.5,4.9,13.7,5.5l4.8,1c0.5,0,1.3-0.2,2.5-0.6c1.1-0.4,2-0.8,2.5-1.3l21.7-22.1c4.6-4,9.9-6.1,16-6.1c4.3,0,7.7,0.8,10.3,2.3
	h0.4l73.5,43.4C366.6,334.2,369.8,338.4,370.8,343.5z"/>
</svg>
