<?xml version="1.0" encoding="utf-8"?>
<!-- Generator: Adobe Illustrator 21.1.0, SVG Export Plug-In . SVG Version: 6.00 Build 0)  -->
<svg version="1.1" id="Capa_1" xmlns="http://www.w3.org/2000/svg" xmlns:xlink="http://www.w3.org/1999/xlink" x="0px" y="0px"
	 viewBox="0 0 469.1 500" style="enable-background:new 0 0 469.1 500;" xml:space="preserve">
<style type="text/css">
	.st0{fill:#CCCCCC;}
</style>
<g>
	<g>
		<path class="st0" d="M263.5,327.6c-7.9,4.9-18.1,7.6-28.7,7.6c-10.5,0-20.7-2.7-28.7-7.6L76.5,248.1c0,0-11.7-7.2-11.7,9.1v79.5
			c0,41.9,76.2,87,170.1,87s170.1-45.1,170.1-87v-83.9c0-13.1-8.3-6.7-8.3-6.7L263.5,327.6z M263.5,327.6"/>
		<path class="st0" d="M450.7,184.8c10-6.1,10-16.1,0-22.2L253,63.7c-10-6.1-26.3-6.1-36.3,0L19.1,162.5c-10,6.1-10,16.1,0,22.2
			L216.7,306c10,6.1,26.3,6.1,36.3,0"/>
	</g>
	<path class="st0" d="M442.5,364.4V230.6c0,0,0.1-6.3-3.7-4.2c-3,1.7-10.4,5.8-13,8.1c-3,2.6-2.3,8.5-2.3,8.5v121.6
		c0,1.7-1.5,2.6-2.2,3c-6.8,4-11.4,11.4-11.4,19.9c0,12.8,10.4,23.1,23.1,23.1c12.8,0,23.1-10.4,23.1-23.1c0-8.5-4.6-16-11.5-20
		C443.9,367,442.5,366.2,442.5,364.4L442.5,364.4z M442.5,364.4"/>
</g>
</svg>
