<?xml version="1.0" encoding="utf-8"?>
<!-- Generator: Adobe Illustrator 21.1.0, SVG Export Plug-In . SVG Version: 6.00 Build 0)  -->
<svg version="1.1" xmlns="http://www.w3.org/2000/svg" xmlns:xlink="http://www.w3.org/1999/xlink" x="0px" y="0px"
	 viewBox="0 0 1881.2 1265" style="enable-background:new 0 0 1881.2 1265;" xml:space="preserve">
<style type="text/css">
	.st0{clip-path:url(#SVGID_2_);}
	.st1{opacity:0.6;clip-path:url(#SVGID_4_);fill:url(#SVGID_5_);}
	.st2{opacity:0.3;clip-path:url(#SVGID_4_);}
	.st3{opacity:0.3;}
	.st4{fill:none;}
	.st5{opacity:0.5;}
	.st6{fill:#007996;}
</style>
<g id="Capa_2">
	<g>
		<defs>
			<rect id="SVGID_1_" x="61.5" y="197" width="1603" height="978"/>
		</defs>
		<clipPath id="SVGID_2_">
			<use xlink:href="#SVGID_1_"  style="overflow:visible;"/>
		</clipPath>
		<g class="st0">
			<defs>
				<path id="SVGID_3_" d="M1820.6-416.6v1417.5c0,118.3-96.8,215.1-215.1,215.1H188c-118.3,0-215.1-96.8-215.1-215.1V-416.6
					c0-118.3,96.8-215.1,215.1-215.1h1417.5C1723.8-631.7,1820.6-534.9,1820.6-416.6z"/>
			</defs>
			<clipPath id="SVGID_4_">
				<use xlink:href="#SVGID_3_"  style="overflow:visible;"/>
			</clipPath>
			
				<linearGradient id="SVGID_5_" gradientUnits="userSpaceOnUse" x1="775.8032" y1="354.0382" x2="796.8054" y2="1797.1825" gradientTransform="matrix(1 -1.369496e-03 1.369496e-03 1 -4.6936 -1.1017)">
				<stop  offset="6.293194e-02" style="stop-color:#FFFFFF"/>
				<stop  offset="0.4996" style="stop-color:#77CBE8"/>
				<stop  offset="1" style="stop-color:#007996"/>
			</linearGradient>
			<polygon class="st1" points="2312.3,1600 -761.1,1604.2 -764.1,-581.3 2309.4,-585.5 			"/>
			<g class="st2">
				<defs>
					
						<rect id="SVGID_6_" x="-337.8" y="-766.4" transform="matrix(0.9997 2.537058e-02 -2.537058e-02 0.9997 5.2711 -21.2486)" class="st3" width="2355.6" height="1927"/>
				</defs>
				<clipPath id="SVGID_7_">
					<use xlink:href="#SVGID_6_"  style="overflow:visible;"/>
				</clipPath>
			</g>
		</g>
	</g>
	<rect x="61.5" y="183" class="st4" width="1602" height="1033"/>
	<g>
		<defs>
			<path id="SVGID_8_" d="M1345,528.8l-332.2,324.5c-84.5,82.6-221.3,81-303.9-3.5L384.4,517.7c-82.6-84.5-81-221.3,3.5-303.9
				l332.2-324.5c84.5-82.6,221.3-81,303.9,3.5l324.5,332.2C1431.1,309.4,1429.5,446.2,1345,528.8z"/>
		</defs>
		<clipPath id="SVGID_9_">
			<use xlink:href="#SVGID_8_"  style="overflow:visible;"/>
		</clipPath>
	</g>
	<g class="st5">
		<g>
			<g>
				<path class="st6" d="M740.2,369.1c-17,0-30.8-13.8-30.8-30.8s13.8-30.8,30.8-30.8c17,0,30.8,13.8,30.8,30.8
					S757.2,369.1,740.2,369.1z M740.2,311.8c-14.6,0-26.4,11.9-26.4,26.4s11.9,26.4,26.4,26.4s26.4-11.9,26.4-26.4
					S754.7,311.8,740.2,311.8z"/>
			</g>
			<g>
				<path class="st6" d="M738,342.7V325c0-1.2,1-2.2,2.2-2.2l0,0c1.2,0,2.2,1,2.2,2.2v13.5l8-5.3c1-0.7,2.4-0.4,3.1,0.6l0,0
					c0.7,1,0.4,2.4-0.6,3.1l-11.4,7.6C739.9,345.5,738,344.4,738,342.7z"/>
			</g>
		</g>
		<g>
			<g>
				<path class="st6" d="M848.1,377.3H843v-4.4c0-1.2-1-2.2-2.2-2.2c-1.2,0-2.2,1-2.2,2.2v4.4h-37.5v-4.4c0-1.2-1-2.2-2.2-2.2
					c-1.2,0-2.2,1-2.2,2.2v4.4h-7.3c-7.8,0-14.1,6.3-14.1,14.1v40.2c0,7.8,6.3,14.1,14.1,14.1h58.7c7.8,0,14.1-6.3,14.1-14.1v-40.2
					C862.2,383.6,855.9,377.3,848.1,377.3z M857.8,431.5c0,5.3-4.3,9.7-9.7,9.7h-58.7c-5.3,0-9.7-4.3-9.7-9.7v-40.2
					c0-5.3,4.3-9.7,9.7-9.7h7.3v2.2c0,1.2,1,2.2,2.2,2.2c1.2,0,2.2-1,2.2-2.2v-2.2h37.5v2.2c0,1.2,1,2.2,2.2,2.2
					c1.2,0,2.2-1,2.2-2.2v-2.2h5.1c5.3,0,9.7,4.3,9.7,9.7V431.5z"/>
				<path class="st6" d="M851.8,403.7c1.2,0,2.2-1,2.2-2.2c0-1.2-1-2.2-2.2-2.2h-66.1c-1.2,0-2.2,1-2.2,2.2c0,1.2,1,2.2,2.2,2.2h11
					c0,0.1,0,0.1,0,0.1v15.3h-11c-1.2,0-2.2,1-2.2,2.2c0,1.2,1,2.2,2.2,2.2h11v10.9c0,1.3,1,2.3,2.2,2.3c1.2,0,2.2-1.1,2.2-2.3
					v-10.9h15.4v10.9c0,1.3,1,2.3,2.2,2.3c1.2,0,2.2-1.1,2.2-2.3v-10.9h15.4v11c0,1.2,1,2.2,2.2,2.2s2.2-1,2.2-2.2v-11h11
					c1.2,0,2.2-1,2.2-2.2c0-1.2-1-2.2-2.2-2.2h-11v-15.4H851.8z M801.2,419.1v-15.3c0-0.1,0-0.1,0-0.1h15.5c0,0.1,0,0.1,0,0.1v15.3
					H801.2z M836.4,419.1H821v-15.3c0-0.1,0-0.1,0-0.1h15.4V419.1z"/>
			</g>
		</g>
		<g>
			<path class="st6" d="M574.7,633.5c-1.6-7.5-7.1-13.6-14.2-16.1c5.9-4.8,10.6-13.4,10.4-14.2c0-0.1-0.1-0.2-0.2-0.3
				c-0.7-0.5-3.7-2.4-4.3-2.7c-0.1-2.1-0.7-4.1-1.7-5.8c-0.8-1.3-1.7-2.5-2.9-3.5c-2.3-2-5.3-3.2-8.6-3.2c0,0,0,0,0,0s0,0,0,0
				c0,0,0,0,0,0c-3.3,0-6.3,1.2-8.6,3.2c-1.2,1-2.1,2.2-2.9,3.5c-1,1.7-1.6,3.7-1.7,5.8c-0.6,0.3-3.6,2.3-4.3,2.8
				c-0.1,0.1-0.2,0.1-0.2,0.2c-0.2,0.6,4.5,9.4,10.5,14.3c-4.9,1.7-9,5.1-11.7,9.5c-3.1-2.3-6.6-4.1-10.3-5.1
				c2.5-2.5,4.2-6.2,5.7-10.7c0.2-0.5,2.8-7.6,2.8-11.2c0-9.2-7.5-16.7-16.7-16.7c-9.2,0-16.7,7.5-16.7,16.7
				c0,3.5,2.6,10.6,2.8,11.2c1.5,4.5,3.2,8.2,5.7,10.7c-3.8,1.1-7.3,2.8-10.3,5.1c-2.7-4.4-6.8-7.8-11.8-9.5
				c1.6-1.9,2.8-4.6,3.9-7.8c0.1-0.4,2.2-6,2.2-8.8c0-7.3-5.9-13.2-13.2-13.2c-7.3,0-13.2,5.9-13.2,13.2c0,2.8,2.1,8.4,2.2,8.8
				c1.1,3.2,2.3,5.9,3.9,7.8c-7.3,2.5-13,8.9-14.5,16.6c-0.8,4-0.4,7.8,0.7,11.2c0.4,1.1,1.4,1.9,2.5,1.9h0.1c1.4,0,2.2-1.4,1.8-2.7
				c-1-2.8-1.4-5.9-0.9-9.2c1.2-7.4,7.3-13.3,14.7-14.4c7.8-1.2,14.8,2.8,18.2,9c-3.9,4-6.7,9-8,14.6c-0.3,1.3,0.7,2.6,2,2.6h0.1
				c1,0,1.9-0.7,2.1-1.8c1-4,2.9-7.7,5.5-10.8c1.1-1.3,2.3-2.5,3.6-3.5c4.6-3.7,10.4-5.9,16.7-5.9s12.1,2.2,16.7,5.9
				c1.3,1.1,2.5,2.2,3.6,3.5c2.6,3.1,4.5,6.8,5.5,10.9c0.2,1,1,1.7,2,1.7c1.5,0,2.6-1.4,2.2-2.8c-1.3-5.5-4.1-10.5-8-14.4
				c3-5.5,8.8-9.2,15.4-9.2c0,0,0,0,0,0c0.4,0,0.7,0,1.1,0.1c0.4,0,0.8,0,1.2,0.1c0.6,0.1,1.3,0.2,1.9,0.4c0.1,0,0.2,0,0.3,0.1
				c4.2,1.1,7.7,3.7,10.1,7.2l0,0c1.4,2,2.4,4.4,2.9,6.9c0.6,3.3,0.2,6.4-0.9,9.2c-0.5,1.3,0.5,2.7,1.9,2.7h0.3c0.9,0,1.7-0.5,2-1.4
				C575.3,642,575.6,637.9,574.7,633.5z M478.3,616.2c-2.5,0-4.7-1.5-5.8-3.6c-0.5-0.9-2.3-8.2-2.7-9.9c-0.1-0.6-0.2-1.3-0.2-2
				c0-4.8,3.9-8.7,8.7-8.8c2.4,0,4.6,1.1,6.2,2.8c2.9,3.1,3,5.7,2.5,8c-0.4,1.7-2.3,9-2.7,9.9C483,614.8,480.8,616.2,478.3,616.2z
				 M515.7,620.6c-3.5,0-6.5-2-8-4.9c-0.6-1.2-3.2-11.2-3.7-13.4c-0.7-3.2-0.5-6.7,3.5-11c2.1-2.2,4.9-3.7,8-3.7
				c6.7-0.1,12.2,5.3,12.2,12c0,0.9-0.1,1.8-0.3,2.7c-0.5,2.3-3.1,12.2-3.7,13.4C522.2,618.7,519.2,620.6,515.7,620.6z M551.8,616.3
				c-5.1-0.5-9.7-8.5-11.2-11.7l2.8-2.8l0-0.9c0,0,0,0,0,0c0-0.1,0-0.1,0-0.2c0.1-1.4,0.5-2.8,1.2-4c0.6-1,1.3-1.9,2.2-2.6
				c1.7-1.5,4-2.4,6.4-2.4c2.5,0,4.7,0.9,6.4,2.4c0.9,0.7,1.6,1.6,2.2,2.6c0.7,1.2,1.1,2.5,1.2,4c0,0.1,0,0.1,0,0.2c0,0,0,0,0,0
				l0,0.9l2.8,2.8c-1.6,3.1-6.2,11.2-11.2,11.7c-0.4,0-0.9,0.1-1.4,0.1C552.7,616.3,552.2,616.3,551.8,616.3z"/>
		</g>
		<g>
			<g>
				<g>
					<path class="st6" d="M1076.6,397.5H951c-1.2,0-2.2-1-2.2-2.2l0,0c0-1.2,1-2.2,2.2-2.2h125.6c1.2,0,2.2,1,2.2,2.2l0,0
						C1078.8,396.5,1077.8,397.5,1076.6,397.5z"/>
				</g>
				<g>
					<path class="st6" d="M1118.4,496.6H913.5c-1.2,0-2.2-1-2.2-2.2l0,0c0-1.2,1-2.2,2.2-2.2h204.9c1.2,0,2.2,1,2.2,2.2l0,0
						C1120.6,495.7,1119.6,496.6,1118.4,496.6z"/>
				</g>
				<g>
					<path class="st6" d="M937.8,483.4L937.8,483.4c-1.2,0-2.2-1-2.2-2.2v-77.1c0-1.2,1-2.2,2.2-2.2l0,0c1.2,0,2.2,1,2.2,2.2v77.1
						C940,482.4,939,483.4,937.8,483.4z"/>
				</g>
				<g>
					<path class="st6" d="M1094.2,483.4L1094.2,483.4c-1.2,0-2.2-1-2.2-2.2v-77.1c0-1.2,1-2.2,2.2-2.2l0,0c1.2,0,2.2,1,2.2,2.2v77.1
						C1096.4,482.4,1095.4,483.4,1094.2,483.4z"/>
				</g>
			</g>
			<g>
				<g>
					<g>
						<g>
							<path class="st6" d="M1047.1,480.6c-1.3-5.5-4.1-10.5-8-14.4c0,0-3.3-3-3.4-2.9c0,0,0,0,0,0c-3.1-2.3-6.6-4.1-10.3-5.1
								c2.5-2.5,4.2-6.2,5.7-10.7c0.2-0.5,2.8-7.6,2.8-11.2c0-9.2-7.5-16.7-16.7-16.7s-16.7,7.5-16.7,16.7c0,3.5,2.6,10.6,2.8,11.2
								c1.5,4.5,3.2,8.2,5.7,10.7c-3.8,1.1-7.3,2.8-10.3,5.1c0,0,0,0,0-0.1l-3.3,3c0,0,0,0,0,0c-3.9,4-6.7,9-8,14.6
								c-0.3,1.3,0.7,2.6,2,2.6h0.1c1,0,1.9-0.7,2.1-1.8c1-4,2.9-7.7,5.5-10.8c1.1-1.3,2.3-2.5,3.6-3.5c4.6-3.7,10.4-5.9,16.7-5.9
								s12.1,2.2,16.7,5.9c1.3,1.1,2.5,2.2,3.6,3.5c2.6,3.1,4.5,6.8,5.5,10.9c0.2,1,1,1.7,2,1.7
								C1046.4,483.4,1047.5,482.1,1047.1,480.6z M1017.1,457c-3.5,0-6.5-2-8-4.9c-0.6-1.2-3.2-11.2-3.7-13.4
								c-0.7-3.2-0.5-6.7,3.5-11c2.1-2.2,4.9-3.7,8-3.7c6.7-0.1,12.2,5.3,12.2,12c0,0.9-0.1,1.8-0.3,2.7c-0.5,2.3-3.1,12.2-3.7,13.4
								C1023.5,455,1020.5,457,1017.1,457z"/>
						</g>
					</g>
					<path class="st6" d="M1015.6,473.8l-2.4,6c-0.3,0.8-0.1,1.8,0.5,2.4l2.9,2.9c0.3,0.3,0.7,0.3,1,0l2.8-2.8
						c0.7-0.7,0.9-1.8,0.6-2.7l-2.4-6c-0.8-2.1-0.4-4.5,1.3-6.2l0.6-0.6c0.4-0.4,0.1-1.2-0.5-1.2h-5.5c-0.6,0-0.9,0.7-0.5,1.2
						l0.5,0.5C1016,469.1,1016.5,471.6,1015.6,473.8z"/>
				</g>
			</g>
			<g>
				<path class="st6" d="M959.8,424c-4.9,0-8.8-4-8.8-8.8s4-8.8,8.8-8.8s8.8,4,8.8,8.8S964.7,424,959.8,424z M959.8,410.7
					c-2.4,0-4.4,2-4.4,4.4c0,2.4,2,4.4,4.4,4.4s4.4-2,4.4-4.4C964.2,412.7,962.2,410.7,959.8,410.7z"/>
			</g>
		</g>
		<g>
			<g>
				<path class="st6" d="M1400,423.2c-6.8,0-12.1-8.7-12.1-19.8s5.3-19.8,12.1-19.8c6.8,0,12.1,8.7,12.1,19.8
					S1406.8,423.2,1400,423.2z M1400,387.9c-3.6,0-7.7,6.3-7.7,15.4s4.1,15.4,7.7,15.4c3.6,0,7.7-6.3,7.7-15.4
					S1403.7,387.9,1400,387.9z"/>
			</g>
			<g>
				<path class="st6" d="M1375.8,436.4c-6.8,0-12.1-8.7-12.1-19.8s5.3-19.8,12.1-19.8s12.1,8.7,12.1,19.8S1382.6,436.4,1375.8,436.4
					z M1375.8,401.1c-3.6,0-7.7,6.3-7.7,15.4s4.1,15.4,7.7,15.4c3.6,0,7.7-6.3,7.7-15.4S1379.4,401.1,1375.8,401.1z"/>
			</g>
			<g>
				<path class="st6" d="M1359.2,447.4c-1.2,0.1-2.2-0.9-2.3-2.1l-1.8-36.1l-3.8,4.7c-0.8,1-2.2,1.1-3.1,0.3l0,0
					c-0.9-0.8-1.1-2.1-0.3-3.1l8.9-11.1c0.8-1,2.4-0.5,2.4,0.8l2.2,44.1C1361.4,446.3,1360.5,447.3,1359.2,447.4L1359.2,447.4z"/>
			</g>
			<g>
				<path class="st6" d="M1353.6,460.4c-1.4,0.9-3.2-0.1-3.2-1.8v-8.7c0-1.4,1.1-2.5,2.5-2.5l0,0c1,0,1.9,0.8,1.9,1.9v5.2l69.8-43.1
					c1-0.6,2.2-0.3,2.8,0.7l0.1,0.1c0.7,1.1,0.3,2.4-0.7,3.1L1353.6,460.4z"/>
			</g>
		</g>
		<g>
			<g>
				<path class="st6" d="M1219.1,438.4c19.2,0,35.5,12.7,41,30.2c0.3,0.9,1.1,1.6,2.1,1.6h0c1.5,0,2.5-1.4,2.1-2.9
					c-6-19.3-24-33.3-45.2-33.3c-21.3,0-39.4,14.2-45.3,33.7c-0.4,1.2,0.6,2.5,1.9,2.5h0.1c1.1,0,2-0.7,2.4-1.8
					C1183.8,451,1200,438.4,1219.1,438.4z"/>
			</g>
			<path class="st6" d="M1250.6,382.2c-0.4-2.3-1.1-4.5-2-6.5l20.4-14c1.8-1.2,1.8-3.8,0-5l-46.2-31.7c-1.5-1-3.5-1-5,0l-45.6,31.4
				c-2,1.4-2,4.4,0,5.8l19.8,13.6c-0.9,2.1-1.6,4.3-2,6.5c-0.1,0.6-0.2,1.3-0.3,1.9c-0.1,1.2-0.2,2.4-0.2,3.6
				c0,5.2,1.3,10.1,3.5,14.4c0.8,1.5,1.8,3,2.8,4.4c0.1,0.1,0.2,0.3,0.3,0.4c0,0.3,0,0.5,0,0.8c0,13.4,10.9,24.2,24.2,24.2
				s24.2-10.9,24.2-24.2c0-0.3,0-0.5,0-0.8c0.1-0.1,0.2-0.3,0.3-0.4c1.1-1.4,2-2.8,2.8-4.4c2.3-4.3,3.6-9.1,3.6-14.3
				c0,0,0-0.1,0-0.1C1251.1,385.8,1250.9,383.9,1250.6,382.2z M1195.8,397.7c-0.9-2.1-1.4-4.3-1.7-6.6c1.7,1.1,3.4,2.1,5.2,2.9
				C1198,395.1,1196.8,396.3,1195.8,397.7z M1193.9,385.5c0.2-2.6,0.8-5,1.7-7.3l23.4,16.1c-3.6-0.1-7.2-0.7-10.5-1.6
				c-1.9-0.5-3.7-1.1-5.5-1.9C1199.8,389.4,1196.7,387.6,1193.9,385.5z M1240.1,407.6c0,1.4-0.2,2.8-0.4,4.1
				c-1.9,9-9.9,15.7-19.4,15.7s-17.5-6.7-19.4-15.7c-0.3-1.3-0.4-2.7-0.4-4.1c0-0.6-1.3-3.3-2.4-5.4c1.5-2.4,3.5-4.5,5.7-6.3
				c5.2,1.9,10.7,2.9,16.5,2.9s11.4-1,16.5-2.9c2.2,1.8,4.2,3.9,5.7,6.3C1241.4,404.2,1240.1,407,1240.1,407.6z M1244.7,397.7
				c-1-1.3-2.2-2.6-3.4-3.7c1.8-0.9,3.5-1.8,5.2-2.9C1246.2,393.3,1245.6,395.6,1244.7,397.7z M1237.5,390.8
				c-1.8,0.8-3.6,1.4-5.5,1.9c-3.4,0.9-6.9,1.5-10.5,1.6l23.5-16.1c0.9,2.3,1.5,4.8,1.7,7.4C1243.8,387.6,1240.7,389.4,1237.5,390.8
				z M1246.5,371.7l-3.6,2.5l-22.6,15.6l-22.6-15.5l-3.7-2.5l-18.3-12.6l44.6-30.6l44.6,30.6L1246.5,371.7z"/>
			<g>
				<path class="st6" d="M1262.1,412L1262.1,412c-1.2,0-2.2-1-2.2-2.2v-35.2c0-1.2,1-2.2,2.2-2.2l0,0c1.2,0,2.2,1,2.2,2.2v35.2
					C1264.3,411,1263.3,412,1262.1,412z"/>
			</g>
			<g>
				<path class="st6" d="M1263.4,420.6c-4.6,0.9-8.7-3.1-7.8-7.8c0.5-2.6,2.6-4.7,5.2-5.2c4.6-0.9,8.7,3.1,7.8,7.8
					C1268.1,418,1266,420.2,1263.4,420.6z M1262.1,412c-1.2,0-2.2,1-2.2,2.2s1,2.2,2.2,2.2c1.2,0,2.2-1,2.2-2.2
					S1263.3,412,1262.1,412z"/>
			</g>
		</g>
		<g>
			<g>
				<path class="st6" d="M468.4,408.2L468.4,408.2c-1.2,0-2.2-1-2.2-2.2v-59.5c0-1.2,1-2.2,2.2-2.2l0,0c1.2,0,2.2,1,2.2,2.2V406
					C470.6,407.2,469.7,408.2,468.4,408.2z"/>
			</g>
			<g>
				<path class="st6" d="M583,406L583,406c-1.2,0-2.2-1-2.2-2.2v-59.5c0-1.2,1-2.2,2.2-2.2h0c1.2,0,2.2,1,2.2,2.2v59.5
					C585.2,405,584.2,406,583,406z"/>
			</g>
			<g>
				<path class="st6" d="M479.5,414.8h90.3c1.2,0,2.2-1,2.2-2.2l0,0c0-1.2-1-2.2-2.2-2.2h-90.3c-1.2,0-2.2,1-2.2,2.2l0,0
					C477.2,413.8,478.2,414.8,479.5,414.8z"/>
				<path class="st6" d="M565.4,339.5v-0.7c0-17.6-14.3-31.9-31.9-31.9H518c-17.6,0-31.9,14.3-31.9,31.9v0.7c0,0.2-0.2,0.4-0.4,0.4
					H479c-1,0-1.8,0.8-1.8,1.8v0.9c0,1,0.8,1.8,1.8,1.8h7h4.4h4.4h4.4h52.9h4.4h4.4h4.4h4.8c1,0,1.8-0.8,1.8-1.8V342
					c0-1.2-1-2.1-2.1-2.1h-4.1C565.6,339.9,565.4,339.7,565.4,339.5z M499.3,339.5L499.3,339.5c0-10.7,8.7-19.4,19.4-19.4h14.1
					c10.7,0,19.4,8.7,19.4,19.4v0c0,0.2-0.2,0.4-0.4,0.4h-52C499.5,339.9,499.3,339.7,499.3,339.5z M556.6,339.5L556.6,339.5
					c0-13.2-10.6-23.8-23.8-23.8h-14.1c-13.1,0-23.8,10.6-23.8,23.8v0c0,0.2-0.2,0.4-0.4,0.4h-3.6c-0.2,0-0.4-0.2-0.4-0.4v-0.7
					c0-15.2,12.3-27.5,27.5-27.5h15.4c15.2,0,27.5,12.3,27.5,27.5v0.7c0,0.2-0.2,0.4-0.4,0.4H557
					C556.7,339.9,556.6,339.7,556.6,339.5z"/>
				<path class="st6" d="M576.3,348.7c-0.8-0.8-2.2-0.8-3,0l-8.1,8.1l-5,5c-0.2,0.2-0.4,0.5-0.5,0.8c-0.4,1.2-0.8,2.3-1.3,3.5
					c-3.6,7.8-10.8,13.6-19.5,15.3l0-4.2c0-0.1,0-0.3,0-0.4c-0.1-1.5-0.4-3-1.1-4.3c-1.7-3.5-5.4-6-9.6-6h-5.1c-4.2,0-7.8,2.5-9.6,6
					c-0.6,1.3-1,2.7-1.1,4.3c0,0.1,0,0.3,0,0.4l0,4.2c-7-1.3-13.1-5.4-17.1-11c-1.1-1.5-2-3.2-2.8-4.9c-0.2-0.4-0.4-0.7-0.6-1
					l-5.8-6.5l-8.1-9c-0.8-0.9-2.1-1-3-0.2l-0.2,0.2c-0.8,0.7-0.9,2-0.1,2.8l13.5,15c0.3,0.3,0.5,0.7,0.7,1
					c4.3,9.4,13.1,16.3,23.6,18l0,8.2c0,6.7,5.4,12.1,12.1,12.1h2.3c6.7,0,12.1-5.4,12.1-12.1l0-8.2c11.6-1.9,21.1-10.1,24.8-21
					c0.1-0.2,0.2-0.3,0.3-0.5c1.4-1.4,9.8-9.8,12.9-12.9c0.6-0.6,0.6-1.6,0-2.2L576.3,348.7z M534.5,393.9c0,4.2-3.4,7.7-7.7,7.7
					h-2.3c-4.2,0-7.7-3.4-7.7-7.7v-7.8c0.2,0,0.5,0,0.7,0h16.2c0.2,0,0.5,0,0.7,0V393.9z M534.5,377.3v4.5h-17.6v-4.5V377
					c0-1.6,0.6-3,1.5-4.1c1.2-1.3,2.8-2.2,4.7-2.2h5.1c1.9,0,3.6,0.9,4.7,2.2c0.9,1.1,1.5,2.5,1.5,4.1V377.3z"/>
			</g>
		</g>
		<g>
			<g>
				<path class="st6" d="M422.5,329.8c-0.7,0-1.5,0-2.2-0.1c-9.4-0.6-18.1-4.8-24.4-11.9c-6.3-7.1-9.4-16.2-8.8-25.6
					c0.6-9.4,4.8-18.1,11.9-24.4c7.1-6.3,16.2-9.4,25.6-8.8c9.4,0.6,18.1,4.8,24.4,11.9c6.3,7.1,9.4,16.2,8.8,25.6
					c-0.6,9.4-4.8,18.1-11.9,24.4C439.4,326.6,431.2,329.8,422.5,329.8z M422.5,263.3c-16.2,0-29.9,12.7-30.9,29.1
					c-1,17.1,12,31.8,29.1,32.9c17,1,31.8-12,32.9-29.1c1-17.1-12-31.8-29.1-32.9C423.8,263.3,423.1,263.3,422.5,263.3z"/>
			</g>
			<path class="st6" d="M434.7,297.4c-0.4-1-1.1-1.8-2.1-2.6c-0.7-0.5-1.3-0.9-1.9-1.2c-0.6-0.3-2.3-0.8-4.9-1.6l-1.9-0.6l-2.6-0.8
				c-1.8-0.5-3-1.1-3.8-1.7s-1.1-1.5-1.1-2.5c0-1.3,0.6-2.4,1.7-3.3c1.2-0.9,2.8-1.4,5-1.4c1.8,0,3.3,0.3,4.4,0.9
				c1,0.6,1.5,1.4,1.6,2.3c0,0,0,0.1,0,0.1c0,0,0,0,0,0c0,0,0,0.1,0,0.1l0,0.1l0,0c0.3,1.3,1.5,2.3,2.9,2.1c1.2-0.1,2.1-1,2.3-2.1
				c0,0,0.3-3.2-2.3-5.6c-1.8-1.6-4.6-2.5-8.6-2.5c-4.1,0-7.2,1-9.3,2.9c-2.1,1.9-3.1,4.2-3.1,6.7c0,3.7,2.1,6.3,6.4,7.9l3.7,1.2
				l1.8,0.6l2.8,0.8c2.7,0.8,4.1,2.3,4.1,4.3c0,1.5-0.7,2.8-2.1,3.8c-1.4,1.1-3.2,1.6-5.5,1.6c-2.5,0-4.3-0.5-5.4-1.4
				c-1.1-0.9-1.6-2.1-1.6-3.5c0,0-0.1-0.3-0.1-0.3c0-1.5-1.2-2.6-2.6-2.6s-2.6,1.2-2.6,2.6c0,0.1,0,0.3,0,0.3c0,1.8,0.5,3.5,1.6,4.9
				c1,1.4,2.5,2.5,4.2,3.3c1.8,0.8,4,1.2,6.7,1.2c4.2,0,7.4-1,9.7-3.1c2.2-2.1,3.3-4.7,3.3-7.7C435.4,299.6,435.2,298.4,434.7,297.4
				z"/>
			<g>
				<path class="st6" d="M422.5,318.6L422.5,318.6c-1.2,0-2.2-1-2.2-2.2v-41.9c0-1.2,1-2.2,2.2-2.2h0c1.2,0,2.2,1,2.2,2.2v41.9
					C424.7,317.6,423.7,318.6,422.5,318.6z"/>
			</g>
		</g>
		<g>
			<g>
				<path class="st6" d="M382.5,402.9c-1.2-5.2-5.4-9.3-10.6-10.5c-5.1-1.2-10,0.4-13.3,3.6h0c-3.3-3.2-8.1-4.8-13.3-3.6
					c-5.2,1.2-9.4,5.4-10.6,10.6c-1.2,5.1,0.4,9.9,3.6,13.2l0,0c2,3.1,4.4,6.7,7.2,9.6c1.9,2,7.2,5.4,7.8,5.7
					c2.7,1.2,4.3,4.2,4.7,7.4c0.4,3.5-1.1,6.8-3.6,8.9c-0.5,0.4-3.7,1.7-4.7,2.2c-1.9,1-4.2,2.3-6.8,3.7c-18.2,10.2-49.8,30-67.2,41
					c-1.1,0.7-1.4,2.2-0.7,3.3l0,0.1c0.6,0.9,1.8,1.2,2.7,0.6c22.4-14.2,54.9-34.3,70.3-42.9c1.3-0.7,2.6-1.4,4-1.8
					c6.7-1.9,11.2-8.4,10.4-15.6c-0.6-5.6-4.5-9.8-9.3-11.9l0,0c-1.8-1.2-4.1-3.4-6.3-6c-1.9-2.2-6.8-9.4-7.3-10.9
					c-0.8-2.2-1-4.7,0.5-7.6c1.7-3.3,5-5.6,8.7-5.7c3.3,0,6.2,1.6,8,4c1,1.4,3,1.4,4,0c1.8-2.4,4.7-4,8-4c3.7,0,7,2.4,8.7,5.7
					c1.5,2.8,1.3,5.3,0.5,7.6c-0.5,1.5-5.6,8.9-7.4,10.9c-1.5,1.7-3,3.1-4,3.8c-0.7,0.6-1.2,1.4-1.2,2.3c0,1.5,1.7,2.5,3,1.7
					c3.4-2.2,8-7.1,10.7-12.2v0C381.9,412.6,383.7,408,382.5,402.9z"/>
			</g>
			<g>
				<path class="st6" d="M439.4,500.7l-73.3-44c-1-0.6-1.4-2-0.8-3v0c0.6-1,2-1.4,3-0.8l73.3,44c1,0.6,1.4,2,0.8,3l0,0
					C441.8,501,440.4,501.3,439.4,500.7z"/>
			</g>
			<g>
				<path class="st6" d="M292.6,574.8L292.6,574.8c-1.2,0-2.2-1-2.2-2.2v-74.9c0-1.2,1-2.2,2.2-2.2h0c1.2,0,2.2,1,2.2,2.2v74.9
					C294.8,573.8,293.8,574.8,292.6,574.8z"/>
			</g>
			<g>
				<path class="st6" d="M420.4,574.8L420.4,574.8c-1.2,0-2.2-1-2.2-2.2v-74.9c0-1.2,1-2.2,2.2-2.2l0,0c1.2,0,2.2,1,2.2,2.2v74.9
					C422.6,573.8,421.6,574.8,420.4,574.8z"/>
			</g>
			<g>
				<path class="st6" d="M340.2,556.3c-0.8-2.1-0.4-4.5,1.3-6.2l0.6-0.6c0.4-0.4,0.1-1.2-0.5-1.2h-5.5c-0.6,0-0.9,0.7-0.5,1.2
					l0.5,0.5c1.7,1.7,2.2,4.2,1.3,6.4l-2.4,6c-0.3,0.8-0.1,1.8,0.5,2.4l2.9,2.9c0.3,0.3,0.7,0.3,1,0l2.8-2.8
					c0.7-0.7,0.9-1.8,0.6-2.7L340.2,556.3z"/>
				<path class="st6" d="M392.4,557.7c1-1.4,1.5-3.1,1.5-5c0-3-1.5-5.6-3.8-7.2c-1.4-1-3.2-1.6-5.1-1.6c-4.9,0-8.8,4-8.8,8.8
					c0,0,0,0.1,0,0.1c-3.3,0.3-6.4,1.4-9.1,3.1c-1.5-3.5-3.6-6.7-6.3-9.4c0,0-3.3-3-3.4-2.9c0,0,0,0,0,0c-3.1-2.3-6.6-4.1-10.3-5.1
					c2.5-2.5,4.2-6.2,5.7-10.7c0.2-0.5,2.8-7.6,2.8-11.2c0-9.2-7.5-16.7-16.7-16.7s-16.7,7.5-16.7,16.7c0,3.5,2.6,10.6,2.8,11.2
					c1.5,4.5,3.2,8.2,5.7,10.7c-3.8,1.1-7.3,2.8-10.3,5.1c0,0,0,0,0-0.1l-3.3,3c0,0,0,0,0,0c-3.9,4-6.7,9-8,14.6
					c-0.3,1.3,0.7,2.6,2,2.6h0.1c1,0,1.9-0.7,2.1-1.8c1-4,2.9-7.7,5.5-10.8c1.1-1.3,2.3-2.5,3.6-3.5c4.6-3.7,10.4-5.9,16.7-5.9
					s12.1,2.2,16.7,5.9c1.3,1.1,2.5,2.2,3.6,3.5c1.9,2.2,3.3,4.7,4.4,7.5c-1.4,1.3-2.7,2.8-3.7,4.4l-0.2,0.3
					c-1.5,2.3-0.8,5.6,1.4,7.2l0.3,0.2c3.6,2.6,8,4.1,12.7,4.1c7.9,0,14.7-4.1,18.6-10.3c0.4-0.6,0.7-1.1,1-1.7
					c0.8-1.6,0.3-3.7-1.1-4.8L392.4,557.7z M338.8,537.4c-3.5,0-6.5-2-8-4.9c-0.6-1.2-3.2-11.2-3.7-13.4c-0.7-3.2-0.5-6.8,3.6-11.1
					c2-2.1,4.8-3.5,7.7-3.6c6.8-0.2,12.3,5.3,12.3,12c0,0.9-0.1,1.8-0.3,2.7c-0.5,2.3-3.1,12.2-3.7,13.4
					C345.3,535.4,342.3,537.4,338.8,537.4z M386.9,548.7c1,0.4,1.8,1.2,2.2,2.1c0.7,1.7,0.5,3.3-0.4,4.5c-0.8,1.1-2.1,1.9-3.6,1.9
					c-2.4,0-4.3-1.9-4.4-4.3c0,0,0-0.1,0-0.1C380.7,549.8,383.7,547.5,386.9,548.7z M374.1,570.4c-3.7,0-7.1-1.2-10-3.1
					c-0.7-0.5-0.8-1.4-0.3-2.1c0.5-0.7,1-1.3,1.5-1.9c1-1.1,2.1-2.1,3.4-3c2.6-1.7,5.6-2.8,8.9-3c1.5,2.6,4.3,4.4,7.6,4.4
					c1.4,0,2.7-0.4,3.9-0.9c0.2,0.2,0.4,0.3,0.6,0.5C386.6,566.7,380.8,570.4,374.1,570.4z"/>
			</g>
			<path class="st6" d="M402.2,552.4c-1.6-7.5-7.1-13.6-14.2-16.1c5.9-4.8,10.6-13.4,10.4-14.2c0-0.1-0.1-0.2-0.2-0.3
				c-0.7-0.5-3.7-2.4-4.3-2.7c-0.1-2.1-0.7-4.1-1.7-5.8c-0.8-1.3-1.7-2.5-2.9-3.5c-2.3-2-5.3-3.2-8.6-3.2c0,0,0,0,0,0s0,0,0,0
				c0,0,0,0,0,0c-3.3,0-6.3,1.2-8.6,3.2c-1.2,1-2.1,2.2-2.9,3.5c-1,1.7-1.6,3.7-1.7,5.8c-0.6,0.3-3.6,2.3-4.3,2.8
				c-0.1,0.1-0.2,0.1-0.2,0.2c-0.2,0.6,4.5,9.4,10.5,14.3c-4,1.4-7.4,3.9-9.9,7.1L361,546c-1.2,1.2-0.8,3.1,0.6,3.8
				c0.8,0.4,1.9,0.2,2.5-0.5l2.8-3.2c0,0,0,0,0,0c3.2-4,8.1-6.6,13.6-6.6c0,0,0,0,0,0c0.4,0,0.7,0,1.1,0.1c0.4,0,0.8,0,1.2,0.1
				c0.6,0.1,1.3,0.2,1.9,0.4c0.1,0,0.2,0,0.3,0.1c4.2,1.1,7.7,3.7,10.1,7.2l0,0c1.4,2,2.4,4.4,2.9,6.9c0.6,3.3,0.2,6.4-0.9,9.2
				c-0.5,1.3,0.5,2.7,1.9,2.7h0.3c0.9,0,1.7-0.5,2-1.4C402.8,560.9,403.1,556.8,402.2,552.4z M382,535.2c-0.4,0-0.9,0.1-1.4,0.1
				c-0.4,0-0.9,0-1.3-0.1c-5.1-0.5-9.7-8.5-11.2-11.7l2.8-2.8l0-0.9c0,0,0,0,0,0c0-0.1,0-0.1,0-0.2c0.1-1.4,0.5-2.8,1.2-4
				c0.6-1,1.3-1.9,2.2-2.6c1.7-1.5,4-2.4,6.4-2.4c2.5,0,4.7,0.9,6.4,2.4c0.9,0.7,1.6,1.6,2.2,2.6c0.7,1.2,1.1,2.5,1.2,4
				c0,0.1,0,0.1,0,0.2c0,0,0,0,0,0l0,0.9l2.8,2.8C391.7,526.7,387.1,534.7,382,535.2z"/>
		</g>
		<g>
			<g>
				<path class="st6" d="M752.1,583.8l-30.9-21.2c-0.8-0.5-1.8-0.5-2.6,0l-28.7,21.1c-1,0.7-2.4,0.5-3.1-0.5l0,0
					c-0.7-1-0.5-2.4,0.5-3.1l31.3-22.9c0.8-0.6,1.8-0.6,2.6,0l33.4,23c1,0.7,1.3,2.1,0.6,3.1v0C754.4,584.2,753.1,584.5,752.1,583.8
					z"/>
			</g>
			<g>
				<path class="st6" d="M682.4,658.1L682.4,658.1c-1.2,0-2.2-1-2.2-2.2v-66.1c0-1.2,1-2.2,2.2-2.2l0,0c1.2,0,2.2,1,2.2,2.2v66.1
					C684.6,657.1,683.6,658.1,682.4,658.1z"/>
			</g>
			<g>
				<path class="st6" d="M757.3,658.1L757.3,658.1c-1.2,0-2.2-1-2.2-2.2v-66.1c0-1.2,1-2.2,2.2-2.2l0,0c1.2,0,2.2,1,2.2,2.2v66.1
					C759.5,657.1,758.5,658.1,757.3,658.1z"/>
			</g>
			<g>
				<path class="st6" d="M783.8,658.1"/>
			</g>
			<g>
				<path class="st6" d="M783.8,614"/>
			</g>
			<path class="st6" d="M673,595.5L673,595.5c-0.9-0.8-2.3-0.7-3.1,0.2l-16.2,18.2l0.2,0.2h-0.1v41.9c0,1.2,1,2.2,2.2,2.2h0
				c1.2,0,2.2-1,2.2-2.2v-39.6c0-0.5,0.2-1.1,0.6-1.5l14.4-16.2C674,597.7,673.9,596.3,673,595.5z"/>
			<path class="st6" d="M786,613.9l-16.2-18.2c-0.8-0.9-2.2-1-3.1-0.2l0,0c-0.9,0.8-1,2.2-0.2,3.1l14.4,16.2
				c0.4,0.4,0.6,0.9,0.6,1.5v39.6c0,1.2,1,2.2,2.2,2.2h0c1.2,0,2.2-1,2.2-2.2V614h-0.1L786,613.9z"/>
			<path class="st6" d="M728.7,539.1h-6.6v-6.6c0-1.2-1-2.2-2.2-2.2l0,0c-1.2,0-2.2,1-2.2,2.2v6.6h-6.6c-1.2,0-2.2,1-2.2,2.2l0,0
				c0,1.2,1,2.2,2.2,2.2h6.6V559c0,1.2,1,2.2,2.2,2.2l0,0c1.2,0,2.2-1,2.2-2.2v-15.4h6.6c1.2,0,2.2-1,2.2-2.2l0,0
				C730.9,540.1,729.9,539.1,728.7,539.1z"/>
			<g>
				<path class="st6" d="M733.1,658.1L733.1,658.1c-1.2,0-2.2-1-2.2-2.2V614c0-0.7-0.5-6.6-11-6.6s-11,6-11,6.6v41.8
					c0,1.2-1,2.2-2.2,2.2l0,0c-1.2,0-2.2-1-2.2-2.2V614c0-0.1,0.2-11,15.4-11c15.2,0,15.4,10.9,15.4,11v41.9
					C735.3,657.1,734.3,658.1,733.1,658.1z"/>
			</g>
			<g>
				<path class="st6" d="M719.9,594.2c-4.9,0-8.8-4-8.8-8.8c0-4.9,4-8.8,8.8-8.8s8.8,4,8.8,8.8C728.7,590.3,724.7,594.2,719.9,594.2
					z M719.9,581c-2.4,0-4.4,2-4.4,4.4s2,4.4,4.4,4.4s4.4-2,4.4-4.4S722.3,581,719.9,581z"/>
			</g>
			<g>
				<path class="st6" d="M669.2,658.1L669.2,658.1c-1.2,0-2.2-1-2.2-2.2v-35.2c0-1.2,1-2.2,2.2-2.2l0,0c1.2,0,2.2,1,2.2,2.2v35.2
					C671.4,657.1,670.4,658.1,669.2,658.1z"/>
			</g>
			<g>
				<path class="st6" d="M770.5,658.1L770.5,658.1c-1.2,0-2.2-1-2.2-2.2v-35.2c0-1.2,1-2.2,2.2-2.2l0,0c1.2,0,2.2,1,2.2,2.2v35.2
					C772.7,657.1,771.8,658.1,770.5,658.1z"/>
			</g>
		</g>
		<g>
			<g>
				<path class="st6" d="M1040.8,850L1040.8,850c-1.2,0-2.2-1-2.2-2.2v-70.5c0-1.2,1-2.2,2.2-2.2l0,0c1.2,0,2.2,1,2.2,2.2v70.5
					C1043,849,1042,850,1040.8,850z"/>
			</g>
			<g>
				<path class="st6" d="M1157.5,850L1157.5,850c-1.2,0-2.2-1-2.2-2.2v-70.5c0-1.2,1-2.2,2.2-2.2l0,0c1.2,0,2.2,1,2.2,2.2v70.5
					C1159.7,849,1158.7,850,1157.5,850z"/>
			</g>
			<g>
				<path class="st6" d="M1137.7,777.3h-79.3c-1.2,0-2.2-1-2.2-2.2l0,0c0-1.2,1-2.2,2.2-2.2h79.3c1.2,0,2.2,1,2.2,2.2l0,0
					C1139.9,776.3,1138.9,777.3,1137.7,777.3z"/>
			</g>
			<g>
				<path class="st6" d="M1139.9,852.2h-81.5c-1.2,0-2.2-1-2.2-2.2l0,0c0-1.2,1-2.2,2.2-2.2h81.5c1.2,0,2.2,1,2.2,2.2l0,0
					C1142.1,851.2,1141.1,852.2,1139.9,852.2z"/>
			</g>
			<circle class="st6" cx="1130" cy="782.8" r="3.3"/>
			<circle class="st6" cx="1121.2" cy="782.8" r="3.3"/>
			<circle class="st6" cx="1138.8" cy="782.8" r="3.3"/>
			<g>
				<path class="st6" d="M1056.2,818c0-5.7,4-10.5,9.4-11.8c1-0.2,1.7-1.1,1.7-2.1v0c0-1.4-1.3-2.5-2.6-2.2
					c-7.3,1.7-12.8,8.3-12.8,16.1s5.5,14.4,12.8,16.1c1.4,0.3,2.6-0.8,2.6-2.2v0c0-1-0.7-1.9-1.7-2.1
					C1060.2,828.6,1056.2,823.8,1056.2,818z"/>
				<path class="st6" d="M1071.4,832.4L1071.4,832.4c0,1.2,1,2.2,2.2,2.2h45.2c1.2,0,2.2-1,2.2-2.2v0c0-1.2-1-2.2-2.2-2.2h-45.2
					C1072.4,830.2,1071.4,831.1,1071.4,832.4z"/>
				<path class="st6" d="M1071.4,803.7L1071.4,803.7c0,1.2,1,2.2,2.2,2.2h45.2c1.2,0,2.2-1,2.2-2.2v0c0-1.2-1-2.2-2.2-2.2h-45.2
					C1072.4,801.5,1071.4,802.5,1071.4,803.7z"/>
				<path class="st6" d="M1139.9,818c0-7.3-4.8-13.5-11.3-15.7c-1.4-0.5-2.8,0.7-2.8,2.1l0,0c0,0.9,0.6,1.8,1.5,2.1
					c4.8,1.6,8.3,6.2,8.3,11.5c0,5.3-3.5,9.9-8.3,11.5c-0.9,0.3-1.5,1.1-1.5,2.1l0,0c0,1.5,1.4,2.6,2.8,2.1
					C1135.2,831.5,1139.9,825.3,1139.9,818z"/>
			</g>
			<path class="st6" d="M1095.8,812.9l-2.1,10.6c-0.1,0.7,0.6,1.2,1.2,0.9l3.8-2.1l3.3,6.6c0.6,1.1,1.9,1.6,3,1l0.4-0.2
				c1.1-0.5,1.5-1.8,1-2.9l-3.3-6.7l3.3-1.4c0.6-0.3,0.7-1.2,0.1-1.5l-8.8-5.2C1096.9,811.6,1096,812.1,1095.8,812.9z"/>
		</g>
		<g>
			<g>
				<path class="st6" d="M642.4,431.8c-8.5,0-15.4-6.9-15.4-15.4s6.9-15.4,15.4-15.4s15.4,6.9,15.4,15.4S650.9,431.8,642.4,431.8z
					 M642.4,405.3c-6.1,0-11,4.9-11,11s4.9,11,11,11c6.1,0,11-4.9,11-11S648.5,405.3,642.4,405.3z"/>
			</g>
			<g>
				<path class="st6" d="M632.4,460l-11.4-7.6c-1-0.7-1.3-2-0.6-3.1l0,0c0.7-1,2-1.3,3.1-0.6l9.8,6.5l14.9-16.7
					c0.8-0.9,2.2-1,3.1-0.2l0,0c0.9,0.8,1,2.2,0.2,3.1l-16.2,18.2C634.5,460.5,633.3,460.6,632.4,460z"/>
			</g>
			<g>
				<path class="st6" d="M706.3,489l-28.1-0.7c-1.1,0-2-0.8-2.1-1.9l-2.4-16.9c-0.2-1.2,0.7-2.3,1.9-2.5l0,0
					c1.2-0.2,2.3,0.7,2.5,1.9l2.1,15.1l26.3,0.6c1.2,0,2.2,1,2.1,2.3v0C708.5,488.1,707.5,489,706.3,489z"/>
			</g>
			<path class="st6" d="M654.1,430.7l-0.6,1c-0.6,1.1-0.3,2.4,0.8,3.1l12.9,7.8c0.5,0.3,0.9,0.9,1,1.5l2.5,12.7
				c0.1,0.6,0,1.3-0.4,1.8l-35,47.3c-0.7,1-0.5,2.4,0.5,3.1l0,0c1,0.7,2.4,0.5,3.1-0.5l36.1-48.9c0.4-0.5,0.5-1.1,0.4-1.8l-3.3-16.5
				c-0.1-0.6-0.5-1.1-1-1.5l-11-6.6c0,0,0,0,0,0L679,430l-1.1,12.6c-0.1,1.2,0.8,2.3,2,2.4l0,0c1.2,0.1,2.3-0.8,2.4-2l1.3-15.4
				c0.1-1.5-1.2-2.6-2.6-2.4l-25.4,4.5C654.9,429.8,654.4,430.2,654.1,430.7z"/>
		</g>
		<g>
			<g>
				<path class="st6" d="M515.8,830.1L515.8,830.1c-1.2,0-2.2-1-2.2-2.2v-90.3c0-1.2,1-2.2,2.2-2.2l0,0c1.2,0,2.2,1,2.2,2.2v90.3
					C518,829.1,517,830.1,515.8,830.1z"/>
			</g>
			<g>
				<path class="st6" d="M610.5,830.1L610.5,830.1c-1.2,0-2.2-1-2.2-2.2v-90.3c0-1.2,1-2.2,2.2-2.2l0,0c1.2,0,2.2,1,2.2,2.2v90.3
					C612.7,829.1,611.7,830.1,610.5,830.1z"/>
			</g>
			<g>
				<path class="st6" d="M597.3,728.8h-72.7c-1.2,0-2.2-1-2.2-2.2l0,0c0-1.2,1-2.2,2.2-2.2h72.7c1.2,0,2.2,1,2.2,2.2l0,0
					C599.5,727.8,598.5,728.8,597.3,728.8z"/>
			</g>
			<g>
				<path class="st6" d="M599.5,841.1h-72.7c-1.2,0-2.2-1-2.2-2.2l0,0c0-1.2,1-2.2,2.2-2.2h72.7c1.2,0,2.2,1,2.2,2.2l0,0
					C601.7,840.2,600.7,841.1,599.5,841.1z"/>
			</g>
			<path class="st6" d="M594.4,744.2c0.9-3,0.9-6.2-0.1-9.3c-0.3-0.9-0.6-1.7-1.1-2.5c-0.4-0.7-1.1-1.1-1.9-1.1h0
				c-1.7,0-2.7,1.8-1.9,3.2c0.3,0.5,0.5,1.1,0.7,1.7c0.9,2.6,0.7,5.4-0.4,7.9c-0.1,0.2-0.1,0.4-0.2,0.5c-0.1,0.2-0.2,0.4-0.3,0.6
				c-0.9,1.5,0.2,3.3,1.9,3.3h1.2h11.6c1.2,0,2.2-1,2.2-2.2l0,0c0-1.2-1-2.2-2.2-2.2H594.4z"/>
			<g>
				<path class="st6" d="M579.6,753h-19.8c-1.2,0-2.2-1-2.2-2.2l0,0c0-1.2,1-2.2,2.2-2.2h19.8c1.2,0,2.2,1,2.2,2.2l0,0
					C581.8,752,580.9,753,579.6,753z"/>
			</g>
			<g>
				<path class="st6" d="M595.1,764h-35.2c-1.2,0-2.2-1-2.2-2.2l0,0c0-1.2,1-2.2,2.2-2.2h35.2c1.2,0,2.2,1,2.2,2.2l0,0
					C597.3,763,596.3,764,595.1,764z"/>
			</g>
			<g>
				<path class="st6" d="M595.1,781.7h-63.9c-1.2,0-2.2-1-2.2-2.2l0,0c0-1.2,1-2.2,2.2-2.2h63.9c1.2,0,2.2,1,2.2,2.2l0,0
					C597.3,780.7,596.3,781.7,595.1,781.7z"/>
			</g>
			<g>
				<path class="st6" d="M586.3,819.1H540c-1.2,0-2.2-1-2.2-2.2l0,0c0-1.2,1-2.2,2.2-2.2h46.3c1.2,0,2.2,1,2.2,2.2l0,0
					C588.5,818.1,587.5,819.1,586.3,819.1z"/>
			</g>
			<g>
				<g>
					<path class="st6" d="M537.8,766.2c-8.5,0-15.4-6.9-15.4-15.4s6.9-15.4,15.4-15.4s15.4,6.9,15.4,15.4S546.3,766.2,537.8,766.2z
						 M537.8,739.8c-6.1,0-11,4.9-11,11c0,6.1,4.9,11,11,11c6.1,0,11-4.9,11-11C548.8,744.7,543.9,739.8,537.8,739.8z"/>
				</g>
				<g>
					
						<ellipse transform="matrix(8.848851e-02 -0.9961 0.9961 8.848851e-02 -255.4738 1218.0494)" class="st6" cx="537.8" cy="748.6" rx="4.4" ry="4.4"/>
				</g>
				<g>
					<ellipse class="st6" cx="537.8" cy="759.6" rx="6.6" ry="4.4"/>
				</g>
			</g>
			<path class="st6" d="M663,761.1c-1.1-4.1-4.6-7.3-8.8-7.9c-4.9-0.8-9.4,1.7-11.5,5.6l-36.4,77l-0.2,0.4v16.8c0,3.3,3.8,5,6.3,2.9
				l13.1-11.2l36.3-75C663.2,767.3,663.8,764.3,663,761.1z M657.9,767.5c-0.9,1.4-1.9,4-1.9,4l-1.6,3.3L621.9,842l-11.4,9.8v-14.5
				l29.9-63.5l4.6,2.3c1.1,0.5,2.4,0.1,3-1c0.5-1.1,0.1-2.4-1-3l-4.7-2.4l0.3-0.7l1.9-4.1c0,0,1.5-3,2-3.9c1.4-2.6,4.4-4.2,7.8-3.3
				c2,0.6,3.6,2.1,4.3,4.1C659.3,763.9,658.9,765.9,657.9,767.5z"/>
		</g>
		<g>
			<path class="st6" d="M687.2,525.2h-48.3c-10.2,0-19.7-5.5-24.8-14.3L589.9,469c-5.1-8.8-5.1-19.8,0-28.6l24.2-41.9
				c5.1-8.8,14.6-14.3,24.8-14.3h48.3c10.2,0,19.7,5.5,24.8,14.3l24.2,41.9c5.1,8.8,5.1,19.8,0,28.6L712,510.9
				C706.9,519.7,697.4,525.2,687.2,525.2z M638.9,388.6c-8.6,0-16.7,4.6-21,12.1l-24.2,41.9c-4.3,7.5-4.3,16.8,0,24.2l24.2,41.9
				c4.3,7.5,12.4,12.1,21,12.1h48.3c8.6,0,16.7-4.6,21-12.1l24.2-41.9c4.3-7.5,4.3-16.8,0-24.2l-24.2-41.9
				c-4.3-7.5-12.4-12.1-21-12.1H638.9z"/>
		</g>
		<g>
			<path class="st6" d="M608.3,598.6l-34.7-60.1c-5.1-8.8-14.6-14.3-24.8-14.3h-66.8l1.8-3.1c8.7-15.1,8.7-33.8,0-48.9l-42.4-73.4
				c-8.7-15.1-24.9-24.5-42.3-24.5h-84.7c-17.4,0-33.6,9.4-42.3,24.5l-42.4,73.4c-8.7,15.1-8.7,33.8,0,48.9l42.4,73.4
				c8.7,15.1,24.9,24.5,42.3,24.5H399c5.9,0,11.7-1.1,17.1-3.2c0.4,4,1.6,7.9,3.6,11.5l34.7,60.1c5.1,8.8,14.6,14.3,24.8,14.3h69.4
				c10.2,0,19.7-5.5,24.8-14.3l34.7-60.1C613.4,618.4,613.4,607.4,608.3,598.6z M416.1,611c-5.3,2.2-11.1,3.4-17.1,3.4h-84.7
				c-15.8,0-30.6-8.5-38.5-22.2l-42.4-73.4c-7.9-13.7-7.9-30.8,0-44.5l42.4-73.4c7.9-13.7,22.7-22.2,38.5-22.2H399
				c15.8,0,30.6,8.5,38.5,22.2l42.4,73.4c7.9,13.7,7.9,30.8,0,44.5l-3.1,5.4l-2.8,4.9l-36.4,63c-4,7-9.9,12.7-16.8,16.5
				C419.3,609.6,417.7,610.4,416.1,611z M604.4,625l-34.7,60.1c-4.3,7.5-12.4,12.1-21,12.1h-69.4c-8.6,0-16.7-4.6-21-12.1L423.6,625
				c-2-3.4-3-7.3-3.2-11.1c8.6-4.2,16-10.9,20.9-19.5l38-65.9h69.4c8.6,0,16.7,4.6,21,12.1l34.7,60.1
				C608.8,608.3,608.8,617.6,604.4,625z"/>
		</g>
		<g>
			<path class="st6" d="M783.9,517.3c-0.9,0-1.7-0.5-2-1.4L764,472.2c-0.5-1.1-1.7-1.7-2.9-1.2l0,0c-1.1,0.5-1.7,1.7-1.2,2.9
				l19,46.4c0.3,0.8,1.1,1.4,2,1.4h368.6c0.1-1.5,0.1-2.9,0.2-4.4H783.9z"/>
		</g>
		<g>
			<path class="st6" d="M1269,754L1269,754c-1.1-0.5-2.4,0.1-2.9,1.2l-17.9,43.7c-0.3,0.8-1.1,1.4-2,1.4h-90.4v4.4h93.4
				c0.9,0,1.7-0.5,2-1.4l19-46.4C1270.7,755.8,1270.1,754.5,1269,754z"/>
		</g>
		<g>
			<path class="st6" d="M1071.4,919.1H641.8c-0.9,0-1.7-0.5-2-1.4l-19-46.4c-0.5-1.1,0.1-2.4,1.2-2.9l0,0c1.1-0.5,2.4,0.1,2.9,1.2
				l17.9,43.7c0.3,0.8,1.1,1.4,2,1.4h426.6c1.2,0,2.2,1,2.2,2.2l0,0C1073.6,918.1,1072.6,919.1,1071.4,919.1z"/>
		</g>
		<g>
			<g>
				<g>
					<g>
						<path class="st6" d="M1312.1,709.4l-5.5-9.1c-0.6-1-0.3-2.4,0.8-3l0,0c1-0.6,2.4-0.3,3,0.8l3.7,6.1l10.1-15.1
							c0.7-1,2-1.3,3.1-0.6l0,0c1,0.7,1.3,2,0.6,3.1l-12,18C1314.9,710.9,1312.9,710.8,1312.1,709.4z"/>
					</g>
				</g>
				<path class="st6" d="M1361.9,675.9c-6.3-5.7-14.6-9.2-23.7-9.2c-8.3,0-16,2.9-22,7.8c-6-4.9-13.7-7.8-22-7.8
					c-9.1,0-17.4,3.5-23.7,9.2c-1.5,1.3-0.5,3.8,1.4,3.8h0.2c0.5,0,1-0.2,1.4-0.6c5.5-4.9,12.7-8,20.6-8c7.6,0,14.6,2.8,20,7.4
					c0.4,0.6,3.8,0.6,4.1,0c5.4-4.6,12.3-7.4,20-7.4c7.9,0,15.2,3,20.6,8c0.4,0.4,0.9,0.6,1.4,0.6h0.2
					C1362.4,679.6,1363.3,677.2,1361.9,675.9z"/>
				<path class="st6" d="M1361.9,728.7c-6.3-5.7-14.6-9.2-23.7-9.2c-8.3,0-16,2.9-22,7.8c-6-4.9-13.7-7.8-22-7.8
					c-9.1,0-17.4,3.5-23.7,9.2c-1.5,1.3-0.5,3.8,1.4,3.8h0.2c0.5,0,1-0.2,1.4-0.6c5.5-4.9,12.7-8,20.6-8c7.6,0,14.6,2.8,20,7.4
					c0.4,0.6,3.8,0.6,4.1,0c5.4-4.6,12.3-7.4,20-7.4c7.9,0,15.2,3,20.6,8c0.4,0.4,0.9,0.6,1.4,0.6h0.2
					C1362.4,732.5,1363.3,730.1,1361.9,728.7z"/>
				<g>
					<path class="st6" d="M1265.5,725.9L1265.5,725.9c-1.2,0-2.2-1-2.2-2.2v-41.9c0-1.2,1-2.2,2.2-2.2l0,0c1.2,0,2.2,1,2.2,2.2v41.9
						C1267.7,724.9,1266.7,725.9,1265.5,725.9z"/>
				</g>
				<g>
					<path class="st6" d="M1366.8,725.9L1366.8,725.9c-1.2,0-2.2-1-2.2-2.2v-41.9c0-1.2,1-2.2,2.2-2.2l0,0c1.2,0,2.2,1,2.2,2.2v41.9
						C1369,724.9,1368,725.9,1366.8,725.9z"/>
				</g>
			</g>
		</g>
		<g>
			<g>
				<g>
					<path class="st6" d="M1128.4,674.1L1128.4,674.1c-1.2,0-2.2-1-2.2-2.2v-41.9c0-1.2,1-2.2,2.2-2.2l0,0c1.2,0,2.2,1,2.2,2.2v41.9
						C1130.6,673.1,1129.6,674.1,1128.4,674.1z"/>
				</g>
			</g>
			<g>
				<g>
					<g>
						<path class="st6" d="M1209.9,671.9L1209.9,671.9c-1.2,0-2.2-1-2.2-2.2v-41.9c0-1.2,1-2.2,2.2-2.2l0,0c1.2,0,2.2,1,2.2,2.2
							v41.9C1212.1,670.9,1211.1,671.9,1209.9,671.9z"/>
					</g>
				</g>
				<g>
					<path class="st6" d="M1196.7,630.1h-55.1c-1.2,0-2.2-1-2.2-2.2l0,0c0-1.2,1-2.2,2.2-2.2h55.1c1.2,0,2.2,1,2.2,2.2l0,0
						C1198.9,629.1,1197.9,630.1,1196.7,630.1z"/>
				</g>
				<g>
					<g>
						<path class="st6" d="M1209.9,685.1h-81.5c-1.2,0-2.2-1-2.2-2.2l0,0c0-1.2,1-2.2,2.2-2.2h81.5c1.2,0,2.2,1,2.2,2.2l0,0
							C1212.1,684.1,1211.1,685.1,1209.9,685.1z"/>
					</g>
				</g>
				<g>
					<g>
						<path class="st6" d="M1168.7,669.1l-29.2-27.1c-0.9-0.8-0.9-2.2-0.1-3.1l0,0c0.8-0.9,2.2-0.9,3.1-0.1l27.7,25.7c0,0,0,0,0,0
							l27.7-25.7c0.9-0.8,2.3-0.8,3.1,0.1l0,0c0.8,0.9,0.8,2.3-0.1,3.1l-29.2,27.1C1170.9,669.9,1169.6,669.9,1168.7,669.1z"/>
					</g>
				</g>
				<g>
					<path class="st6" d="M1174.3,612.7V609c0,0,0,0,0,0h-23.9c-2.2,0-3.9-1.8-3.9-3.9v-16.4c0-2,1.6-3.5,3.5-3.5h24.3c0,0,0,0,0,0
						v-2.9c0-2.9,3.6-4.3,5.6-2.1l16.5,18.3c0.4,0.4,0.3,1.1-0.1,1.5l-17,15.1C1177.4,616.6,1174.3,615.3,1174.3,612.7z M1151.5,605
						h26.9c0,0,0,0,0,0v5.5c0,0,0,0,0,0l13.1-11.6c0,0,0,0,0,0l-13.1-14.6v4.8c0,0,0,0,0,0h-26.9c-0.6,0-1,0.5-1,1v13.9
						C1150.4,604.5,1150.9,605,1151.5,605z"/>
				</g>
			</g>
		</g>
		<g>
			<g>
				<path class="st6" d="M1236.1,558.7c0-8.8-4.8-16.6-11.8-20.8c-1.5-0.9-3.4,0.1-3.4,1.9l0,0c0,0.8,0.4,1.5,1.1,1.9
					c5.8,3.5,9.7,9.8,9.7,17s-3.9,13.6-9.7,17c-0.7,0.4-1.1,1.1-1.1,1.9v0c0,1.7,1.9,2.8,3.4,1.9
					C1231.3,575.2,1236.1,567.5,1236.1,558.7z"/>
			</g>
			<path class="st6" d="M1368.7,534.9c-5.4-1.1-10.5-0.3-14.9,1.7h-118c-1.1,0-1.9,0.9-1.9,1.9v0.6c0,1,0.8,1.9,1.9,1.9h111.5h7.5
				c1.5-0.7,3-1.3,4.6-1.7c3.9-0.9,8.3-0.7,12.9,1.5c6.1,3,10.5,8.9,11.2,15.7c1.2,11.9-8.1,21.9-19.7,21.9c-3.3,0-6.3-0.8-9-2.2
				h-7.5h-111.1c-1.2,0-2.2,1-2.2,2.2v0.2c0,1.1,0.9,1.9,1.9,1.9h118c3.1,1.4,6.5,2.2,10,2.2c14.2,0,25.6-12.3,24.1-26.8
				C1386.9,545.7,1379,537,1368.7,534.9z"/>
			<g>
				<path class="st6" d="M1276.2,507.8c0-7.9-3.8-14.9-9.7-19.3c-1.5-1.1-3.6-0.1-3.6,1.7l0,0c0,0.7,0.3,1.3,0.9,1.8
					c4.8,3.6,7.9,9.4,7.9,15.8s-3.1,12.2-7.9,15.8c-0.6,0.4-0.9,1.1-0.9,1.8l0,0c0,1.8,2.1,2.8,3.6,1.7
					C1272.4,522.7,1276.2,515.7,1276.2,507.8z"/>
			</g>
			<g>
				<path class="st6" d="M1355.6,481.7c-6.7-1.1-13,0.6-18,4.1h-61.1c-1.2,0-2.1,0.9-2.1,2.1v0.1c0,1.2,1,2.2,2.2,2.2h56.2h6.2
					c3.4-2.8,7.7-4.4,12.4-4.4s9,1.7,12.4,4.4c4.5,3.6,7.4,9.2,7.4,15.4c0,7.7-4.4,14.3-10.8,17.6c-2.7,1.4-5.8,2.2-9,2.2
					c-3.3,0-6.3-0.8-9-2.2h-7.5h-58.2c-1.3,0-2.3,1-2.3,2.3v0.1c0,1.1,0.9,2,2,2h65c3.1,1.4,6.5,2.2,10,2.2s7-0.8,10-2.2
					c1.1-0.5,2.2-1.1,3.2-1.7c7.4-4.8,12-13.5,10.8-23.2C1374.3,492.1,1366.1,483.4,1355.6,481.7z"/>
			</g>
			<g>
				<path class="st6" d="M1307.1,503.4h-33c-1.2,0-2.2-1-2.2-2.2l0,0c0-1.2,1-2.2,2.2-2.2h33c1.2,0,2.2,1,2.2,2.2l0,0
					C1309.3,502.4,1308.3,503.4,1307.1,503.4z"/>
			</g>
			<g>
				<path class="st6" d="M1307.1,514.4h-31.9c-1.2,0-2.2-1-2.2-2.2l0,0c0-1.2,1-2.2,2.2-2.2h31.9c1.2,0,2.2,1,2.2,2.2l0,0
					C1309.3,513.4,1308.3,514.4,1307.1,514.4z"/>
			</g>
			<g>
				<path class="st6" d="M1266.9,556.5h-33c-1.2,0-2.2-1-2.2-2.2l0,0c0-1.2,1-2.2,2.2-2.2h33c1.2,0,2.2,1,2.2,2.2l0,0
					C1269.1,555.5,1268.2,556.5,1266.9,556.5z"/>
			</g>
			<g>
				<path class="st6" d="M1266.9,567.5H1235c-1.2,0-2.2-1-2.2-2.2l0,0c0-1.2,1-2.2,2.2-2.2h31.9c1.2,0,2.2,1,2.2,2.2l0,0
					C1269.1,566.5,1268.2,567.5,1266.9,567.5z"/>
			</g>
		</g>
		<g>
			<path class="st6" d="M1423.6,509.4l-21.1-36.6c-0.4-0.7-1.2-1.1-2-1.1h-0.1c-1.6,0-2.7,1.8-1.8,3.2l21.2,36.7
				c5.8,10,5.8,22.5,0,32.6l-42.3,73.2c-5.8,10-16.6,16.3-28.2,16.3h-82.5h-2c-0.8,0-1.6,0-2.4-0.1c-10.7-0.8-20.4-6.8-25.8-16.2
				l-36.4-63l-2.6-4.4l-3.3-5.7c-5.8-10-5.8-22.5,0-32.6l21.1-36.5c0-0.1,0.1-0.1,0.2-0.1h27.3c14.2,0,27.5-7.6,34.6-20l18.9-32.8
				c0-0.1,0.1-0.1,0.2-0.1h28.4c1.1,0,2.1-0.9,2.1-2.1c0-1.3-1-2.3-2.3-2.3h-25.4c-0.2,0-0.3-0.2-0.2-0.3l2.3-4
				c7.1-12.3,7.1-27.6,0-39.9l-24-41.6c-7.1-12.3-20.3-20-34.6-20H1195c-14.3,0-27.6,7.6-34.7,20.1l-23.9,41.4
				c-7.2,12.4-7.2,27.7,0,40.1l23.9,41.4c7.2,12.4,20.4,20.1,34.7,20.1h15c0.2,0,0.3,0.2,0.2,0.3l-19.7,34.1
				c-6.6,11.4-6.6,25.6,0,37l2,3.5h-44.5c-15.1,0-29.1,8.1-36.6,21.1l-25.5,44.2c-7.5,13-7.5,29.2,0,42.3l25.5,44.2
				c7.5,13,21.6,21.1,36.6,21.1h51c15.1,0,29.1-8.1,36.6-21.1l25.5-44.2c3.5-6,5.3-12.7,5.6-19.4h82.5c13.2,0,25.4-7.1,32-18.5
				l42.3-73.2C1430.2,534.9,1430.2,520.8,1423.6,509.4z M1194.9,470.5c-12.6,0-24.4-6.8-30.7-17.7l-24-41.5
				c-6.4-11.1-6.4-24.7,0-35.7l24-41.5c6.3-10.9,18.1-17.7,30.7-17.7h47.9c12.8,0,24.5,6.8,30.9,17.9l24,41.5
				c6.3,10.9,6.3,24.5,0,35.5l-3.7,6.5l-2.5,4.4l-17.7,30.6c-6.4,11.1-18.2,17.9-30.9,17.9H1218h-5.1H1194.9z M1257.4,655.3
				l-25.5,44.2c-6.7,11.7-19.3,18.9-32.8,18.9h-51c-13.5,0-26-7.3-32.8-18.9l-25.5-44.2c-6.7-11.7-6.7-26.2,0-37.9l25.5-44.2
				c6.7-11.7,19.3-18.9,32.8-18.9h47l37.7,65.3c6.2,10.7,17.4,17.6,29.7,18.4C1262.2,644,1260.5,649.9,1257.4,655.3z"/>
		</g>
	</g>
</g>
<g id="Capa_1">
</g>
</svg>
