<?xml version="1.0" encoding="utf-8"?>
<!-- Generator: Adobe Illustrator 21.1.0, SVG Export Plug-In . SVG Version: 6.00 Build 0)  -->
<svg version="1.1" xmlns="http://www.w3.org/2000/svg" xmlns:xlink="http://www.w3.org/1999/xlink" x="0px" y="0px"
	 viewBox="0 0 1603 992" style="enable-background:new 0 0 1603 992;" xml:space="preserve">
<style type="text/css">
	.st0{clip-path:url(#SVGID_2_);}
	.st1{opacity:0.6;clip-path:url(#SVGID_4_);fill:url(#SVGID_5_);}
	.st2{opacity:0.3;clip-path:url(#SVGID_4_);}
	.st3{opacity:0.3;}
	.st4{fill:none;}
	.st5{opacity:0.5;}
	.st6{fill:#007996;}
</style>
<g id="Capa_2">
	<g>
		<defs>
			<rect id="SVGID_1_" y="14" width="1603" height="978"/>
		</defs>
		<clipPath id="SVGID_2_">
			<use xlink:href="#SVGID_1_"  style="overflow:visible;"/>
		</clipPath>
		<g class="st0">
			<defs>
				<path id="SVGID_3_" d="M1759.2-599.6V817.9c0,118.3-96.8,215.1-215.1,215.1H126.6C8.3,1033-88.5,936.2-88.5,817.9V-599.6
					c0-118.3,96.8-215.1,215.1-215.1h1417.5C1662.4-814.7,1759.2-717.9,1759.2-599.6z"/>
			</defs>
			<clipPath id="SVGID_4_">
				<use xlink:href="#SVGID_3_"  style="overflow:visible;"/>
			</clipPath>
			
				<linearGradient id="SVGID_5_" gradientUnits="userSpaceOnUse" x1="714.3479" y1="171.0382" x2="735.35" y2="1614.1825" gradientTransform="matrix(1 -1.369496e-03 1.369496e-03 1 -4.443 -1.1859)">
				<stop  offset="6.293194e-02" style="stop-color:#FFFFFF"/>
				<stop  offset="0.4996" style="stop-color:#77CBE8"/>
				<stop  offset="1" style="stop-color:#007996"/>
			</linearGradient>
			<polygon class="st1" points="2250.9,1417 -822.6,1421.2 -825.6,-764.3 2247.9,-768.5 			"/>
			<g class="st2">
				<defs>
					
						<rect id="SVGID_6_" x="-399.2" y="-949.4" transform="matrix(0.9997 2.537058e-02 -2.537058e-02 0.9997 0.6085 -19.7483)" class="st3" width="2355.6" height="1927"/>
				</defs>
				<clipPath id="SVGID_7_">
					<use xlink:href="#SVGID_6_"  style="overflow:visible;"/>
				</clipPath>
			</g>
		</g>
	</g>
	<rect class="st4" width="1602" height="1033"/>
	<g>
		<defs>
			<path id="SVGID_8_" d="M1283.5,345.8L951.4,670.3c-84.5,82.6-221.3,81-303.9-3.5L322.9,334.7c-82.6-84.5-81-221.3,3.5-303.9
				l332.2-324.5c84.5-82.6,221.3-81,303.9,3.5l324.5,332.2C1369.7,126.4,1368.1,263.2,1283.5,345.8z"/>
		</defs>
		<clipPath id="SVGID_9_">
			<use xlink:href="#SVGID_8_"  style="overflow:visible;"/>
		</clipPath>
	</g>
	<g class="st5">
		<g>
			<g>
				<path class="st6" d="M700,271.2c-17,0-30.8-13.8-30.8-30.8s13.8-30.8,30.8-30.8s30.8,13.8,30.8,30.8S717,271.2,700,271.2z
					 M700,213.9c-14.6,0-26.4,11.9-26.4,26.4s11.9,26.4,26.4,26.4s26.4-11.9,26.4-26.4S714.6,213.9,700,213.9z"/>
			</g>
			<g>
				<path class="st6" d="M697.8,244.8v-17.6c0-1.2,1-2.2,2.2-2.2l0,0c1.2,0,2.2,1,2.2,2.2v13.5l8-5.3c1-0.7,2.4-0.4,3.1,0.6l0,0
					c0.7,1,0.4,2.4-0.6,3.1l-11.4,7.6C699.7,247.6,697.8,246.5,697.8,244.8z"/>
			</g>
		</g>
		<g>
			<g>
				<path class="st6" d="M807.9,279.4h-5.1V275c0-1.2-1-2.2-2.2-2.2c-1.2,0-2.2,1-2.2,2.2v4.4H761V275c0-1.2-1-2.2-2.2-2.2
					c-1.2,0-2.2,1-2.2,2.2v4.4h-7.3c-7.8,0-14.1,6.3-14.1,14.1v40.2c0,7.8,6.3,14.1,14.1,14.1h58.7c7.8,0,14.1-6.3,14.1-14.1v-40.2
					C822,285.7,815.7,279.4,807.9,279.4z M817.6,333.6c0,5.3-4.3,9.7-9.7,9.7h-58.7c-5.3,0-9.7-4.3-9.7-9.7v-40.2
					c0-5.3,4.3-9.7,9.7-9.7h7.3v2.2c0,1.2,1,2.2,2.2,2.2c1.2,0,2.2-1,2.2-2.2v-2.2h37.5v2.2c0,1.2,1,2.2,2.2,2.2
					c1.2,0,2.2-1,2.2-2.2v-2.2h5.1c5.3,0,9.7,4.3,9.7,9.7V333.6z"/>
				<path class="st6" d="M811.6,305.8c1.2,0,2.2-1,2.2-2.2c0-1.2-1-2.2-2.2-2.2h-66.1c-1.2,0-2.2,1-2.2,2.2c0,1.2,1,2.2,2.2,2.2h11
					c0,0.1,0,0.1,0,0.1v15.3h-11c-1.2,0-2.2,1-2.2,2.2c0,1.2,1,2.2,2.2,2.2h11v10.9c0,1.3,1,2.3,2.2,2.3c1.2,0,2.2-1.1,2.2-2.3
					v-10.9h15.4v10.9c0,1.3,1,2.3,2.2,2.3c1.2,0,2.2-1.1,2.2-2.3v-10.9h15.4v11c0,1.2,1,2.2,2.2,2.2s2.2-1,2.2-2.2v-11h11
					c1.2,0,2.2-1,2.2-2.2c0-1.2-1-2.2-2.2-2.2h-11v-15.4H811.6z M761,321.2v-15.3c0-0.1,0-0.1,0-0.1h15.5c0,0.1,0,0.1,0,0.1v15.3
					H761z M796.2,321.2h-15.4v-15.3c0-0.1,0-0.1,0-0.1h15.4V321.2z"/>
			</g>
		</g>
		<g>
			<path class="st6" d="M534.5,535.6c-1.6-7.5-7.1-13.6-14.2-16.1c5.9-4.8,10.6-13.4,10.4-14.2c0-0.1-0.1-0.2-0.2-0.3
				c-0.7-0.5-3.7-2.4-4.3-2.7c-0.1-2.1-0.7-4.1-1.7-5.8c-0.8-1.3-1.7-2.5-2.9-3.5c-2.3-2-5.3-3.2-8.6-3.2c0,0,0,0,0,0s0,0,0,0
				c0,0,0,0,0,0c-3.3,0-6.3,1.2-8.6,3.2c-1.2,1-2.1,2.2-2.9,3.5c-1,1.7-1.6,3.7-1.7,5.8c-0.6,0.3-3.6,2.3-4.3,2.8
				c-0.1,0.1-0.2,0.1-0.2,0.2c-0.2,0.6,4.5,9.4,10.5,14.3c-4.9,1.7-9,5.1-11.7,9.5c-3.1-2.3-6.6-4.1-10.3-5.1
				c2.5-2.5,4.2-6.2,5.7-10.7c0.2-0.5,2.8-7.6,2.8-11.2c0-9.2-7.5-16.7-16.7-16.7s-16.7,7.5-16.7,16.7c0,3.5,2.6,10.6,2.8,11.2
				c1.5,4.5,3.2,8.2,5.7,10.7c-3.8,1.1-7.3,2.8-10.3,5.1c-2.7-4.4-6.8-7.8-11.8-9.5c1.6-1.9,2.8-4.6,3.9-7.8c0.1-0.4,2.2-6,2.2-8.8
				c0-7.3-5.9-13.2-13.2-13.2c-7.3,0-13.2,5.9-13.2,13.2c0,2.8,2.1,8.4,2.2,8.8c1.1,3.2,2.3,5.9,3.9,7.8c-7.3,2.5-13,8.9-14.5,16.6
				c-0.8,4-0.4,7.8,0.7,11.2c0.4,1.1,1.4,1.9,2.5,1.9h0.1c1.4,0,2.2-1.4,1.8-2.7c-1-2.8-1.4-5.9-0.9-9.2c1.2-7.4,7.3-13.3,14.7-14.4
				c7.8-1.2,14.8,2.8,18.2,9c-3.9,4-6.7,9-8,14.6c-0.3,1.3,0.7,2.6,2,2.6h0.1c1,0,1.9-0.7,2.1-1.8c1-4,2.9-7.7,5.5-10.8
				c1.1-1.3,2.3-2.5,3.6-3.5c4.6-3.7,10.4-5.9,16.7-5.9s12.1,2.2,16.7,5.9c1.3,1.1,2.5,2.2,3.6,3.5c2.6,3.1,4.5,6.8,5.5,10.9
				c0.2,1,1,1.7,2,1.7c1.5,0,2.6-1.4,2.2-2.8c-1.3-5.5-4.1-10.5-8-14.4c3-5.5,8.8-9.2,15.4-9.2c0,0,0,0,0,0c0.4,0,0.7,0,1.1,0.1
				c0.4,0,0.8,0,1.2,0.1c0.6,0.1,1.3,0.2,1.9,0.4c0.1,0,0.2,0,0.3,0.1c4.2,1.1,7.7,3.7,10.1,7.2l0,0c1.4,2,2.4,4.4,2.9,6.9
				c0.6,3.3,0.2,6.4-0.9,9.2c-0.5,1.3,0.5,2.7,1.9,2.7h0.3c0.9,0,1.7-0.5,2-1.4C535.1,544.1,535.5,540,534.5,535.6z M438.1,518.3
				c-2.5,0-4.7-1.5-5.8-3.6c-0.5-0.9-2.3-8.2-2.7-9.9c-0.1-0.6-0.2-1.3-0.2-2c0-4.8,3.9-8.7,8.7-8.8c2.4,0,4.6,1.1,6.2,2.8
				c2.9,3.1,3,5.7,2.5,8c-0.4,1.7-2.3,9-2.7,9.9C442.8,516.9,440.7,518.3,438.1,518.3z M475.6,522.8c-3.5,0-6.5-2-8-4.9
				c-0.6-1.2-3.2-11.2-3.7-13.4c-0.7-3.2-0.5-6.7,3.5-11c2.1-2.2,4.9-3.7,8-3.7c6.7-0.1,12.2,5.3,12.2,12c0,0.9-0.1,1.8-0.3,2.7
				c-0.5,2.3-3.1,12.2-3.7,13.4C482,520.8,479,522.8,475.6,522.8z M511.6,518.4c-5.1-0.5-9.7-8.5-11.2-11.7l2.8-2.8l0-0.9
				c0,0,0,0,0,0c0-0.1,0-0.1,0-0.2c0.1-1.4,0.5-2.8,1.2-4c0.6-1,1.3-1.9,2.2-2.6c1.7-1.5,4-2.4,6.4-2.4c2.5,0,4.7,0.9,6.4,2.4
				c0.9,0.7,1.6,1.6,2.2,2.6c0.7,1.2,1.1,2.5,1.2,4c0,0.1,0,0.1,0,0.2c0,0,0,0,0,0l0,0.9l2.8,2.8c-1.6,3.1-6.2,11.2-11.2,11.7
				c-0.4,0-0.9,0.1-1.4,0.1C512.5,518.5,512.1,518.4,511.6,518.4z"/>
		</g>
		<g>
			<g>
				<g>
					<path class="st6" d="M1036.4,299.6H910.8c-1.2,0-2.2-1-2.2-2.2l0,0c0-1.2,1-2.2,2.2-2.2h125.6c1.2,0,2.2,1,2.2,2.2l0,0
						C1038.6,298.6,1037.6,299.6,1036.4,299.6z"/>
				</g>
				<g>
					<path class="st6" d="M1078.2,398.8H873.3c-1.2,0-2.2-1-2.2-2.2v0c0-1.2,1-2.2,2.2-2.2h204.9c1.2,0,2.2,1,2.2,2.2v0
						C1080.4,397.8,1079.4,398.8,1078.2,398.8z"/>
				</g>
				<g>
					<path class="st6" d="M897.6,385.5L897.6,385.5c-1.2,0-2.2-1-2.2-2.2v-77.1c0-1.2,1-2.2,2.2-2.2l0,0c1.2,0,2.2,1,2.2,2.2v77.1
						C899.8,384.6,898.8,385.5,897.6,385.5z"/>
				</g>
				<g>
					<path class="st6" d="M1054,385.5L1054,385.5c-1.2,0-2.2-1-2.2-2.2v-77.1c0-1.2,1-2.2,2.2-2.2l0,0c1.2,0,2.2,1,2.2,2.2v77.1
						C1056.2,384.6,1055.2,385.5,1054,385.5z"/>
				</g>
			</g>
			<g>
				<g>
					<g>
						<g>
							<path class="st6" d="M1006.9,382.7c-1.3-5.5-4.1-10.5-8-14.4c0,0-3.3-3-3.4-2.9c0,0,0,0,0,0c-3.1-2.3-6.6-4.1-10.3-5.1
								c2.5-2.5,4.2-6.2,5.7-10.7c0.2-0.5,2.8-7.6,2.8-11.2c0-9.2-7.5-16.7-16.7-16.7c-9.2,0-16.7,7.5-16.7,16.7
								c0,3.5,2.6,10.6,2.8,11.2c1.5,4.5,3.2,8.2,5.7,10.7c-3.8,1.1-7.3,2.8-10.3,5.1c0,0,0,0,0-0.1l-3.3,3c0,0,0,0,0,0
								c-3.9,4-6.7,9-8,14.6c-0.3,1.3,0.7,2.6,2,2.6h0.1c1,0,1.9-0.7,2.1-1.8c1-4,2.9-7.7,5.5-10.8c1.1-1.3,2.3-2.5,3.6-3.5
								c4.6-3.7,10.4-5.9,16.7-5.9s12.1,2.2,16.7,5.9c1.3,1.1,2.5,2.2,3.6,3.5c2.6,3.1,4.5,6.8,5.5,10.9c0.2,1,1,1.7,2,1.7
								C1006.2,385.5,1007.3,384.2,1006.9,382.7z M976.9,359.1c-3.5,0-6.5-2-8-4.9c-0.6-1.2-3.2-11.2-3.7-13.4
								c-0.7-3.2-0.5-6.7,3.5-11c2.1-2.2,4.9-3.7,8-3.7c6.7-0.1,12.2,5.3,12.2,12c0,0.9-0.1,1.8-0.3,2.7c-0.5,2.3-3.1,12.2-3.7,13.4
								C983.3,357.1,980.4,359.1,976.9,359.1z"/>
						</g>
					</g>
					<path class="st6" d="M975.4,375.9l-2.4,6c-0.3,0.8-0.1,1.8,0.5,2.4l2.9,2.9c0.3,0.3,0.7,0.3,1,0l2.8-2.8
						c0.7-0.7,0.9-1.8,0.6-2.7l-2.4-6c-0.8-2.1-0.4-4.5,1.3-6.2l0.6-0.6c0.4-0.4,0.1-1.2-0.5-1.2h-5.5c-0.6,0-0.9,0.7-0.5,1.2
						l0.5,0.5C975.8,371.2,976.3,373.7,975.4,375.9z"/>
				</g>
			</g>
			<g>
				<path class="st6" d="M919.6,326.1c-4.9,0-8.8-4-8.8-8.8c0-4.9,4-8.8,8.8-8.8s8.8,4,8.8,8.8C928.4,322.1,924.5,326.1,919.6,326.1
					z M919.6,312.8c-2.4,0-4.4,2-4.4,4.4c0,2.4,2,4.4,4.4,4.4s4.4-2,4.4-4.4C924,314.8,922,312.8,919.6,312.8z"/>
			</g>
		</g>
		<g>
			<g>
				<path class="st6" d="M1359.8,325.3c-6.8,0-12.1-8.7-12.1-19.8c0-11.1,5.3-19.8,12.1-19.8s12.1,8.7,12.1,19.8
					C1372,316.6,1366.6,325.3,1359.8,325.3z M1359.8,290c-3.6,0-7.7,6.3-7.7,15.4c0,9.1,4.1,15.4,7.7,15.4c3.6,0,7.7-6.3,7.7-15.4
					C1367.6,296.4,1363.5,290,1359.8,290z"/>
			</g>
			<g>
				<path class="st6" d="M1335.6,338.5c-6.8,0-12.1-8.7-12.1-19.8s5.3-19.8,12.1-19.8c6.8,0,12.1,8.7,12.1,19.8
					S1342.4,338.5,1335.6,338.5z M1335.6,303.2c-3.6,0-7.7,6.3-7.7,15.4s4.1,15.4,7.7,15.4c3.6,0,7.7-6.3,7.7-15.4
					S1339.3,303.2,1335.6,303.2z"/>
			</g>
			<g>
				<path class="st6" d="M1319.1,349.5c-1.2,0.1-2.2-0.9-2.3-2.1l-1.8-36.1l-3.8,4.7c-0.8,1-2.2,1.1-3.1,0.3l0,0
					c-0.9-0.8-1.1-2.1-0.3-3.1l8.9-11.1c0.8-1,2.4-0.5,2.4,0.8l2.2,44.1C1321.2,348.4,1320.3,349.4,1319.1,349.5L1319.1,349.5z"/>
			</g>
			<g>
				<path class="st6" d="M1313.5,362.5c-1.4,0.9-3.2-0.1-3.2-1.8V352c0-1.4,1.1-2.5,2.5-2.5l0,0c1,0,1.9,0.8,1.9,1.9v5.2l69.8-43.1
					c1-0.6,2.2-0.3,2.8,0.7l0.1,0.1c0.7,1.1,0.3,2.4-0.7,3.1L1313.5,362.5z"/>
			</g>
		</g>
		<g>
			<g>
				<path class="st6" d="M1179,340.5c19.2,0,35.5,12.7,41,30.2c0.3,0.9,1.1,1.6,2.1,1.6h0c1.5,0,2.5-1.4,2.1-2.9
					c-6-19.3-24-33.3-45.2-33.3c-21.3,0-39.4,14.2-45.3,33.7c-0.4,1.2,0.6,2.5,1.9,2.5h0.1c1.1,0,2-0.7,2.4-1.8
					C1143.6,353.1,1159.8,340.5,1179,340.5z"/>
			</g>
			<path class="st6" d="M1210.4,284.3c-0.4-2.3-1.1-4.5-2-6.5l20.4-14c1.8-1.2,1.8-3.8,0-5l-46.2-31.7c-1.5-1-3.5-1-5,0l-45.6,31.4
				c-2,1.4-2,4.4,0,5.8l19.8,13.6c-0.9,2.1-1.6,4.3-2,6.5c-0.1,0.6-0.2,1.3-0.3,1.9c-0.1,1.2-0.2,2.4-0.2,3.6
				c0,5.2,1.3,10.1,3.5,14.4c0.8,1.5,1.8,3,2.8,4.4c0.1,0.1,0.2,0.3,0.3,0.4c0,0.3,0,0.5,0,0.8c0,13.4,10.9,24.2,24.2,24.2
				s24.2-10.9,24.2-24.2c0-0.3,0-0.5,0-0.8c0.1-0.1,0.2-0.3,0.3-0.4c1.1-1.4,2-2.8,2.8-4.4c2.3-4.3,3.6-9.1,3.6-14.3
				c0,0,0-0.1,0-0.1C1210.9,287.9,1210.7,286.1,1210.4,284.3z M1155.6,299.8c-0.9-2.1-1.4-4.3-1.7-6.6c1.7,1.1,3.4,2.1,5.2,2.9
				C1157.8,297.2,1156.6,298.4,1155.6,299.8z M1153.8,287.6c0.2-2.6,0.8-5,1.7-7.3l23.4,16.1c-3.6-0.1-7.2-0.7-10.5-1.6
				c-1.9-0.5-3.7-1.1-5.5-1.9C1159.6,291.5,1156.6,289.7,1153.8,287.6z M1199.9,309.7c0,1.4-0.2,2.8-0.4,4.1
				c-1.9,9-9.9,15.7-19.4,15.7s-17.5-6.7-19.4-15.7c-0.3-1.3-0.4-2.7-0.4-4.1c0-0.6-1.3-3.3-2.4-5.4c1.5-2.4,3.5-4.5,5.7-6.3
				c5.2,1.9,10.7,2.9,16.5,2.9s11.4-1,16.5-2.9c2.2,1.8,4.2,3.9,5.7,6.3C1201.2,306.3,1199.9,309.1,1199.9,309.7z M1204.5,299.8
				c-1-1.3-2.2-2.6-3.4-3.7c1.8-0.9,3.5-1.8,5.2-2.9C1206,295.4,1205.4,297.7,1204.5,299.8z M1197.3,292.9c-1.8,0.8-3.6,1.4-5.5,1.9
				c-3.4,0.9-6.9,1.5-10.5,1.6l23.5-16.1c0.9,2.3,1.5,4.8,1.7,7.4C1203.6,289.7,1200.5,291.5,1197.3,292.9z M1206.3,273.8l-3.6,2.5
				l-22.6,15.6l-22.6-15.5l-3.7-2.5l-18.3-12.6l44.6-30.6l44.6,30.6L1206.3,273.8z"/>
			<g>
				<path class="st6" d="M1221.9,314.1L1221.9,314.1c-1.2,0-2.2-1-2.2-2.2v-35.2c0-1.2,1-2.2,2.2-2.2l0,0c1.2,0,2.2,1,2.2,2.2v35.2
					C1224.1,313.1,1223.1,314.1,1221.9,314.1z"/>
			</g>
			<g>
				<path class="st6" d="M1223.2,322.8c-4.6,0.9-8.7-3.1-7.8-7.8c0.5-2.6,2.6-4.7,5.2-5.2c4.6-0.9,8.7,3.1,7.8,7.8
					C1227.9,320.1,1225.8,322.3,1223.2,322.8z M1221.9,314.1c-1.2,0-2.2,1-2.2,2.2s1,2.2,2.2,2.2c1.2,0,2.2-1,2.2-2.2
					S1223.1,314.1,1221.9,314.1z"/>
			</g>
		</g>
		<g>
			<g>
				<path class="st6" d="M428.3,310.3L428.3,310.3c-1.2,0-2.2-1-2.2-2.2v-59.5c0-1.2,1-2.2,2.2-2.2l0,0c1.2,0,2.2,1,2.2,2.2v59.5
					C430.5,309.3,429.5,310.3,428.3,310.3z"/>
			</g>
			<g>
				<path class="st6" d="M542.8,308.1L542.8,308.1c-1.2,0-2.2-1-2.2-2.2v-59.5c0-1.2,1-2.2,2.2-2.2l0,0c1.2,0,2.2,1,2.2,2.2v59.5
					C545,307.1,544,308.1,542.8,308.1z"/>
			</g>
			<g>
				<path class="st6" d="M439.3,316.9h90.3c1.2,0,2.2-1,2.2-2.2l0,0c0-1.2-1-2.2-2.2-2.2h-90.3c-1.2,0-2.2,1-2.2,2.2l0,0
					C437.1,315.9,438.1,316.9,439.3,316.9z"/>
				<path class="st6" d="M525.2,241.6v-0.7c0-17.6-14.3-31.9-31.9-31.9h-15.4c-17.6,0-31.9,14.3-31.9,31.9v0.7
					c0,0.2-0.2,0.4-0.4,0.4h-6.6c-1,0-1.8,0.8-1.8,1.8v0.9c0,1,0.8,1.8,1.8,1.8h7h4.4h4.4h4.4H512h4.4h4.4h4.4h4.8
					c1,0,1.8-0.8,1.8-1.8v-0.5c0-1.2-1-2.1-2.1-2.1h-4.1C525.4,242,525.2,241.8,525.2,241.6z M459.1,241.6L459.1,241.6
					c0-10.7,8.7-19.4,19.4-19.4h14.1c10.7,0,19.4,8.7,19.4,19.4v0c0,0.2-0.2,0.4-0.4,0.4h-52C459.3,242,459.1,241.8,459.1,241.6z
					 M516.4,241.6L516.4,241.6c0-13.2-10.6-23.8-23.8-23.8h-14.1c-13.1,0-23.8,10.6-23.8,23.8v0c0,0.2-0.2,0.4-0.4,0.4h-3.6
					c-0.2,0-0.4-0.2-0.4-0.4v-0.7c0-15.2,12.3-27.5,27.5-27.5h15.4c15.2,0,27.5,12.3,27.5,27.5v0.7c0,0.2-0.2,0.4-0.4,0.4h-3.6
					C516.6,242,516.4,241.8,516.4,241.6z"/>
				<path class="st6" d="M536.1,250.8c-0.8-0.8-2.2-0.8-3,0l-8.1,8.1l-5,5c-0.2,0.2-0.4,0.5-0.5,0.8c-0.4,1.2-0.8,2.3-1.3,3.5
					c-3.6,7.8-10.8,13.6-19.5,15.3l0-4.2c0-0.1,0-0.3,0-0.4c-0.1-1.5-0.4-3-1.1-4.3c-1.7-3.5-5.4-6-9.6-6H483c-4.2,0-7.8,2.5-9.6,6
					c-0.6,1.3-1,2.7-1.1,4.3c0,0.1,0,0.3,0,0.4l0,4.2c-7-1.3-13.1-5.4-17.1-11c-1.1-1.5-2-3.2-2.8-4.9c-0.2-0.4-0.4-0.7-0.6-1
					l-5.8-6.5l-8.1-9c-0.8-0.9-2.1-1-3-0.2l-0.2,0.2c-0.8,0.7-0.9,2-0.1,2.8l13.5,15c0.3,0.3,0.5,0.7,0.7,1
					c4.3,9.4,13.1,16.3,23.6,18l0,8.2c0,6.7,5.4,12.1,12.1,12.1h2.3c6.7,0,12.1-5.4,12.1-12.1l0-8.2c11.6-1.9,21.1-10.1,24.8-21
					c0.1-0.2,0.2-0.3,0.3-0.5c1.4-1.4,9.8-9.8,12.9-12.9c0.6-0.6,0.6-1.6,0-2.2L536.1,250.8z M494.3,296c0,4.2-3.4,7.7-7.7,7.7h-2.3
					c-4.2,0-7.7-3.4-7.7-7.7v-7.8c0.2,0,0.5,0,0.7,0h16.2c0.2,0,0.5,0,0.7,0V296z M494.3,279.4v4.5h-17.6v-4.5v-0.3
					c0-1.6,0.6-3,1.5-4.1c1.2-1.3,2.8-2.2,4.7-2.2h5.1c1.9,0,3.6,0.9,4.7,2.2c0.9,1.1,1.5,2.5,1.5,4.1V279.4z"/>
			</g>
		</g>
		<g>
			<g>
				<path class="st6" d="M382.4,231.9c-0.7,0-1.5,0-2.2-0.1c-9.4-0.6-18.1-4.8-24.4-11.9c-6.3-7.1-9.4-16.2-8.8-25.6
					c0.6-9.4,4.8-18.1,11.9-24.4c7.1-6.3,16.2-9.4,25.6-8.8c9.4,0.6,18.1,4.8,24.4,11.9c6.3,7.1,9.4,16.2,8.8,25.6
					c-0.6,9.4-4.8,18.1-11.9,24.4C399.2,228.7,391,231.9,382.4,231.9z M382.3,165.4c-16.2,0-29.9,12.7-30.9,29.1
					c-1,17.1,12,31.8,29.1,32.9c17,1,31.8-12,32.9-29.1c1-17.1-12-31.8-29.1-32.9C383.6,165.4,382.9,165.4,382.3,165.4z"/>
			</g>
			<path class="st6" d="M394.5,199.5c-0.4-1-1.1-1.8-2.1-2.6c-0.7-0.5-1.3-0.9-1.9-1.2c-0.6-0.3-2.3-0.8-4.9-1.6l-1.9-0.6l-2.6-0.8
				c-1.8-0.5-3-1.1-3.8-1.7c-0.8-0.6-1.1-1.5-1.1-2.5c0-1.3,0.6-2.4,1.7-3.3c1.2-0.9,2.8-1.4,5-1.4c1.8,0,3.3,0.3,4.4,0.9
				c1,0.6,1.5,1.4,1.6,2.3c0,0,0,0.1,0,0.1c0,0,0,0,0,0c0,0,0,0.1,0,0.1l0,0.1l0,0c0.3,1.3,1.5,2.3,2.9,2.1c1.2-0.1,2.1-1,2.3-2.1
				c0,0,0.3-3.2-2.3-5.6c-1.8-1.6-4.6-2.5-8.6-2.5c-4.1,0-7.2,1-9.3,2.9c-2.1,1.9-3.1,4.2-3.1,6.7c0,3.7,2.1,6.3,6.4,7.9l3.7,1.2
				l1.8,0.6l2.8,0.8c2.7,0.8,4.1,2.3,4.1,4.3c0,1.5-0.7,2.8-2.1,3.8c-1.4,1.1-3.2,1.6-5.5,1.6c-2.5,0-4.3-0.5-5.4-1.4
				c-1.1-0.9-1.6-2.1-1.6-3.5c0,0-0.1-0.3-0.1-0.3c0-1.5-1.2-2.6-2.6-2.6s-2.6,1.2-2.6,2.6c0,0.1,0,0.3,0,0.3c0,1.8,0.5,3.5,1.6,4.9
				c1,1.4,2.5,2.5,4.2,3.3c1.8,0.8,4,1.2,6.7,1.2c4.2,0,7.4-1,9.7-3.1c2.2-2.1,3.3-4.7,3.3-7.7C395.2,201.7,395,200.5,394.5,199.5z"
				/>
			<g>
				<path class="st6" d="M382.3,220.7L382.3,220.7c-1.2,0-2.2-1-2.2-2.2v-41.9c0-1.2,1-2.2,2.2-2.2l0,0c1.2,0,2.2,1,2.2,2.2v41.9
					C384.5,219.7,383.5,220.7,382.3,220.7z"/>
			</g>
		</g>
		<g>
			<g>
				<path class="st6" d="M342.3,305c-1.2-5.2-5.4-9.3-10.6-10.5c-5.1-1.2-10,0.4-13.3,3.6h0c-3.3-3.2-8.1-4.8-13.3-3.6
					c-5.2,1.2-9.4,5.4-10.6,10.6c-1.2,5.1,0.4,9.9,3.6,13.2l0,0c2,3.1,4.4,6.7,7.2,9.6c1.9,2,7.2,5.4,7.8,5.7
					c2.7,1.2,4.3,4.2,4.7,7.4c0.4,3.5-1.1,6.8-3.6,8.9c-0.5,0.4-3.7,1.7-4.7,2.2c-1.9,1-4.2,2.3-6.8,3.7c-18.2,10.2-49.8,30-67.2,41
					c-1.1,0.7-1.4,2.2-0.7,3.3l0,0.1c0.6,0.9,1.8,1.2,2.7,0.6c22.4-14.2,54.9-34.3,70.3-42.9c1.3-0.7,2.6-1.4,4-1.8
					c6.7-1.9,11.2-8.4,10.4-15.6c-0.6-5.6-4.5-9.8-9.3-11.9h0c-1.8-1.2-4.1-3.4-6.3-6c-1.9-2.2-6.8-9.4-7.3-10.9
					c-0.8-2.2-1-4.7,0.5-7.6c1.7-3.3,5-5.6,8.7-5.7c3.3,0,6.2,1.6,8,4c1,1.4,3,1.4,4,0c1.8-2.4,4.7-4,8-4c3.7,0,7,2.4,8.7,5.7
					c1.5,2.8,1.3,5.3,0.5,7.6c-0.5,1.5-5.6,8.9-7.4,10.9c-1.5,1.7-3,3.1-4,3.8c-0.7,0.6-1.2,1.4-1.2,2.3c0,1.5,1.7,2.5,3,1.7
					c3.4-2.2,8-7.1,10.7-12.2l0,0C341.7,314.7,343.5,310.1,342.3,305z"/>
			</g>
			<g>
				<path class="st6" d="M399.2,402.8l-73.3-44c-1-0.6-1.4-2-0.8-3l0,0c0.6-1,2-1.4,3-0.8l73.3,44c1,0.6,1.4,2,0.8,3l0,0
					C401.6,403.1,400.2,403.4,399.2,402.8z"/>
			</g>
			<g>
				<path class="st6" d="M252.4,476.9L252.4,476.9c-1.2,0-2.2-1-2.2-2.2v-74.9c0-1.2,1-2.2,2.2-2.2h0c1.2,0,2.2,1,2.2,2.2v74.9
					C254.6,475.9,253.6,476.9,252.4,476.9z"/>
			</g>
			<g>
				<path class="st6" d="M380.2,476.9L380.2,476.9c-1.2,0-2.2-1-2.2-2.2v-74.9c0-1.2,1-2.2,2.2-2.2l0,0c1.2,0,2.2,1,2.2,2.2v74.9
					C382.4,475.9,381.4,476.9,380.2,476.9z"/>
			</g>
			<g>
				<path class="st6" d="M300.1,458.4c-0.8-2.1-0.4-4.5,1.3-6.2l0.6-0.6c0.4-0.4,0.1-1.2-0.5-1.2h-5.5c-0.6,0-0.9,0.7-0.5,1.2
					l0.5,0.5c1.7,1.7,2.2,4.2,1.3,6.4l-2.4,6c-0.3,0.8-0.1,1.8,0.5,2.4l2.9,2.9c0.3,0.3,0.7,0.3,1,0l2.8-2.8
					c0.7-0.7,0.9-1.8,0.6-2.7L300.1,458.4z"/>
				<path class="st6" d="M352.2,459.8c1-1.4,1.5-3.1,1.5-5c0-3-1.5-5.6-3.8-7.2c-1.4-1-3.2-1.6-5.1-1.6c-4.9,0-8.8,4-8.8,8.8
					c0,0,0,0.1,0,0.1c-3.3,0.3-6.4,1.4-9.1,3.1c-1.5-3.5-3.6-6.7-6.3-9.4c0,0-3.3-3-3.4-2.9c0,0,0,0,0,0c-3.1-2.3-6.6-4.1-10.3-5.1
					c2.5-2.5,4.2-6.2,5.7-10.7c0.2-0.5,2.8-7.6,2.8-11.2c0-9.2-7.5-16.7-16.7-16.7s-16.7,7.5-16.7,16.7c0,3.5,2.6,10.6,2.8,11.2
					c1.5,4.5,3.2,8.2,5.7,10.7c-3.8,1.1-7.3,2.8-10.3,5.1c0,0,0,0,0-0.1l-3.3,3c0,0,0,0,0,0c-3.9,4-6.7,9-8,14.6
					c-0.3,1.3,0.7,2.6,2,2.6h0.1c1,0,1.9-0.7,2.1-1.8c1-4,2.9-7.7,5.5-10.8c1.1-1.3,2.3-2.5,3.6-3.5c4.6-3.7,10.4-5.9,16.7-5.9
					s12.1,2.2,16.7,5.9c1.3,1.1,2.5,2.2,3.6,3.5c1.9,2.2,3.3,4.7,4.4,7.5c-1.4,1.3-2.7,2.8-3.7,4.4l-0.2,0.3
					c-1.5,2.3-0.8,5.6,1.4,7.2l0.3,0.2c3.6,2.6,8,4.1,12.7,4.1c7.9,0,14.7-4.1,18.6-10.3c0.4-0.6,0.7-1.1,1-1.7
					c0.8-1.6,0.3-3.7-1.1-4.8L352.2,459.8z M298.7,439.5c-3.5,0-6.5-2-8-4.9c-0.6-1.2-3.2-11.2-3.7-13.4c-0.7-3.2-0.5-6.8,3.6-11.1
					c2-2.1,4.8-3.5,7.7-3.6c6.8-0.2,12.3,5.3,12.3,12c0,0.9-0.1,1.8-0.3,2.7c-0.5,2.3-3.1,12.2-3.7,13.4
					C305.1,437.5,302.1,439.5,298.7,439.5z M346.7,450.8c1,0.4,1.8,1.2,2.2,2.1c0.7,1.7,0.5,3.3-0.4,4.5c-0.8,1.1-2.1,1.9-3.6,1.9
					c-2.4,0-4.3-1.9-4.4-4.3c0,0,0-0.1,0-0.1C340.5,451.9,343.5,449.6,346.7,450.8z M333.9,472.5c-3.7,0-7.1-1.2-10-3.1
					c-0.7-0.5-0.8-1.4-0.3-2.1c0.5-0.7,1-1.3,1.5-1.9c1-1.1,2.1-2.1,3.4-3c2.6-1.7,5.6-2.8,8.9-3c1.5,2.6,4.3,4.4,7.6,4.4
					c1.4,0,2.7-0.4,3.9-0.9c0.2,0.2,0.4,0.3,0.6,0.5C346.4,468.8,340.6,472.5,333.9,472.5z"/>
			</g>
			<path class="st6" d="M362,454.6c-1.6-7.5-7.1-13.6-14.2-16.1c5.9-4.8,10.6-13.4,10.4-14.2c0-0.1-0.1-0.2-0.2-0.3
				c-0.7-0.5-3.7-2.4-4.3-2.7c-0.1-2.1-0.7-4.1-1.7-5.8c-0.8-1.3-1.7-2.5-2.9-3.5c-2.3-2-5.3-3.2-8.6-3.2c0,0,0,0,0,0s0,0,0,0
				c0,0,0,0,0,0c-3.3,0-6.3,1.2-8.6,3.2c-1.2,1-2.1,2.2-2.9,3.5c-1,1.7-1.6,3.7-1.7,5.8c-0.6,0.3-3.6,2.3-4.3,2.8
				c-0.1,0.1-0.2,0.1-0.2,0.2c-0.2,0.6,4.5,9.4,10.5,14.3c-4,1.4-7.4,3.9-9.9,7.1l-2.5,2.5c-1.2,1.2-0.8,3.1,0.6,3.8
				c0.8,0.4,1.9,0.2,2.5-0.5l2.8-3.2c0,0,0,0,0,0c3.2-4,8.1-6.6,13.6-6.6c0,0,0,0,0,0c0.4,0,0.7,0,1.1,0.1c0.4,0,0.8,0,1.2,0.1
				c0.6,0.1,1.3,0.2,1.9,0.4c0.1,0,0.2,0,0.3,0.1c4.2,1.1,7.7,3.7,10.1,7.2l0,0c1.4,2,2.4,4.4,2.9,6.9c0.6,3.3,0.2,6.4-0.9,9.2
				c-0.5,1.3,0.5,2.7,1.9,2.7h0.3c0.9,0,1.7-0.5,2-1.4C362.6,463,363,458.9,362,454.6z M341.8,437.3c-0.4,0-0.9,0.1-1.4,0.1
				c-0.4,0-0.9,0-1.3-0.1c-5.1-0.5-9.7-8.5-11.2-11.7l2.8-2.8l0-0.9c0,0,0,0,0,0c0-0.1,0-0.1,0-0.2c0.1-1.4,0.5-2.8,1.2-4
				c0.6-1,1.3-1.9,2.2-2.6c1.7-1.5,4-2.4,6.4-2.4c2.5,0,4.7,0.9,6.4,2.4c0.9,0.7,1.6,1.6,2.2,2.6c0.7,1.2,1.1,2.5,1.2,4
				c0,0.1,0,0.1,0,0.2c0,0,0,0,0,0l0,0.9l2.8,2.8C351.5,428.8,346.9,436.8,341.8,437.3z"/>
		</g>
		<g>
			<g>
				<path class="st6" d="M711.9,485.9L681,464.7c-0.8-0.5-1.8-0.5-2.6,0l-28.7,21.1c-1,0.7-2.4,0.5-3.1-0.5l0,0
					c-0.7-1-0.5-2.4,0.5-3.1l31.3-22.9c0.8-0.6,1.8-0.6,2.6,0l33.4,23c1,0.7,1.3,2.1,0.6,3.1l0,0
					C714.3,486.3,712.9,486.6,711.9,485.9z"/>
			</g>
			<g>
				<path class="st6" d="M642.2,560.2L642.2,560.2c-1.2,0-2.2-1-2.2-2.2v-66.1c0-1.2,1-2.2,2.2-2.2l0,0c1.2,0,2.2,1,2.2,2.2V558
					C644.4,559.2,643.5,560.2,642.2,560.2z"/>
			</g>
			<g>
				<path class="st6" d="M717.1,560.2L717.1,560.2c-1.2,0-2.2-1-2.2-2.2v-66.1c0-1.2,1-2.2,2.2-2.2l0,0c1.2,0,2.2,1,2.2,2.2V558
					C719.3,559.2,718.4,560.2,717.1,560.2z"/>
			</g>
			<g>
				<path class="st6" d="M743.6,560.2"/>
			</g>
			<g>
				<path class="st6" d="M743.6,516.1"/>
			</g>
			<path class="st6" d="M632.8,497.6L632.8,497.6c-0.9-0.8-2.3-0.7-3.1,0.2L613.5,516l0.2,0.2h-0.1V558c0,1.2,1,2.2,2.2,2.2h0
				c1.2,0,2.2-1,2.2-2.2v-39.6c0-0.5,0.2-1.1,0.6-1.5l14.4-16.2C633.8,499.8,633.7,498.4,632.8,497.6z"/>
			<path class="st6" d="M745.9,516l-16.2-18.2c-0.8-0.9-2.2-1-3.1-0.2l0,0c-0.9,0.8-1,2.2-0.2,3.1l14.4,16.2
				c0.4,0.4,0.6,0.9,0.6,1.5V558c0,1.2,1,2.2,2.2,2.2h0c1.2,0,2.2-1,2.2-2.2v-41.9h-0.1L745.9,516z"/>
			<path class="st6" d="M688.5,441.2h-6.6v-6.6c0-1.2-1-2.2-2.2-2.2l0,0c-1.2,0-2.2,1-2.2,2.2v6.6h-6.6c-1.2,0-2.2,1-2.2,2.2l0,0
				c0,1.2,1,2.2,2.2,2.2h6.6v15.4c0,1.2,1,2.2,2.2,2.2l0,0c1.2,0,2.2-1,2.2-2.2v-15.4h6.6c1.2,0,2.2-1,2.2-2.2l0,0
				C690.7,442.2,689.7,441.2,688.5,441.2z"/>
			<g>
				<path class="st6" d="M692.9,560.2L692.9,560.2c-1.2,0-2.2-1-2.2-2.2v-41.9c0-0.7-0.5-6.6-11-6.6s-11,6-11,6.6V558
					c0,1.2-1,2.2-2.2,2.2l0,0c-1.2,0-2.2-1-2.2-2.2v-41.9c0-0.1,0.2-11,15.4-11c15.2,0,15.4,10.9,15.4,11V558
					C695.1,559.2,694.1,560.2,692.9,560.2z"/>
			</g>
			<g>
				<path class="st6" d="M679.7,496.3c-4.9,0-8.8-4-8.8-8.8s4-8.8,8.8-8.8s8.8,4,8.8,8.8S684.6,496.3,679.7,496.3z M679.7,483.1
					c-2.4,0-4.4,2-4.4,4.4s2,4.4,4.4,4.4s4.4-2,4.4-4.4S682.1,483.1,679.7,483.1z"/>
			</g>
			<g>
				<path class="st6" d="M629,560.2L629,560.2c-1.2,0-2.2-1-2.2-2.2v-35.2c0-1.2,1-2.2,2.2-2.2l0,0c1.2,0,2.2,1,2.2,2.2V558
					C631.2,559.2,630.2,560.2,629,560.2z"/>
			</g>
			<g>
				<path class="st6" d="M730.4,560.2L730.4,560.2c-1.2,0-2.2-1-2.2-2.2v-35.2c0-1.2,1-2.2,2.2-2.2l0,0c1.2,0,2.2,1,2.2,2.2V558
					C732.6,559.2,731.6,560.2,730.4,560.2z"/>
			</g>
		</g>
		<g>
			<g>
				<path class="st6" d="M1000.6,752.1L1000.6,752.1c-1.2,0-2.2-1-2.2-2.2v-70.5c0-1.2,1-2.2,2.2-2.2l0,0c1.2,0,2.2,1,2.2,2.2v70.5
					C1002.8,751.1,1001.8,752.1,1000.6,752.1z"/>
			</g>
			<g>
				<path class="st6" d="M1117.3,752.1L1117.3,752.1c-1.2,0-2.2-1-2.2-2.2v-70.5c0-1.2,1-2.2,2.2-2.2l0,0c1.2,0,2.2,1,2.2,2.2v70.5
					C1119.6,751.1,1118.6,752.1,1117.3,752.1z"/>
			</g>
			<g>
				<path class="st6" d="M1097.5,679.4h-79.3c-1.2,0-2.2-1-2.2-2.2v0c0-1.2,1-2.2,2.2-2.2h79.3c1.2,0,2.2,1,2.2,2.2v0
					C1099.7,678.4,1098.7,679.4,1097.5,679.4z"/>
			</g>
			<g>
				<path class="st6" d="M1099.7,754.3h-81.5c-1.2,0-2.2-1-2.2-2.2l0,0c0-1.2,1-2.2,2.2-2.2h81.5c1.2,0,2.2,1,2.2,2.2l0,0
					C1101.9,753.3,1100.9,754.3,1099.7,754.3z"/>
			</g>
			<circle class="st6" cx="1089.8" cy="684.9" r="3.3"/>
			<circle class="st6" cx="1081" cy="684.9" r="3.3"/>
			<circle class="st6" cx="1098.6" cy="684.9" r="3.3"/>
			<g>
				<path class="st6" d="M1016,720.2c0-5.7,4-10.5,9.4-11.8c1-0.2,1.7-1.1,1.7-2.1v0c0-1.4-1.3-2.5-2.6-2.2
					c-7.3,1.7-12.8,8.3-12.8,16.1s5.5,14.4,12.8,16.1c1.4,0.3,2.6-0.8,2.6-2.2v0c0-1-0.7-1.9-1.7-2.1
					C1020,730.7,1016,725.9,1016,720.2z"/>
				<path class="st6" d="M1031.2,734.5L1031.2,734.5c0,1.2,1,2.2,2.2,2.2h45.2c1.2,0,2.2-1,2.2-2.2v0c0-1.2-1-2.2-2.2-2.2h-45.2
					C1032.2,732.3,1031.2,733.3,1031.2,734.5z"/>
				<path class="st6" d="M1031.2,705.8L1031.2,705.8c0,1.2,1,2.2,2.2,2.2h45.2c1.2,0,2.2-1,2.2-2.2v0c0-1.2-1-2.2-2.2-2.2h-45.2
					C1032.2,703.6,1031.2,704.6,1031.2,705.8z"/>
				<path class="st6" d="M1099.7,720.2c0-7.3-4.8-13.5-11.3-15.7c-1.4-0.5-2.8,0.7-2.8,2.1l0,0c0,0.9,0.6,1.8,1.5,2.1
					c4.8,1.6,8.3,6.2,8.3,11.5c0,5.3-3.5,9.9-8.3,11.5c-0.9,0.3-1.5,1.1-1.5,2.1l0,0c0,1.5,1.4,2.6,2.8,2.1
					C1095,733.6,1099.7,727.4,1099.7,720.2z"/>
			</g>
			<path class="st6" d="M1055.6,715l-2.1,10.6c-0.1,0.7,0.6,1.2,1.2,0.9l3.8-2.1l3.3,6.6c0.6,1.1,1.9,1.6,3,1l0.4-0.2
				c1.1-0.5,1.5-1.8,1-2.9l-3.3-6.7l3.3-1.4c0.6-0.3,0.7-1.2,0.1-1.5l-8.8-5.2C1056.8,713.7,1055.8,714.2,1055.6,715z"/>
		</g>
		<g>
			<g>
				<path class="st6" d="M602.2,333.9c-8.5,0-15.4-6.9-15.4-15.4c0-8.5,6.9-15.4,15.4-15.4c8.5,0,15.4,6.9,15.4,15.4
					C617.7,326.9,610.8,333.9,602.2,333.9z M602.2,307.4c-6.1,0-11,4.9-11,11c0,6.1,4.9,11,11,11c6.1,0,11-4.9,11-11
					C613.3,312.4,608.3,307.4,602.2,307.4z"/>
			</g>
			<g>
				<path class="st6" d="M592.2,362.1l-11.4-7.6c-1-0.7-1.3-2-0.6-3.1l0,0c0.7-1,2-1.3,3.1-0.6l9.8,6.5l14.9-16.7
					c0.8-0.9,2.2-1,3.1-0.2l0,0c0.9,0.8,1,2.2,0.2,3.1l-16.2,18.2C594.4,362.6,593.1,362.7,592.2,362.1z"/>
			</g>
			<g>
				<path class="st6" d="M666.1,391.1l-28.1-0.7c-1.1,0-2-0.8-2.1-1.9l-2.4-16.9c-0.2-1.2,0.7-2.3,1.9-2.5l0,0
					c1.2-0.2,2.3,0.7,2.5,1.9l2.1,15.1l26.3,0.6c1.2,0,2.2,1,2.1,2.3l0,0C668.3,390.2,667.3,391.1,666.1,391.1z"/>
			</g>
			<path class="st6" d="M613.9,332.8l-0.6,1c-0.6,1.1-0.3,2.4,0.8,3.1l12.9,7.8c0.5,0.3,0.9,0.9,1,1.5l2.5,12.7
				c0.1,0.6,0,1.3-0.4,1.8l-35,47.3c-0.7,1-0.5,2.4,0.5,3.1l0,0c1,0.7,2.4,0.5,3.1-0.5l36.1-48.9c0.4-0.5,0.5-1.1,0.4-1.8l-3.3-16.5
				c-0.1-0.6-0.5-1.1-1-1.5l-11-6.6c0,0,0,0,0,0l18.9-3.1l-1.1,12.6c-0.1,1.2,0.8,2.3,2,2.4h0c1.2,0.1,2.3-0.8,2.4-2l1.3-15.4
				c0.1-1.5-1.2-2.6-2.6-2.4l-25.4,4.5C614.8,331.9,614.2,332.3,613.9,332.8z"/>
		</g>
		<g>
			<g>
				<path class="st6" d="M475.6,732.2L475.6,732.2c-1.2,0-2.2-1-2.2-2.2v-90.3c0-1.2,1-2.2,2.2-2.2l0,0c1.2,0,2.2,1,2.2,2.2V730
					C477.8,731.2,476.8,732.2,475.6,732.2z"/>
			</g>
			<g>
				<path class="st6" d="M570.3,732.2L570.3,732.2c-1.2,0-2.2-1-2.2-2.2v-90.3c0-1.2,1-2.2,2.2-2.2l0,0c1.2,0,2.2,1,2.2,2.2V730
					C572.5,731.2,571.5,732.2,570.3,732.2z"/>
			</g>
			<g>
				<path class="st6" d="M557.1,630.9h-72.7c-1.2,0-2.2-1-2.2-2.2l0,0c0-1.2,1-2.2,2.2-2.2h72.7c1.2,0,2.2,1,2.2,2.2l0,0
					C559.3,629.9,558.3,630.9,557.1,630.9z"/>
			</g>
			<g>
				<path class="st6" d="M559.3,743.2h-72.7c-1.2,0-2.2-1-2.2-2.2l0,0c0-1.2,1-2.2,2.2-2.2h72.7c1.2,0,2.2,1,2.2,2.2l0,0
					C561.5,742.3,560.5,743.2,559.3,743.2z"/>
			</g>
			<path class="st6" d="M554.2,646.3c0.9-3,0.9-6.2-0.1-9.3c-0.3-0.9-0.6-1.7-1.1-2.5c-0.4-0.7-1.1-1.1-1.9-1.1h0
				c-1.7,0-2.7,1.8-1.9,3.2c0.3,0.5,0.5,1.1,0.7,1.7c0.9,2.6,0.7,5.4-0.4,7.9c-0.1,0.2-0.1,0.4-0.2,0.5c-0.1,0.2-0.2,0.4-0.3,0.6
				c-0.9,1.5,0.2,3.3,1.9,3.3h1.2h11.6c1.2,0,2.2-1,2.2-2.2l0,0c0-1.2-1-2.2-2.2-2.2H554.2z"/>
			<g>
				<path class="st6" d="M539.5,655.1h-19.8c-1.2,0-2.2-1-2.2-2.2l0,0c0-1.2,1-2.2,2.2-2.2h19.8c1.2,0,2.2,1,2.2,2.2l0,0
					C541.7,654.1,540.7,655.1,539.5,655.1z"/>
			</g>
			<g>
				<path class="st6" d="M554.9,666.1h-35.2c-1.2,0-2.2-1-2.2-2.2l0,0c0-1.2,1-2.2,2.2-2.2h35.2c1.2,0,2.2,1,2.2,2.2l0,0
					C557.1,665.2,556.1,666.1,554.9,666.1z"/>
			</g>
			<g>
				<path class="st6" d="M554.9,683.8H491c-1.2,0-2.2-1-2.2-2.2l0,0c0-1.2,1-2.2,2.2-2.2h63.9c1.2,0,2.2,1,2.2,2.2l0,0
					C557.1,682.8,556.1,683.8,554.9,683.8z"/>
			</g>
			<g>
				<path class="st6" d="M546.1,721.2h-46.3c-1.2,0-2.2-1-2.2-2.2l0,0c0-1.2,1-2.2,2.2-2.2h46.3c1.2,0,2.2,1,2.2,2.2l0,0
					C548.3,720.2,547.3,721.2,546.1,721.2z"/>
			</g>
			<g>
				<g>
					<path class="st6" d="M497.6,668.3c-8.5,0-15.4-6.9-15.4-15.4c0-8.5,6.9-15.4,15.4-15.4c8.5,0,15.4,6.9,15.4,15.4
						C513,661.4,506.1,668.3,497.6,668.3z M497.6,641.9c-6.1,0-11,4.9-11,11c0,6.1,4.9,11,11,11c6.1,0,11-4.9,11-11
						C508.6,646.8,503.7,641.9,497.6,641.9z"/>
				</g>
				<g>
					
						<ellipse transform="matrix(8.848851e-02 -0.9961 0.9961 8.848851e-02 -194.5915 1088.7935)" class="st6" cx="497.6" cy="650.7" rx="4.4" ry="4.4"/>
				</g>
				<g>
					<ellipse class="st6" cx="497.6" cy="661.7" rx="6.6" ry="4.4"/>
				</g>
			</g>
			<path class="st6" d="M622.8,663.2c-1.1-4.1-4.6-7.3-8.8-7.9c-4.9-0.8-9.4,1.7-11.5,5.6l-36.4,77l-0.2,0.4v16.8
				c0,3.3,3.8,5,6.3,2.9l13.1-11.2l36.3-75C623,669.4,623.7,666.4,622.8,663.2z M617.8,669.6c-0.9,1.4-1.9,4-1.9,4l-1.6,3.3
				l-32.5,67.1l-11.4,9.8v-14.5l29.9-63.5l4.6,2.3c1.1,0.5,2.4,0.1,3-1c0.5-1.1,0.1-2.4-1-3l-4.7-2.4l0.3-0.7l1.9-4.1
				c0,0,1.5-3,2-3.9c1.4-2.6,4.4-4.2,7.8-3.3c2,0.6,3.6,2.1,4.3,4.1C619.1,666,618.7,668,617.8,669.6z"/>
		</g>
		<g>
			<path class="st6" d="M647,427.3h-48.3c-10.2,0-19.7-5.5-24.8-14.3l-24.2-41.9c-5.1-8.8-5.1-19.8,0-28.6l24.2-41.9
				c5.1-8.8,14.6-14.3,24.8-14.3H647c10.2,0,19.7,5.5,24.8,14.3l24.2,41.9c5.1,8.8,5.1,19.8,0,28.6L671.8,413
				C666.7,421.8,657.2,427.3,647,427.3z M598.7,290.7c-8.6,0-16.7,4.6-21,12.1l-24.2,41.9c-4.3,7.5-4.3,16.8,0,24.2l24.2,41.9
				c4.3,7.5,12.4,12.1,21,12.1H647c8.6,0,16.7-4.6,21-12.1l24.2-41.9c4.3-7.5,4.3-16.8,0-24.2L668,302.8c-4.3-7.5-12.4-12.1-21-12.1
				H598.7z"/>
		</g>
		<g>
			<path class="st6" d="M568.1,500.7l-34.7-60.1c-5.1-8.8-14.6-14.3-24.8-14.3h-66.8l1.8-3.1c8.7-15.1,8.7-33.8,0-48.9l-42.4-73.4
				c-8.7-15.1-24.9-24.5-42.3-24.5h-84.7c-17.4,0-33.6,9.4-42.3,24.5l-42.4,73.4c-8.7,15.1-8.7,33.8,0,48.9l42.4,73.4
				c8.7,15.1,24.9,24.5,42.3,24.5h84.7c5.9,0,11.7-1.1,17.1-3.2c0.4,4,1.6,7.9,3.6,11.5l34.7,60.1c5.1,8.8,14.6,14.3,24.8,14.3h69.4
				c10.2,0,19.7-5.5,24.8-14.3l34.7-60.1C573.2,520.5,573.2,509.5,568.1,500.7z M375.9,513.1c-5.3,2.2-11.1,3.4-17.1,3.4h-84.7
				c-15.8,0-30.6-8.5-38.5-22.2L193.2,421c-7.9-13.7-7.9-30.8,0-44.5l42.4-73.4c7.9-13.7,22.7-22.2,38.5-22.2h84.7
				c15.8,0,30.6,8.5,38.5,22.2l42.4,73.4c7.9,13.7,7.9,30.8,0,44.5l-3.1,5.4l-2.8,4.9l-36.4,63c-4,7-9.9,12.7-16.8,16.5
				C379.1,511.7,377.5,512.5,375.9,513.1z M564.3,527.1l-34.7,60.1c-4.3,7.5-12.4,12.1-21,12.1h-69.4c-8.6,0-16.7-4.6-21-12.1
				l-34.7-60.1c-2-3.4-3-7.3-3.2-11.1c8.6-4.2,16-10.9,20.9-19.5l38-65.9h69.4c8.6,0,16.7,4.6,21,12.1l34.7,60.1
				C568.6,510.4,568.6,519.7,564.3,527.1z"/>
		</g>
		<g>
			<path class="st6" d="M743.7,419.4c-0.9,0-1.7-0.5-2-1.4l-17.9-43.7c-0.5-1.1-1.7-1.7-2.9-1.2l0,0c-1.1,0.5-1.7,1.7-1.2,2.9
				l19,46.4c0.3,0.8,1.1,1.4,2,1.4h368.6c0.1-1.5,0.1-2.9,0.2-4.4H743.7z"/>
		</g>
		<g>
			<path class="st6" d="M1228.8,656.1L1228.8,656.1c-1.1-0.5-2.4,0.1-2.9,1.2l-17.9,43.7c-0.3,0.8-1.1,1.4-2,1.4h-90.4v4.4h93.4
				c0.9,0,1.7-0.5,2-1.4l19-46.4C1230.5,657.9,1229.9,656.6,1228.8,656.1z"/>
		</g>
		<g>
			<path class="st6" d="M1031.2,821.2H601.6c-0.9,0-1.7-0.5-2-1.4l-19-46.4c-0.5-1.1,0.1-2.4,1.2-2.9l0,0c1.1-0.5,2.4,0.1,2.9,1.2
				l17.9,43.7c0.3,0.8,1.1,1.4,2,1.4h426.6c1.2,0,2.2,1,2.2,2.2l0,0C1033.4,820.2,1032.4,821.2,1031.2,821.2z"/>
		</g>
		<g>
			<g>
				<g>
					<g>
						<path class="st6" d="M1271.9,611.5l-5.5-9.1c-0.6-1-0.3-2.4,0.8-3l0,0c1-0.6,2.4-0.3,3,0.8l3.7,6.1l10.1-15.1
							c0.7-1,2-1.3,3.1-0.6l0,0c1,0.7,1.3,2,0.6,3.1l-12,18C1274.7,613,1272.7,612.9,1271.9,611.5z"/>
					</g>
				</g>
				<path class="st6" d="M1321.7,578c-6.3-5.7-14.6-9.2-23.7-9.2c-8.3,0-16,2.9-22,7.8c-6-4.9-13.7-7.8-22-7.8
					c-9.1,0-17.4,3.5-23.7,9.2c-1.5,1.3-0.5,3.8,1.4,3.8h0.2c0.5,0,1-0.2,1.4-0.6c5.5-4.9,12.7-8,20.6-8c7.6,0,14.6,2.8,20,7.4
					c0.4,0.6,3.8,0.6,4.1,0c5.4-4.6,12.3-7.4,20-7.4c7.9,0,15.2,3,20.6,8c0.4,0.4,0.9,0.6,1.4,0.6h0.2
					C1322.2,581.7,1323.2,579.3,1321.7,578z"/>
				<path class="st6" d="M1321.7,630.8c-6.3-5.7-14.6-9.2-23.7-9.2c-8.3,0-16,2.9-22,7.8c-6-4.9-13.7-7.8-22-7.8
					c-9.1,0-17.4,3.5-23.7,9.2c-1.5,1.3-0.5,3.8,1.4,3.8h0.2c0.5,0,1-0.2,1.4-0.6c5.5-4.9,12.7-8,20.6-8c7.6,0,14.6,2.8,20,7.4
					c0.4,0.6,3.8,0.6,4.1,0c5.4-4.6,12.3-7.4,20-7.4c7.9,0,15.2,3,20.6,8c0.4,0.4,0.9,0.6,1.4,0.6h0.2
					C1322.2,634.6,1323.2,632.2,1321.7,630.8z"/>
				<g>
					<path class="st6" d="M1225.3,628L1225.3,628c-1.2,0-2.2-1-2.2-2.2v-41.9c0-1.2,1-2.2,2.2-2.2l0,0c1.2,0,2.2,1,2.2,2.2v41.9
						C1227.5,627,1226.5,628,1225.3,628z"/>
				</g>
				<g>
					<path class="st6" d="M1326.6,628L1326.6,628c-1.2,0-2.2-1-2.2-2.2v-41.9c0-1.2,1-2.2,2.2-2.2l0,0c1.2,0,2.2,1,2.2,2.2v41.9
						C1328.8,627,1327.9,628,1326.6,628z"/>
				</g>
			</g>
		</g>
		<g>
			<g>
				<g>
					<path class="st6" d="M1088.2,576.2L1088.2,576.2c-1.2,0-2.2-1-2.2-2.2v-41.9c0-1.2,1-2.2,2.2-2.2l0,0c1.2,0,2.2,1,2.2,2.2V574
						C1090.4,575.2,1089.4,576.2,1088.2,576.2z"/>
				</g>
			</g>
			<g>
				<g>
					<g>
						<path class="st6" d="M1169.7,574L1169.7,574c-1.2,0-2.2-1-2.2-2.2V530c0-1.2,1-2.2,2.2-2.2l0,0c1.2,0,2.2,1,2.2,2.2v41.9
							C1171.9,573,1170.9,574,1169.7,574z"/>
					</g>
				</g>
				<g>
					<path class="st6" d="M1156.5,532.2h-55.1c-1.2,0-2.2-1-2.2-2.2l0,0c0-1.2,1-2.2,2.2-2.2h55.1c1.2,0,2.2,1,2.2,2.2l0,0
						C1158.7,531.2,1157.7,532.2,1156.5,532.2z"/>
				</g>
				<g>
					<g>
						<path class="st6" d="M1169.7,587.2h-81.5c-1.2,0-2.2-1-2.2-2.2l0,0c0-1.2,1-2.2,2.2-2.2h81.5c1.2,0,2.2,1,2.2,2.2l0,0
							C1171.9,586.2,1170.9,587.2,1169.7,587.2z"/>
					</g>
				</g>
				<g>
					<g>
						<path class="st6" d="M1128.6,571.2l-29.2-27.1c-0.9-0.8-0.9-2.2-0.1-3.1l0,0c0.8-0.9,2.2-0.9,3.1-0.1l27.7,25.7c0,0,0,0,0,0
							l27.7-25.7c0.9-0.8,2.3-0.8,3.1,0.1l0,0c0.8,0.9,0.8,2.3-0.1,3.1l-29.2,27.1C1130.7,572,1129.4,572,1128.6,571.2z"/>
					</g>
				</g>
				<g>
					<path class="st6" d="M1134.2,514.8v-3.7c0,0,0,0,0,0h-23.9c-2.2,0-3.9-1.8-3.9-3.9v-16.4c0-2,1.6-3.5,3.5-3.5h24.3c0,0,0,0,0,0
						v-2.9c0-2.9,3.6-4.3,5.6-2.1l16.5,18.3c0.4,0.4,0.3,1.1-0.1,1.5l-17,15.1C1137.2,518.7,1134.2,517.4,1134.2,514.8z
						 M1111.3,507.1h26.9c0,0,0,0,0,0v5.5c0,0,0,0,0,0l13.1-11.6c0,0,0,0,0,0l-13.1-14.6v4.8c0,0,0,0,0,0h-26.9c-0.6,0-1,0.5-1,1
						V506C1110.3,506.6,1110.7,507.1,1111.3,507.1z"/>
				</g>
			</g>
		</g>
		<g>
			<g>
				<path class="st6" d="M1195.9,460.8c0-8.8-4.8-16.6-11.8-20.8c-1.5-0.9-3.4,0.1-3.4,1.9l0,0c0,0.8,0.4,1.5,1.1,1.9
					c5.8,3.5,9.7,9.8,9.7,17c0,7.2-3.9,13.6-9.7,17c-0.7,0.4-1.1,1.1-1.1,1.9v0c0,1.7,1.9,2.8,3.4,1.9
					C1191.2,477.3,1195.9,469.6,1195.9,460.8z"/>
			</g>
			<path class="st6" d="M1328.6,437c-5.4-1.1-10.5-0.3-14.9,1.7h-118c-1.1,0-1.9,0.9-1.9,1.9v0.6c0,1,0.8,1.9,1.9,1.9h111.5h7.5
				c1.5-0.7,3-1.3,4.6-1.7c3.9-0.9,8.3-0.7,12.9,1.5c6.1,3,10.5,8.9,11.2,15.7c1.2,11.9-8.1,21.9-19.7,21.9c-3.3,0-6.3-0.8-9-2.2
				h-7.5H1196c-1.2,0-2.2,1-2.2,2.2v0.2c0,1.1,0.9,1.9,1.9,1.9h118c3.1,1.4,6.5,2.2,10,2.2c14.2,0,25.6-12.3,24.1-26.8
				C1346.7,447.8,1338.8,439.1,1328.6,437z"/>
			<g>
				<path class="st6" d="M1236,409.9c0-7.9-3.8-14.9-9.7-19.3c-1.5-1.1-3.6-0.1-3.6,1.7l0,0c0,0.7,0.3,1.3,0.9,1.8
					c4.8,3.6,7.9,9.4,7.9,15.8c0,6.5-3.1,12.2-7.9,15.8c-0.6,0.4-0.9,1.1-0.9,1.8l0,0c0,1.8,2.1,2.8,3.6,1.7
					C1232.2,424.8,1236,417.8,1236,409.9z"/>
			</g>
			<g>
				<path class="st6" d="M1315.4,383.8c-6.7-1.1-13,0.6-18,4.1h-61.1c-1.2,0-2.1,0.9-2.1,2.1v0.1c0,1.2,1,2.2,2.2,2.2h56.2h6.2
					c3.4-2.8,7.7-4.4,12.4-4.4c4.7,0,9,1.7,12.4,4.4c4.5,3.6,7.4,9.2,7.4,15.4c0,7.7-4.4,14.3-10.8,17.6c-2.7,1.4-5.8,2.2-9,2.2
					c-3.3,0-6.3-0.8-9-2.2h-7.5h-58.2c-1.3,0-2.3,1-2.3,2.3v0.1c0,1.1,0.9,2,2,2h65c3.1,1.4,6.5,2.2,10,2.2s7-0.8,10-2.2
					c1.1-0.5,2.2-1.1,3.2-1.7c7.4-4.8,12-13.5,10.8-23.2C1334.2,394.2,1325.9,385.5,1315.4,383.8z"/>
			</g>
			<g>
				<path class="st6" d="M1266.9,405.5h-33c-1.2,0-2.2-1-2.2-2.2l0,0c0-1.2,1-2.2,2.2-2.2h33c1.2,0,2.2,1,2.2,2.2l0,0
					C1269.1,404.5,1268.1,405.5,1266.9,405.5z"/>
			</g>
			<g>
				<path class="st6" d="M1266.9,416.5H1235c-1.2,0-2.2-1-2.2-2.2l0,0c0-1.2,1-2.2,2.2-2.2h31.9c1.2,0,2.2,1,2.2,2.2l0,0
					C1269.1,415.5,1268.1,416.5,1266.9,416.5z"/>
			</g>
			<g>
				<path class="st6" d="M1226.8,458.6h-33c-1.2,0-2.2-1-2.2-2.2v0c0-1.2,1-2.2,2.2-2.2h33c1.2,0,2.2,1,2.2,2.2v0
					C1229,457.6,1228,458.6,1226.8,458.6z"/>
			</g>
			<g>
				<path class="st6" d="M1226.8,469.6h-31.9c-1.2,0-2.2-1-2.2-2.2l0,0c0-1.2,1-2.2,2.2-2.2h31.9c1.2,0,2.2,1,2.2,2.2l0,0
					C1229,468.6,1228,469.6,1226.8,469.6z"/>
			</g>
		</g>
		<g>
			<path class="st6" d="M1383.4,411.5l-21.1-36.6c-0.4-0.7-1.2-1.1-2-1.1h-0.1c-1.6,0-2.7,1.8-1.8,3.2l21.2,36.7
				c5.8,10,5.8,22.5,0,32.6l-42.3,73.2c-5.8,10-16.6,16.3-28.2,16.3h-82.5h-2c-0.8,0-1.6,0-2.4-0.1c-10.7-0.8-20.4-6.8-25.8-16.2
				l-36.4-63l-2.6-4.4l-3.3-5.7c-5.8-10-5.8-22.5,0-32.6l21.1-36.5c0-0.1,0.1-0.1,0.2-0.1h27.3c14.2,0,27.5-7.6,34.6-20l18.9-32.8
				c0-0.1,0.1-0.1,0.2-0.1h28.4c1.1,0,2.1-0.9,2.1-2.1c0-1.3-1-2.3-2.3-2.3h-25.4c-0.2,0-0.3-0.2-0.2-0.3l2.3-4
				c7.1-12.3,7.1-27.6,0-39.9l-24-41.6c-7.1-12.3-20.3-20-34.6-20h-47.9c-14.3,0-27.6,7.6-34.7,20.1l-23.9,41.4
				c-7.2,12.4-7.2,27.7,0,40.1l23.9,41.4c7.2,12.4,20.4,20.1,34.7,20.1h15c0.2,0,0.3,0.2,0.2,0.3l-19.7,34.1
				c-6.6,11.4-6.6,25.6,0,37l2,3.5h-44.5c-15.1,0-29.1,8.1-36.6,21.1l-25.5,44.2c-7.5,13-7.5,29.2,0,42.3l25.5,44.2
				c7.5,13,21.6,21.1,36.6,21.1h51c15.1,0,29.1-8.1,36.6-21.1l25.5-44.2c3.5-6,5.3-12.7,5.6-19.4h82.5c13.2,0,25.4-7.1,32-18.5
				l42.3-73.2C1390,437,1390,422.9,1383.4,411.5z M1154.7,372.7c-12.6,0-24.4-6.8-30.7-17.7l-24-41.5c-6.4-11.1-6.4-24.7,0-35.7
				l24-41.5c6.3-10.9,18.1-17.7,30.7-17.7h47.9c12.8,0,24.5,6.8,30.9,17.9l24,41.5c6.3,10.9,6.3,24.5,0,35.5l-3.7,6.5l-2.5,4.4
				l-17.7,30.6c-6.4,11.1-18.2,17.9-30.9,17.9h-24.8h-5.1H1154.7z M1217.3,557.4l-25.5,44.2c-6.7,11.7-19.3,18.9-32.8,18.9h-51
				c-13.5,0-26-7.3-32.8-18.9l-25.5-44.2c-6.7-11.7-6.7-26.2,0-37.9l25.5-44.2c6.7-11.7,19.3-18.9,32.8-18.9h47l37.7,65.3
				c6.2,10.7,17.4,17.6,29.7,18.4C1222,546.1,1220.4,552,1217.3,557.4z"/>
		</g>
	</g>
</g>
<g id="Capa_1">
</g>
</svg>
