<?xml version="1.0" encoding="utf-8"?>
<!-- Generator: Adobe Illustrator 21.1.0, SVG Export Plug-In . SVG Version: 6.00 Build 0)  -->
<svg version="1.1" id="Capa_1" xmlns="http://www.w3.org/2000/svg" xmlns:xlink="http://www.w3.org/1999/xlink" x="0px" y="0px"
	 viewBox="0 0 2238.2 1377.1" style="enable-background:new 0 0 2238.2 1377.1;" xml:space="preserve">
<style type="text/css">
	.st0{opacity:0.52;fill:url(#SVGID_1_);}
	.st1{opacity:0.14;}
	.st2{fill:#007996;}
</style>
<linearGradient id="SVGID_1_" gradientUnits="userSpaceOnUse" x1="4081.2461" y1="6784.4502" x2="2590.9014" y2="6862.5562" gradientTransform="matrix(3.267949e-07 -1 1 3.267949e-07 -5704.3921 4024.6404)">
	<stop  offset="1.998197e-02" style="stop-color:#FFFFFF"/>
	<stop  offset="0.1225" style="stop-color:#EEF8FC"/>
	<stop  offset="0.3266" style="stop-color:#C1E7F4"/>
	<stop  offset="0.6108" style="stop-color:#78CCE8"/>
	<stop  offset="0.6159" style="stop-color:#77CBE8"/>
	<stop  offset="0.759" style="stop-color:#009CBB"/>
	<stop  offset="0.8651" style="stop-color:#0082A0"/>
	<stop  offset="0.9202" style="stop-color:#007996"/>
</linearGradient>
<polygon class="st0" points="2238.2,0 2238.2,1377.1 0,1377.1 0,0 "/>
<g class="st1">
	<g>
		<g>
			<path class="st2" d="M974.7,312.4c-30.1,0-54.6-24.5-54.6-54.6s24.5-54.6,54.6-54.6c30.1,0,54.6,24.5,54.6,54.6
				S1004.8,312.4,974.7,312.4z M974.7,211c-25.8,0-46.8,21-46.8,46.8s21,46.8,46.8,46.8c25.8,0,46.8-21,46.8-46.8
				S1000.5,211,974.7,211z"/>
		</g>
		<g>
			<path class="st2" d="M970.8,265.6v-31.2c0-2.2,1.7-3.9,3.9-3.9l0,0c2.2,0,3.9,1.7,3.9,3.9v23.9l14.1-9.4c1.8-1.2,4.2-0.7,5.4,1.1
				v0c1.2,1.8,0.7,4.2-1.1,5.4l-20.1,13.4C974.3,270.6,970.8,268.7,970.8,265.6z"/>
		</g>
	</g>
	<g>
		<g>
			<path class="st2" d="M1165.8,326.8h-9.1V319c0-2.2-1.7-3.9-3.9-3.9c-2.2,0-3.9,1.7-3.9,3.9v7.8h-66.3V319c0-2.2-1.7-3.9-3.9-3.9
				s-3.9,1.7-3.9,3.9v7.8h-13c-13.7,0-24.9,11.2-24.9,24.9v71.1c0,13.7,11.2,24.9,24.9,24.9h103.9c13.7,0,24.9-11.2,24.9-24.9v-71.1
				C1190.7,338,1179.5,326.8,1165.8,326.8z M1182.9,422.8c0,9.4-7.7,17.1-17.1,17.1h-103.9c-9.4,0-17.1-7.7-17.1-17.1v-71.1
				c0-9.4,7.7-17.1,17.1-17.1h13v3.9c0,2.2,1.7,3.9,3.9,3.9s3.9-1.7,3.9-3.9v-3.9h66.3v3.9c0,2.2,1.7,3.9,3.9,3.9
				c2.2,0,3.9-1.7,3.9-3.9v-3.9h9.1c9.4,0,17.1,7.7,17.1,17.1V422.8z"/>
			<path class="st2" d="M1172.3,373.6c2.2,0,3.9-1.7,3.9-3.9c0-2.2-1.7-3.9-3.9-3.9h-117c-2.2,0-3.9,1.7-3.9,3.9
				c0,2.2,1.7,3.9,3.9,3.9h19.5c0,0.1,0,0.2,0,0.3v27h-19.5c-2.2,0-3.9,1.7-3.9,3.9c0,2.2,1.7,3.9,3.9,3.9h19.5v19.2
				c0,2.3,1.7,4.2,3.9,4.2s3.9-1.9,3.9-4.2v-19.2h27.3v19.2c0,2.3,1.7,4.2,3.9,4.2s3.9-1.9,3.9-4.2v-19.2h27.3v19.5
				c0,2.2,1.7,3.9,3.9,3.9s3.9-1.7,3.9-3.9v-19.5h19.5c2.2,0,3.9-1.7,3.9-3.9c0-2.2-1.7-3.9-3.9-3.9h-19.5v-27.3H1172.3z
				 M1082.6,400.9v-27c0-0.1,0-0.2,0-0.3h27.4c0,0.1,0,0.2,0,0.3v27H1082.6z M1145,400.9h-27.3v-27c0-0.1,0-0.2,0-0.3h27.3V400.9z"
				/>
		</g>
	</g>
	<g>
		<path class="st2" d="M681.9,780.4c-2.8-13.2-12.6-24.1-25.2-28.4c10.5-8.5,18.8-23.8,18.4-25.2c-0.1-0.2-0.2-0.4-0.4-0.5
			c-1.3-0.8-6.6-4.2-7.6-4.8c-0.2-3.7-1.2-7.2-2.9-10.3c-1.3-2.4-3.1-4.5-5.1-6.3c-4.1-3.6-9.5-5.7-15.3-5.7c0,0-0.1,0-0.1,0
			c-0.1,0-0.1,0-0.1,0c0,0,0,0,0,0c-5.8,0-11.1,2.2-15.1,5.7c-2,1.8-3.8,3.9-5.1,6.3c-1.7,3.1-2.7,6.6-2.9,10.3
			c-1,0.6-6.4,4.1-7.6,4.9c-0.2,0.1-0.3,0.2-0.3,0.4c-0.4,1.1,8,16.7,18.6,25.3c-8.7,3-16,9-20.6,16.8c-5.4-4.1-11.6-7.2-18.3-9.1
			c4.4-4.3,7.4-10.9,10.1-18.9c0.3-1,4.9-13.5,4.9-19.8c0-16.3-13.3-29.6-29.6-29.6c-16.3,0-29.6,13.3-29.6,29.6
			c0,6.2,4.6,18.8,4.9,19.8c2.7,8,5.7,14.6,10.1,18.9c-6.7,1.9-12.9,5-18.3,9.1c-4.7-7.8-12.1-13.8-20.8-16.8
			c2.9-3.4,5-8.1,6.9-13.8c0.3-0.8,3.9-10.7,3.9-15.6c0-12.9-10.5-23.4-23.4-23.4c-12.9,0-23.4,10.5-23.4,23.4
			c0,4.9,3.6,14.8,3.9,15.6c1.9,5.7,4,10.4,6.9,13.8c-13,4.4-23,15.7-25.7,29.3c-1.4,7-0.8,13.8,1.3,19.9c0.7,2,2.4,3.3,4.5,3.3h0.1
			c2.4,0,4-2.4,3.1-4.7c-1.9-4.9-2.5-10.4-1.5-16.2c2.2-13.1,12.9-23.6,26-25.5c13.8-2,26.2,5,32.2,16c-6.9,7-11.9,15.9-14.2,25.9
			c-0.5,2.3,1.2,4.6,3.6,4.6h0.2c1.8,0,3.4-1.3,3.8-3.1c1.7-7.2,5.1-13.7,9.7-19.1c1.9-2.3,4-4.3,6.3-6.2
			c8.1-6.6,18.3-10.5,29.5-10.5c11.2,0,21.5,4,29.5,10.5c2.3,1.9,4.4,4,6.3,6.2c4.6,5.5,8,12.1,9.7,19.3c0.4,1.7,1.8,2.9,3.6,2.9
			c2.6,0,4.5-2.4,3.9-5c-2.3-9.8-7.3-18.6-14.1-25.5c5.3-9.7,15.5-16.2,27.3-16.3c0,0,0,0,0,0c0.6,0,1.3,0.1,1.9,0.1
			c0.7,0,1.4,0.1,2.2,0.1c1.1,0.2,2.3,0.4,3.4,0.6c0.2,0,0.3,0.1,0.5,0.1c7.4,1.9,13.7,6.5,17.9,12.7l0.1-0.1
			c2.5,3.6,4.3,7.8,5.1,12.2c1,5.8,0.3,11.3-1.5,16.2c-0.9,2.3,1,4.7,3.4,4.7h0.5c1.6,0,3.1-0.9,3.6-2.4
			C682.8,795.4,683.5,788.1,681.9,780.4z M511.2,749.8c-4.5,0-8.4-2.6-10.3-6.3c-0.8-1.6-4.1-14.5-4.8-17.5
			c-0.3-1.1-0.4-2.3-0.4-3.5c0-8.5,6.9-15.5,15.4-15.6c4.2-0.1,8.1,1.9,11,5c5.1,5.5,5.4,10,4.4,14.1c-0.7,3-4,15.8-4.8,17.5
			C519.6,747.2,515.7,749.8,511.2,749.8z M577.5,757.6c-6.1,0-11.4-3.5-14.1-8.6c-1.1-2.2-5.6-19.7-6.6-23.8
			c-1.3-5.6-0.9-11.9,6.3-19.5c3.7-3.9,8.7-6.5,14.1-6.6c11.9-0.2,21.6,9.4,21.6,21.3c0,1.6-0.2,3.2-0.6,4.8
			c-0.9,4.1-5.4,21.6-6.6,23.8C588.9,754.1,583.6,757.6,577.5,757.6z M641.3,749.9c-9-0.8-17.1-15.1-19.9-20.6l4.9-4.9l0-1.6
			c0,0,0,0,0,0c0-0.1,0-0.2,0-0.3c0.2-2.5,0.9-4.9,2.1-7c1-1.8,2.3-3.4,3.8-4.7c3-2.6,7-4.3,11.4-4.3c4.3,0,8.3,1.6,11.4,4.3
			c1.5,1.3,2.8,2.9,3.8,4.7c1.2,2.1,1.9,4.5,2.1,7c0,0.1,0,0.2,0,0.3c0,0,0,0,0,0l0,1.6l4.9,4.9c-2.8,5.5-10.9,19.8-19.9,20.6
			c-0.8,0.1-1.6,0.1-2.4,0.1C642.9,750,642.1,749.9,641.3,749.9z"/>
	</g>
	<g>
		<g>
			<g>
				<path class="st2" d="M1570.1,362.7h-222.2c-2.2,0-3.9-1.7-3.9-3.9l0,0c0-2.2,1.7-3.9,3.9-3.9h222.2c2.2,0,3.9,1.7,3.9,3.9l0,0
					C1574,360.9,1572.2,362.7,1570.1,362.7z"/>
			</g>
			<g>
				<path class="st2" d="M1644.1,538.1h-362.6c-2.2,0-3.9-1.7-3.9-3.9l0,0c0-2.2,1.7-3.9,3.9-3.9h362.6c2.2,0,3.9,1.7,3.9,3.9l0,0
					C1648,536.4,1646.3,538.1,1644.1,538.1z"/>
			</g>
			<g>
				<path class="st2" d="M1324.4,514.7L1324.4,514.7c-2.2,0-3.9-1.7-3.9-3.9V374.4c0-2.2,1.7-3.9,3.9-3.9l0,0c2.2,0,3.9,1.7,3.9,3.9
					v136.5C1328.3,513,1326.6,514.7,1324.4,514.7z"/>
			</g>
			<g>
				<path class="st2" d="M1601.2,514.7L1601.2,514.7c-2.2,0-3.9-1.7-3.9-3.9V374.4c0-2.2,1.7-3.9,3.9-3.9l0,0c2.2,0,3.9,1.7,3.9,3.9
					v136.5C1605.1,513,1603.4,514.7,1601.2,514.7z"/>
			</g>
		</g>
		<g>
			<g>
				<g>
					<g>
						<path class="st2" d="M1518,509.8c-2.3-9.8-7.3-18.6-14.1-25.5c0-0.1-5.9-5.3-5.9-5.2c0,0,0,0,0,0c-5.4-4.1-11.6-7.2-18.3-9.1
							c4.4-4.3,7.4-10.9,10.1-18.9c0.3-1,4.9-13.5,4.9-19.8c0-16.3-13.3-29.6-29.6-29.6c-16.3,0-29.6,13.3-29.6,29.6
							c0,6.2,4.6,18.8,4.9,19.8c2.7,8,5.7,14.6,10.1,18.9c-6.7,1.9-12.9,5-18.3,9.1c0,0,0-0.1-0.1-0.1l-5.9,5.3c0,0,0,0,0,0
							c-6.9,7-11.9,15.9-14.2,25.9c-0.5,2.3,1.2,4.6,3.6,4.6h0.2c1.8,0,3.4-1.3,3.8-3.1c1.7-7.2,5.1-13.7,9.7-19.1
							c1.9-2.3,4-4.3,6.3-6.2c8.1-6.6,18.3-10.5,29.5-10.5c11.2,0,21.5,4,29.5,10.5c2.3,1.9,4.4,4,6.3,6.2c4.6,5.5,8,12.1,9.7,19.3
							c0.4,1.7,1.8,2.9,3.6,2.9C1516.6,514.7,1518.6,512.3,1518,509.8z M1464.8,468c-6.1,0-11.4-3.5-14.1-8.6
							c-1.1-2.2-5.6-19.7-6.6-23.8c-1.3-5.6-0.9-11.9,6.3-19.5c3.7-3.9,8.7-6.5,14.1-6.6c11.9-0.2,21.6,9.4,21.6,21.3
							c0,1.6-0.2,3.2-0.6,4.8c-0.9,4.1-5.4,21.6-6.6,23.8C1476.2,464.4,1470.9,468,1464.8,468z"/>
					</g>
				</g>
				<path class="st2" d="M1462.2,497.7l-4.3,10.7c-0.6,1.5-0.2,3.1,0.9,4.3l5.1,5.1c0.5,0.5,1.3,0.5,1.7,0l4.9-4.9
					c1.2-1.2,1.6-3.1,1-4.8l-4.2-10.6c-1.5-3.8-0.6-8,2.2-10.9l1-1c0.8-0.8,0.2-2.1-0.9-2.1h-9.6c-1.1,0-1.6,1.3-0.9,2.1l0.8,0.8
					C1462.9,489.4,1463.8,493.9,1462.2,497.7z"/>
			</g>
		</g>
		<g>
			<path class="st2" d="M1363.4,409.5c-8.6,0-15.6-7-15.6-15.6c0-8.6,7-15.6,15.6-15.6s15.6,7,15.6,15.6
				C1379,402.5,1372,409.5,1363.4,409.5z M1363.4,386.1c-4.3,0-7.8,3.5-7.8,7.8s3.5,7.8,7.8,7.8s7.8-3.5,7.8-7.8
				S1367.7,386.1,1363.4,386.1z"/>
		</g>
	</g>
	<g>
		<g>
			<path class="st2" d="M2142.6,408.1c-12,0-21.4-15.4-21.4-35.1c0-19.7,9.4-35.1,21.4-35.1c12,0,21.4,15.4,21.4,35.1
				C2164,392.7,2154.6,408.1,2142.6,408.1z M2142.6,345.7c-6.5,0-13.6,11.2-13.6,27.3s7.2,27.3,13.6,27.3c6.5,0,13.6-11.2,13.6-27.3
				S2149,345.7,2142.6,345.7z"/>
		</g>
		<g>
			<path class="st2" d="M2099.7,431.5c-12,0-21.4-15.4-21.4-35.1c0-19.7,9.4-35.1,21.4-35.1s21.4,15.4,21.4,35.1
				C2121.1,416.1,2111.7,431.5,2099.7,431.5z M2099.7,369.1c-6.5,0-13.6,11.2-13.6,27.3c0,16.1,7.2,27.3,13.6,27.3
				s13.6-11.2,13.6-27.3C2113.3,380.3,2106.1,369.1,2099.7,369.1z"/>
		</g>
		<g>
			<path class="st2" d="M2070.4,451c-2.1,0.1-3.9-1.5-4-3.6l-3.2-63.9l-6.7,8.4c-1.4,1.7-3.9,2-5.6,0.6l0,0
				c-1.7-1.3-1.9-3.7-0.6-5.4l15.7-19.6c1.4-1.7,4.2-0.8,4.3,1.4l3.9,78C2074.2,449,2072.6,450.9,2070.4,451L2070.4,451z"/>
		</g>
		<g>
			<path class="st2" d="M2060.5,474c-2.5,1.5-5.6-0.3-5.6-3.1v-15.4c0-2.5,2-4.4,4.4-4.4l0,0c1.9,0,3.4,1.5,3.4,3.4v9.1l123.5-76.3
				c1.7-1.1,3.9-0.5,5,1.2l0.1,0.2c1.2,1.9,0.6,4.3-1.3,5.5L2060.5,474z"/>
		</g>
	</g>
	<g>
		<g>
			<path class="st2" d="M1822.4,435c34,0,62.8,22.5,72.5,53.4c0.5,1.7,2,2.8,3.8,2.8h0c2.6,0,4.4-2.6,3.6-5.1
				c-10.6-34.1-42.4-59-80-59c-37.8,0-69.7,25.2-80.2,59.6c-0.7,2.2,1.1,4.4,3.4,4.4h0.2c2,0,3.6-1.3,4.2-3.2
				C1759.8,457.4,1788.5,435,1822.4,435z"/>
		</g>
		<path class="st2" d="M1878,335.5c-0.7-4-2-7.9-3.6-11.6l36.1-24.8c3.1-2.2,3.1-6.8,0-8.9l-81.7-56.2c-2.7-1.8-6.2-1.8-8.9,0
			l-80.7,55.5c-3.6,2.5-3.6,7.8,0,10.3l35.1,24.1c-1.6,3.7-2.8,7.5-3.6,11.6c-0.2,1.1-0.4,2.2-0.5,3.3c-0.3,2.2-0.3,4.3-0.3,6.4
			c0,9.2,2.2,17.8,6.3,25.4c1.4,2.7,3.1,5.3,5,7.7c0.2,0.2,0.3,0.5,0.5,0.7c0,0.5-0.1,0.9-0.1,1.3c0,23.6,19.2,42.9,42.9,42.9
			s42.9-19.2,42.9-42.9c0-0.5-0.1-0.9-0.1-1.3c0.2-0.2,0.3-0.5,0.5-0.7c1.9-2.4,3.5-5,5-7.8c4-7.6,6.3-16.2,6.3-25.3
			c0-0.1,0-0.1,0-0.2C1878.9,341.9,1878.6,338.7,1878,335.5z M1781.1,362.9c-1.5-3.7-2.5-7.7-3-11.8c2.9,1.9,6,3.6,9.1,5.2
			C1785,358.4,1782.9,360.6,1781.1,362.9z M1777.8,341.5c0.4-4.5,1.5-8.9,3.1-13l41.5,28.5c-6.4-0.2-12.7-1.2-18.6-2.8
			c-3.3-0.9-6.6-2-9.8-3.3C1788.1,348.4,1782.8,345.2,1777.8,341.5z M1859.5,380.4c0,2.5-0.3,4.9-0.8,7.3
			c-3.4,15.9-17.5,27.8-34.3,27.8s-30.9-11.9-34.3-27.8c-0.5-2.4-0.8-4.8-0.8-7.3c0-1-2.4-5.9-4.3-9.6c2.7-4.3,6.2-8,10.1-11.2
			c9.1,3.3,19,5.1,29.3,5.1s20.1-1.8,29.3-5.1c3.9,3.2,7.4,6.9,10.1,11.2C1861.9,374.5,1859.5,379.4,1859.5,380.4z M1867.7,363
			c-1.8-2.4-3.9-4.6-6.1-6.6c3.2-1.5,6.2-3.3,9.2-5.2C1870.2,355.3,1869.2,359.2,1867.7,363z M1854.8,350.8
			c-3.2,1.3-6.4,2.4-9.8,3.3c-6,1.6-12.2,2.6-18.6,2.8l41.5-28.6c1.6,4.1,2.6,8.5,3,13C1866,345.2,1860.6,348.4,1854.8,350.8z
			 M1870.9,316.9l-6.4,4.4l-40.1,27.5l-40-27.5l-6.5-4.5l-32.4-22.3l78.9-54.2l78.9,54.2L1870.9,316.9z"/>
		<g>
			<path class="st2" d="M1898.5,388.2L1898.5,388.2c-2.2,0-3.9-1.7-3.9-3.9V322c0-2.2,1.7-3.9,3.9-3.9l0,0c2.2,0,3.9,1.7,3.9,3.9
				v62.4C1902.4,386.5,1900.6,388.2,1898.5,388.2z"/>
		</g>
		<g>
			<path class="st2" d="M1900.8,403.6c-8.2,1.6-15.3-5.5-13.8-13.8c0.9-4.6,4.6-8.3,9.2-9.2c8.2-1.6,15.3,5.5,13.8,13.8
				C1909.1,399,1905.3,402.7,1900.8,403.6z M1898.5,388.2c-2.1,0-3.9,1.7-3.9,3.9s1.7,3.9,3.9,3.9s3.9-1.7,3.9-3.9
				S1900.6,388.2,1898.5,388.2z"/>
		</g>
	</g>
	<g>
		<g>
			<path class="st2" d="M493.8,381.6L493.8,381.6c-2.2,0-3.9-1.7-3.9-3.9V272.4c0-2.2,1.7-3.9,3.9-3.9l0,0c2.2,0,3.9,1.7,3.9,3.9
				v105.3C497.7,379.8,495.9,381.6,493.8,381.6z"/>
		</g>
		<g>
			<path class="st2" d="M696.5,377.7L696.5,377.7c-2.2,0-3.9-1.7-3.9-3.9V268.5c0-2.2,1.7-3.9,3.9-3.9l0,0c2.2,0,3.9,1.7,3.9,3.9
				v105.3C700.4,375.9,698.7,377.7,696.5,377.7z"/>
		</g>
		<g>
			<path class="st2" d="M513.3,393.3h159.9c2.2,0,3.9-1.7,3.9-3.9v0c0-2.2-1.7-3.9-3.9-3.9H513.3c-2.2,0-3.9,1.7-3.9,3.9v0
				C509.4,391.5,511.1,393.3,513.3,393.3z"/>
			<path class="st2" d="M665.3,260v-1.2c0-31.2-25.3-56.5-56.5-56.5h-27.3c-31.2,0-56.5,25.3-56.5,56.5v1.2c0,0.4-0.3,0.7-0.7,0.7
				h-11.7c-1.7,0-3.1,1.4-3.1,3.1v1.5c0,1.8,1.4,3.2,3.2,3.2H525h7.8h7.8h7.8h93.6h7.8h7.8h7.8h8.5c1.8,0,3.2-1.4,3.2-3.2v-0.8
				c0-2.1-1.7-3.8-3.8-3.8h-7.2C665.7,260.7,665.3,260.4,665.3,260z M548.4,260L548.4,260c0-19,15.4-34.3,34.3-34.3h25
				c18.9,0,34.3,15.4,34.3,34.3v0c0,0.4-0.3,0.7-0.7,0.7h-92.1C548.7,260.7,548.4,260.4,548.4,260z M649.7,260L649.7,260
				c0-23.3-18.8-42.1-42.1-42.1h-25c-23.2,0-42.1,18.8-42.1,42.1v0c0,0.4-0.3,0.7-0.7,0.7h-6.3c-0.4,0-0.7-0.3-0.7-0.7v-1.2
				c0-26.9,21.8-48.7,48.7-48.7h27.3c26.9,0,48.7,21.8,48.7,48.7v1.2c0,0.4-0.3,0.7-0.7,0.7h-6.3C650.1,260.7,649.7,260.4,649.7,260
				z"/>
			<path class="st2" d="M684.7,276.2c-1.5-1.5-3.8-1.5-5.3,0l-14.3,14.3l-8.9,8.9c-0.4,0.4-0.7,0.9-0.8,1.4
				c-0.6,2.1-1.4,4.1-2.4,6.1c-6.4,13.8-19.2,24.1-34.5,27l0-7.5c0-0.3-0.1-0.5-0.1-0.7c-0.1-2.7-0.8-5.2-1.9-7.5
				c-3.1-6.3-9.5-10.6-16.9-10.6h-8.9c-7.4,0-13.8,4.4-16.9,10.6c-1.1,2.3-1.8,4.8-1.9,7.5c0,0.2-0.1,0.5-0.1,0.7l0,7.5
				c-12.4-2.4-23.1-9.6-30.2-19.5c-1.9-2.7-3.5-5.6-4.9-8.7c-0.3-0.7-0.7-1.3-1.1-1.8l-10.3-11.5l-14.3-15.9
				c-1.4-1.6-3.8-1.7-5.4-0.3l-0.4,0.3c-1.4,1.3-1.6,3.5-0.3,4.9l23.9,26.6c0.5,0.5,0.9,1.2,1.2,1.8c7.6,16.6,23.1,28.8,41.7,31.8
				l0,14.5c0,11.8,9.6,21.4,21.4,21.4h4.1c11.8,0,21.4-9.6,21.4-21.4l0-14.5c20.5-3.4,37.3-17.9,43.8-37.2c0.1-0.3,0.3-0.6,0.5-0.8
				c2.5-2.5,17.4-17.4,22.8-22.8c1.1-1.1,1.1-2.8,0-3.9L684.7,276.2z M610.7,356.3c0,7.5-6.1,13.6-13.6,13.6h-4.1
				c-7.5,0-13.6-6.1-13.6-13.6v-13.8c0.4,0,0.8,0.1,1.3,0.1h28.7c0.4,0,0.8-0.1,1.3-0.1V356.3z M610.7,326.9v7.9h-31.2v-7.9v-0.5
				c0-2.8,1.1-5.3,2.7-7.2c2-2.4,5-3.9,8.4-3.9h8.9c3.4,0,6.3,1.5,8.4,3.9c1.7,1.9,2.7,4.5,2.7,7.2V326.9z"/>
		</g>
	</g>
	<g>
		<g>
			<path class="st2" d="M412.5,242.7c-1.3,0-2.6,0-3.9-0.1c-16.7-1-32-8.5-43.1-21c-11.1-12.5-16.6-28.7-15.6-45.4
				c1-16.7,8.5-32,21-43.1c12.5-11.1,28.6-16.6,45.4-15.6c16.7,1,32,8.5,43.1,21c11.1,12.5,16.6,28.7,15.6,45.4
				c-1,16.7-8.5,32-21,43.1C442.4,237.2,427.8,242.7,412.5,242.7z M412.4,125.2c-28.7,0-53,22.5-54.7,51.5
				c-1.9,30.2,21.2,56.3,51.4,58.2c30.1,1.8,56.3-21.2,58.2-51.4c1.9-30.2-21.2-56.3-51.4-58.2C414.7,125.2,413.5,125.2,412.4,125.2
				z"/>
		</g>
		<path class="st2" d="M434.1,185.5c-0.8-1.7-2-3.3-3.6-4.5c-1.2-0.8-2.3-1.5-3.4-2.1c-1.1-0.6-4.1-1.5-8.8-2.8l-3.4-1l-4.6-1.3
			c-3.2-0.9-5.4-1.9-6.7-3c-1.3-1.1-2-2.6-2-4.4c0-2.3,1-4.3,3.1-5.9c2-1.6,5-2.4,8.9-2.4c3.2,0,5.8,0.6,7.7,1.7
			c1.8,1,2.7,2.4,2.9,4.1c0,0,0,0.1,0,0.1c0,0,0,0,0,0.1c0,0.1,0,0.1,0,0.2l0,0.2l0.1,0c0.5,2.3,2.6,4,5,3.8
			c2.1-0.2,3.8-1.8,4.2-3.8c0,0,0.6-5.6-4.1-10c-3.1-2.9-8.1-4.4-15.3-4.4c-7.2,0-12.7,1.7-16.4,5.1c-3.7,3.4-5.5,7.4-5.5,11.9
			c0,6.5,3.8,11.1,11.4,14l6.6,2.1l3.2,1l5,1.5c4.8,1.5,7.2,4,7.2,7.6c0,2.6-1.2,4.9-3.7,6.8c-2.5,1.9-5.7,2.9-9.7,2.9
			c-4.5,0-7.7-0.8-9.6-2.5c-1.9-1.6-2.9-3.7-2.9-6.2c0,0-0.1-0.5-0.1-0.6c0-2.6-2.1-4.7-4.7-4.7s-4.7,2.1-4.7,4.7
			c0,0.1-0.1,0.6-0.1,0.6c0,3.3,0.9,6.1,2.8,8.6c1.9,2.5,4.3,4.4,7.5,5.9c3.1,1.4,7.1,2.1,11.8,2.1c7.5,0,13.2-1.8,17.1-5.5
			c3.9-3.7,5.9-8.3,5.9-13.7C435.2,189.3,434.9,187.3,434.1,185.5z"/>
		<g>
			<path class="st2" d="M412.5,222.9L412.5,222.9c-2.2,0-3.9-1.7-3.9-3.9V145c0-2.2,1.7-3.9,3.9-3.9h0c2.2,0,3.9,1.7,3.9,3.9V219
				C416.4,221.2,414.6,222.9,412.5,222.9z"/>
		</g>
	</g>
	<g>
		<g>
			<path class="st2" d="M341.7,372.2c-2.1-9.2-9.5-16.5-18.7-18.6c-9.1-2.1-17.6,0.8-23.5,6.4h0c-5.9-5.6-14.4-8.5-23.5-6.4
				c-9.2,2.1-16.6,9.5-18.7,18.7c-2.1,9.1,0.7,17.6,6.3,23.4l0,0c3.5,5.5,7.8,11.9,12.7,16.9c3.4,3.6,12.7,9.6,13.8,10.1
				c4.8,2.2,7.7,7.5,8.3,13.1c0.7,6.2-1.9,12-6.4,15.7c-0.8,0.7-6.5,2.9-8.2,3.8c-3.4,1.8-7.5,4-12,6.5
				c-32.2,18.1-88.1,53.1-118.9,72.6c-2,1.2-2.6,3.9-1.3,5.8l0.1,0.1c1,1.6,3.1,2.1,4.7,1.1c39.6-25.1,97.2-60.6,124.4-75.9
				c2.3-1.3,4.6-2.4,7.1-3.1c11.8-3.4,19.8-14.9,18.3-27.5c-1.1-9.9-8-17.3-16.5-21.1l0,0c-3.1-2.1-7.3-6-11.2-10.6
				c-3.3-3.9-12-16.6-12.9-19.2c-1.4-3.9-1.7-8.4,0.9-13.4c3-5.8,8.9-9.9,15.4-10c5.8-0.1,11,2.8,14.2,7.1c1.8,2.4,5.3,2.4,7.1,0
				c3.3-4.3,8.4-7.1,14.2-7.1c6.5,0.1,12.3,4.2,15.4,10c2.6,5,2.3,9.4,0.9,13.4c-0.9,2.6-9.9,15.7-13.1,19.2c-2.7,3-5.3,5.4-7.1,6.8
				c-1.3,1-2.1,2.5-2.1,4.1c0,2.7,3,4.4,5.3,2.9c6.1-3.9,14.2-12.6,19-21.5l0,0C340.6,389.4,343.8,381.2,341.7,372.2z"/>
		</g>
		<g>
			<path class="st2" d="M442.3,545.2l-129.8-77.9c-1.8-1.1-2.4-3.5-1.3-5.4l0,0c1.1-1.8,3.5-2.4,5.3-1.3l129.8,77.9
				c1.8,1.1,2.4,3.5,1.3,5.4v0C446.6,545.7,444.2,546.3,442.3,545.2z"/>
		</g>
		<g>
			<path class="st2" d="M182.5,676.5L182.5,676.5c-2.2,0-3.9-1.7-3.9-3.9V540c0-2.2,1.7-3.9,3.9-3.9l0,0c2.2,0,3.9,1.7,3.9,3.9
				v132.6C186.4,674.7,184.7,676.5,182.5,676.5z"/>
		</g>
		<g>
			<path class="st2" d="M408.7,676.5L408.7,676.5c-2.2,0-3.9-1.7-3.9-3.9V540c0-2.2,1.7-3.9,3.9-3.9l0,0c2.2,0,3.9,1.7,3.9,3.9
				v132.6C412.6,674.7,410.8,676.5,408.7,676.5z"/>
		</g>
		<g>
			<path class="st2" d="M266.9,643.7c-1.5-3.8-0.6-8,2.2-10.9l1-1c0.8-0.8,0.2-2.1-0.9-2.1h-9.6c-1.1,0-1.6,1.3-0.9,2.1l0.8,0.8
				c2.9,2.9,3.9,7.4,2.3,11.2l-4.3,10.7c-0.6,1.5-0.2,3.1,0.9,4.3l5.1,5.1c0.5,0.5,1.3,0.5,1.7,0l4.9-4.9c1.2-1.2,1.6-3.1,1-4.8
				L266.9,643.7z"/>
			<path class="st2" d="M359.2,646.2c1.7-2.5,2.7-5.5,2.7-8.8c0-5.3-2.6-9.9-6.6-12.7c-2.5-1.8-5.6-2.9-8.9-2.9
				c-8.6,0-15.6,7-15.6,15.6c0,0.1,0,0.1,0,0.2c-5.9,0.6-11.3,2.5-16.1,5.4c-2.7-6.2-6.5-11.8-11.1-16.6c0-0.1-5.9-5.3-5.9-5.2
				c0,0,0,0,0,0c-5.4-4.1-11.6-7.2-18.3-9.1c4.4-4.3,7.4-10.9,10.1-18.9c0.3-1,4.9-13.5,4.9-19.8c0-16.3-13.3-29.6-29.6-29.6
				s-29.6,13.3-29.6,29.6c0,6.2,4.6,18.8,4.9,19.8c2.7,8,5.7,14.6,10.1,18.9c-6.7,1.9-12.9,5-18.3,9.1c0,0,0-0.1-0.1-0.1l-5.9,5.3
				c0,0,0,0,0,0c-6.9,7-11.9,15.9-14.2,25.9c-0.5,2.3,1.2,4.6,3.6,4.6h0.2c1.8,0,3.4-1.3,3.8-3.1c1.7-7.2,5.1-13.7,9.7-19.1
				c1.9-2.3,4-4.3,6.3-6.2c8.1-6.6,18.3-10.5,29.5-10.5c11.2,0,21.5,4,29.5,10.5c2.3,1.9,4.4,4,6.3,6.2c3.3,3.9,5.9,8.4,7.8,13.2
				c-2.5,2.3-4.7,4.9-6.6,7.8l-0.3,0.5c-2.6,4.1-1.5,9.8,2.5,12.7l0.5,0.3c6.4,4.5,14.1,7.2,22.5,7.2c13.9,0,26.1-7.3,33-18.3
				c0.6-1,1.2-2,1.7-3c1.5-2.9,0.6-6.5-1.9-8.5L359.2,646.2z M264.4,610.2c-6.1,0-11.4-3.5-14.1-8.6c-1.1-2.2-5.6-19.7-6.6-23.8
				c-1.3-5.7-0.9-12,6.4-19.6c3.6-3.8,8.5-6.3,13.7-6.4c12-0.3,21.8,9.4,21.8,21.3c0,1.6-0.2,3.2-0.6,4.8
				c-0.9,4.1-5.4,21.6-6.6,23.8C275.8,606.7,270.6,610.2,264.4,610.2z M349.5,630.3c1.7,0.7,3.1,2.1,3.9,3.8
				c1.3,2.9,0.8,5.8-0.7,7.9c-1.4,2-3.7,3.3-6.4,3.3c-4.2,0-7.7-3.4-7.8-7.6c0-0.1,0-0.1,0-0.2C338.5,632.2,343.8,628.1,349.5,630.3
				z M326.8,668.7c-6.6,0-12.6-2-17.7-5.5c-1.2-0.8-1.4-2.6-0.6-3.8c0.8-1.2,1.7-2.4,2.7-3.4c1.8-2,3.8-3.8,6-5.3
				c4.5-3.1,9.9-5,15.7-5.3c2.7,4.6,7.7,7.7,13.4,7.7c2.5,0,4.8-0.6,6.8-1.6c0.4,0.3,0.8,0.5,1.1,0.8
				C349,662,338.6,668.7,326.8,668.7z"/>
		</g>
		<path class="st2" d="M376.6,636.9c-2.8-13.2-12.6-24.1-25.2-28.4c10.5-8.5,18.8-23.8,18.4-25.2c-0.1-0.2-0.2-0.4-0.4-0.5
			c-1.3-0.8-6.6-4.2-7.6-4.8c-0.2-3.7-1.2-7.2-2.9-10.3c-1.3-2.4-3.1-4.5-5.1-6.3c-4.1-3.6-9.5-5.7-15.3-5.7c0,0-0.1,0-0.1,0
			s-0.1,0-0.1,0c0,0,0,0,0,0c-5.8,0-11.1,2.2-15.1,5.7c-2,1.8-3.8,3.9-5.1,6.3c-1.7,3.1-2.7,6.6-2.9,10.3c-1,0.6-6.4,4.1-7.6,4.9
			c-0.2,0.1-0.3,0.2-0.3,0.4c-0.4,1.1,8,16.7,18.6,25.3c-7,2.4-13,6.9-17.6,12.6l-4.5,4.5c-2,2-1.5,5.5,1.1,6.8
			c1.5,0.7,3.3,0.4,4.4-0.9l5-5.7c0,0,0.1,0,0.1,0c5.7-7.1,14.4-11.7,24.1-11.7c0,0,0,0,0,0c0.6,0,1.3,0.1,1.9,0.1
			c0.7,0,1.4,0.1,2.2,0.1c1.1,0.2,2.3,0.4,3.4,0.6c0.2,0,0.3,0.1,0.5,0.1c7.4,1.9,13.7,6.5,17.9,12.7l0.1-0.1
			c2.5,3.6,4.3,7.8,5.1,12.2c1,5.8,0.3,11.3-1.5,16.2c-0.9,2.3,1,4.7,3.4,4.7h0.5c1.6,0,3.1-0.9,3.6-2.4
			C377.5,651.9,378.2,644.5,376.6,636.9z M340.8,606.4c-0.8,0.1-1.6,0.1-2.4,0.1c-0.8,0-1.6,0-2.3-0.1c-9-0.8-17.1-15.1-19.9-20.6
			l4.9-4.9l0-1.6c0,0,0,0,0,0c0-0.1,0-0.2,0-0.3c0.2-2.5,0.9-4.9,2.1-7c1-1.8,2.3-3.4,3.8-4.7c3-2.6,7-4.3,11.4-4.3
			c4.3,0,8.3,1.6,11.4,4.3c1.5,1.3,2.8,2.9,3.8,4.7c1.2,2.1,1.9,4.5,2.1,7c0,0.1,0,0.2,0,0.3c0,0,0,0,0,0l0,1.6l4.9,4.9
			C357.9,591.2,349.8,605.6,340.8,606.4z"/>
	</g>
	<g>
		<g>
			<path class="st2" d="M995.7,692.3l-54.6-37.5c-1.4-0.9-3.2-0.9-4.5,0.1l-50.9,37.3c-1.7,1.3-4.2,0.9-5.4-0.8l0,0
				c-1.3-1.7-0.9-4.2,0.8-5.5l55.3-40.6c1.3-1,3.1-1,4.5-0.1l59.2,40.7c1.8,1.2,2.2,3.6,1,5.4l0,0
				C999.9,693.1,997.5,693.5,995.7,692.3z"/>
		</g>
		<g>
			<path class="st2" d="M872.5,823.9L872.5,823.9c-2.2,0-3.9-1.7-3.9-3.9V703c0-2.2,1.7-3.9,3.9-3.9l0,0c2.2,0,3.9,1.7,3.9,3.9v117
				C876.4,822.1,874.7,823.9,872.5,823.9z"/>
		</g>
		<g>
			<path class="st2" d="M1005.1,823.9L1005.1,823.9c-2.2,0-3.9-1.7-3.9-3.9V703c0-2.2,1.7-3.9,3.9-3.9l0,0c2.2,0,3.9,1.7,3.9,3.9
				v117C1009,822.1,1007.2,823.9,1005.1,823.9z"/>
		</g>
		<g>
			<path class="st2" d="M1051.9,823.9"/>
		</g>
		<g>
			<path class="st2" d="M1051.9,745.9"/>
		</g>
		<path class="st2" d="M855.8,713.1L855.8,713.1c-1.6-1.4-4.1-1.3-5.5,0.3l-28.6,32.2l0.3,0.3h-0.2V820c0,2.2,1.7,3.9,3.9,3.9h0
			c2.2,0,3.9-1.7,3.9-3.9v-70.1c0-1,0.4-1.9,1-2.6l25.5-28.7C857.5,717,857.4,714.5,855.8,713.1z"/>
		<path class="st2" d="M1055.9,745.6l-28.6-32.2c-1.4-1.6-3.9-1.8-5.5-0.3l0,0c-1.6,1.4-1.8,3.9-0.3,5.5l25.5,28.7
			c0.6,0.7,1,1.6,1,2.6V820c0,2.2,1.7,3.9,3.9,3.9h0c2.2,0,3.9-1.7,3.9-3.9v-74.1h-0.2L1055.9,745.6z"/>
		<path class="st2" d="M954.4,613.3h-11.7v-11.7c0-2.2-1.7-3.9-3.9-3.9l0,0c-2.2,0-3.9,1.7-3.9,3.9v11.7h-11.7
			c-2.2,0-3.9,1.7-3.9,3.9l0,0c0,2.2,1.7,3.9,3.9,3.9h11.7v27.3c0,2.2,1.7,3.9,3.9,3.9l0,0c2.2,0,3.9-1.7,3.9-3.9v-27.3h11.7
			c2.2,0,3.9-1.7,3.9-3.9l0,0C958.3,615.1,956.5,613.3,954.4,613.3z"/>
		<g>
			<path class="st2" d="M962.2,823.9L962.2,823.9c-2.2,0-3.9-1.7-3.9-3.9v-74.1c0-1.2-0.9-11.7-19.5-11.7
				c-18.6,0-19.5,10.5-19.5,11.7v74c0,2.2-1.7,3.9-3.9,3.9l0,0c-2.2,0-3.9-1.7-3.9-3.9v-74.1c0-0.2,0.3-19.5,27.3-19.5
				s27.3,19.3,27.3,19.5V820C966.1,822.1,964.3,823.9,962.2,823.9z"/>
		</g>
		<g>
			<path class="st2" d="M938.8,710.8c-8.6,0-15.6-7-15.6-15.6s7-15.6,15.6-15.6s15.6,7,15.6,15.6S947.4,710.8,938.8,710.8z
				 M938.8,687.4c-4.3,0-7.8,3.5-7.8,7.8s3.5,7.8,7.8,7.8s7.8-3.5,7.8-7.8S943.1,687.4,938.8,687.4z"/>
		</g>
		<g>
			<path class="st2" d="M849.1,823.9L849.1,823.9c-2.2,0-3.9-1.7-3.9-3.9v-62.4c0-2.2,1.7-3.9,3.9-3.9l0,0c2.2,0,3.9,1.7,3.9,3.9
				V820C853,822.1,851.3,823.9,849.1,823.9z"/>
		</g>
		<g>
			<path class="st2" d="M1028.5,823.9L1028.5,823.9c-2.2,0-3.9-1.7-3.9-3.9v-62.4c0-2.2,1.7-3.9,3.9-3.9l0,0c2.2,0,3.9,1.7,3.9,3.9
				V820C1032.4,822.1,1030.6,823.9,1028.5,823.9z"/>
		</g>
	</g>
	<g>
		<g>
			<path class="st2" d="M1506.7,1163.5L1506.7,1163.5c-2.2,0-3.9-1.7-3.9-3.9v-124.8c0-2.2,1.7-3.9,3.9-3.9l0,0
				c2.2,0,3.9,1.7,3.9,3.9v124.8C1510.6,1161.8,1508.9,1163.5,1506.7,1163.5z"/>
		</g>
		<g>
			<path class="st2" d="M1713.4,1163.5L1713.4,1163.5c-2.2,0-3.9-1.7-3.9-3.9v-124.8c0-2.2,1.7-3.9,3.9-3.9l0,0
				c2.2,0,3.9,1.7,3.9,3.9v124.8C1717.3,1161.8,1715.5,1163.5,1713.4,1163.5z"/>
		</g>
		<g>
			<path class="st2" d="M1678.3,1034.8h-140.4c-2.2,0-3.9-1.7-3.9-3.9l0,0c0-2.2,1.7-3.9,3.9-3.9h140.4c2.2,0,3.9,1.7,3.9,3.9l0,0
				C1682.2,1033.1,1680.4,1034.8,1678.3,1034.8z"/>
		</g>
		<g>
			<path class="st2" d="M1682.2,1167.4h-144.3c-2.2,0-3.9-1.7-3.9-3.9l0,0c0-2.2,1.7-3.9,3.9-3.9h144.3c2.2,0,3.9,1.7,3.9,3.9l0,0
				C1686.1,1165.7,1684.3,1167.4,1682.2,1167.4z"/>
		</g>
		<circle class="st2" cx="1664.6" cy="1044.6" r="5.8"/>
		<circle class="st2" cx="1649" cy="1044.6" r="5.8"/>
		<circle class="st2" cx="1680.2" cy="1044.6" r="5.8"/>
		<g>
			<path class="st2" d="M1534,1107c0-10.1,7.1-18.7,16.6-20.9c1.7-0.4,2.9-2,2.9-3.7v0c0-2.5-2.3-4.4-4.7-3.8
				c-13,3-22.6,14.6-22.6,28.5s9.7,25.5,22.6,28.5c2.4,0.6,4.7-1.4,4.7-3.8v0c0-1.8-1.2-3.3-2.9-3.7
				C1541.1,1125.6,1534,1117.1,1534,1107z"/>
			<path class="st2" d="M1561,1132.3L1561,1132.3c0,2.2,1.7,3.9,3.9,3.9h79.9c2.2,0,3.9-1.7,3.9-3.9v0c0-2.1-1.7-3.9-3.9-3.9h-79.9
				C1562.7,1128.4,1561,1130.2,1561,1132.3z"/>
			<path class="st2" d="M1561,1081.6L1561,1081.6c0,2.2,1.7,3.9,3.9,3.9h79.9c2.2,0,3.9-1.7,3.9-3.9v0c0-2.1-1.7-3.9-3.9-3.9h-79.9
				C1562.7,1077.7,1561,1079.5,1561,1081.6z"/>
			<path class="st2" d="M1682.2,1107c0-12.9-8.4-23.9-20-27.7c-2.5-0.8-5,1.2-5,3.7l0,0c0,1.6,1,3.1,2.6,3.6
				c8.5,2.8,14.6,10.9,14.6,20.3s-6.1,17.5-14.6,20.3c-1.6,0.5-2.6,2-2.6,3.6l0,0c0,2.6,2.5,4.6,5,3.7
				C1673.8,1130.8,1682.2,1119.9,1682.2,1107z"/>
		</g>
		<path class="st2" d="M1604.1,1097.9l-3.6,18.7c-0.2,1.2,1,2.1,2.1,1.5l6.7-3.7l5.8,11.7c1,2,3.4,2.8,5.3,1.8l0.6-0.3
			c1.9-0.9,2.7-3.2,1.7-5.1l-5.9-11.8l5.9-2.4c1.1-0.5,1.3-2.1,0.2-2.7l-15.6-9.1C1606.1,1095.6,1604.4,1096.4,1604.1,1097.9z"/>
	</g>
	<g>
		<g>
			<path class="st2" d="M801.7,423.3c-15,0-27.3-12.2-27.3-27.3s12.2-27.3,27.3-27.3S829,380.9,829,396S816.8,423.3,801.7,423.3z
				 M801.7,376.5c-10.7,0-19.5,8.7-19.5,19.5s8.7,19.5,19.5,19.5c10.7,0,19.5-8.7,19.5-19.5S812.5,376.5,801.7,376.5z"/>
		</g>
		<g>
			<path class="st2" d="M784,473.3l-20.2-13.4c-1.8-1.2-2.3-3.6-1.1-5.4l0,0c1.2-1.8,3.6-2.3,5.4-1.1l17.3,11.6l26.3-29.6
				c1.4-1.6,3.9-1.8,5.5-0.3l0,0c1.6,1.4,1.8,3.9,0.3,5.5L789,472.7C787.7,474.1,785.6,474.4,784,473.3z"/>
		</g>
		<g>
			<path class="st2" d="M914.7,524.6l-49.8-1.2c-1.9,0-3.5-1.5-3.8-3.3l-4.3-29.9c-0.3-2.1,1.2-4.1,3.3-4.4l0,0
				c2.1-0.3,4.1,1.2,4.4,3.3l3.8,26.7l46.5,1.1c2.2,0.1,3.9,1.8,3.8,4v0C918.6,522.9,916.8,524.6,914.7,524.6z"/>
		</g>
		<path class="st2" d="M822.3,421.5l-1.1,1.8c-1.1,1.9-0.5,4.3,1.4,5.4l22.9,13.7c1,0.6,1.6,1.5,1.8,2.6l4.5,22.4
			c0.2,1.1,0,2.2-0.7,3.1l-61.9,83.8c-1.3,1.7-0.9,4.2,0.8,5.5l0,0c1.7,1.3,4.2,0.9,5.5-0.8l64-86.5c0.7-0.9,0.9-2,0.7-3.1
			l-5.8-29.2c-0.2-1.1-0.9-2-1.8-2.6L833,425.8c0,0,0-0.1,0-0.1l33.4-5.6l-1.9,22.3c-0.2,2.1,1.4,4,3.5,4.2l0,0
			c2.1,0.2,4-1.4,4.2-3.5l2.3-27.2c0.2-2.6-2.1-4.7-4.6-4.2l-45,7.9C823.9,419.8,822.9,420.5,822.3,421.5z"/>
	</g>
	<g>
		<g>
			<path class="st2" d="M577.5,1128.3L577.5,1128.3c-2.2,0-3.9-1.7-3.9-3.9V964.6c0-2.2,1.7-3.9,3.9-3.9l0,0c2.2,0,3.9,1.7,3.9,3.9
				v159.9C581.4,1126.6,579.7,1128.3,577.5,1128.3z"/>
		</g>
		<g>
			<path class="st2" d="M745.2,1128.3L745.2,1128.3c-2.2,0-3.9-1.7-3.9-3.9V964.6c0-2.2,1.7-3.9,3.9-3.9l0,0c2.2,0,3.9,1.7,3.9,3.9
				v159.9C749.1,1126.6,747.3,1128.3,745.2,1128.3z"/>
		</g>
		<g>
			<path class="st2" d="M721.8,949H593.1c-2.2,0-3.9-1.7-3.9-3.9l0,0c0-2.2,1.7-3.9,3.9-3.9h128.7c2.2,0,3.9,1.7,3.9,3.9l0,0
				C725.7,947.2,723.9,949,721.8,949z"/>
		</g>
		<g>
			<path class="st2" d="M725.7,1147.8H597c-2.2,0-3.9-1.7-3.9-3.9l0,0c0-2.2,1.7-3.9,3.9-3.9h128.7c2.2,0,3.9,1.7,3.9,3.9l0,0
				C729.6,1146.1,727.8,1147.8,725.7,1147.8z"/>
		</g>
		<path class="st2" d="M716.7,976.3c1.6-5.3,1.6-11-0.2-16.4c-0.5-1.5-1.1-3-1.9-4.3c-0.7-1.2-2-1.9-3.4-1.9h0
			c-2.9,0-4.8,3.1-3.4,5.7c0.5,0.9,0.9,1.9,1.3,3c1.5,4.6,1.2,9.5-0.7,14c-0.1,0.3-0.2,0.6-0.4,0.9c-0.2,0.3-0.4,0.7-0.6,1
			c-1.5,2.6,0.3,5.8,3.3,5.8l2.1,0h20.5c2.2,0,3.9-1.7,3.9-3.9l0,0c0-2.2-1.7-3.9-3.9-3.9H716.7z"/>
		<g>
			<path class="st2" d="M690.6,991.9h-35.1c-2.2,0-3.9-1.7-3.9-3.9v0c0-2.2,1.7-3.9,3.9-3.9h35.1c2.2,0,3.9,1.7,3.9,3.9v0
				C694.5,990.1,692.7,991.9,690.6,991.9z"/>
		</g>
		<g>
			<path class="st2" d="M717.9,1011.4h-62.4c-2.2,0-3.9-1.7-3.9-3.9l0,0c0-2.2,1.7-3.9,3.9-3.9h62.4c2.2,0,3.9,1.7,3.9,3.9l0,0
				C721.8,1009.6,720,1011.4,717.9,1011.4z"/>
		</g>
		<g>
			<path class="st2" d="M717.9,1042.6H604.8c-2.2,0-3.9-1.7-3.9-3.9v0c0-2.2,1.7-3.9,3.9-3.9h113.1c2.2,0,3.9,1.7,3.9,3.9v0
				C721.8,1040.8,720,1042.6,717.9,1042.6z"/>
		</g>
		<g>
			<path class="st2" d="M702.3,1108.8h-81.9c-2.2,0-3.9-1.7-3.9-3.9l0,0c0-2.2,1.7-3.9,3.9-3.9h81.9c2.2,0,3.9,1.7,3.9,3.9l0,0
				C706.2,1107.1,704.4,1108.8,702.3,1108.8z"/>
		</g>
		<g>
			<g>
				<path class="st2" d="M616.5,1015.3c-15,0-27.3-12.2-27.3-27.3c0-15,12.2-27.3,27.3-27.3s27.3,12.2,27.3,27.3
					C643.8,1003,631.6,1015.3,616.5,1015.3z M616.5,968.5c-10.7,0-19.5,8.7-19.5,19.5c0,10.7,8.7,19.5,19.5,19.5
					c10.7,0,19.5-8.7,19.5-19.5C636,977.2,627.3,968.5,616.5,968.5z"/>
			</g>
			<g>
				
					<ellipse transform="matrix(8.848851e-02 -0.9961 0.9961 8.848851e-02 -418.2573 1511.0922)" class="st2" cx="616.5" cy="984.1" rx="7.8" ry="7.8"/>
			</g>
			<g>
				<ellipse class="st2" cx="616.5" cy="1003.6" rx="11.7" ry="7.8"/>
			</g>
		</g>
		<path class="st2" d="M838,1006.2c-2-7.2-8.1-12.8-15.5-14.1c-8.8-1.4-16.5,3-20.3,10l-64.4,136.2l-0.4,0.8v29.8
			c0,5.8,6.8,8.9,11.1,5.1l23.2-19.9l64.2-132.8C838.5,1017.1,839.6,1011.9,838,1006.2z M829.2,1017.5c-1.5,2.5-3.3,7.1-3.3,7.1
			l-2.8,5.8l-57.6,118.8l-20.2,17.4v-25.7l52.9-112.4l8.2,4.1c1.9,1,4.3,0.2,5.2-1.7c1-1.9,0.2-4.3-1.7-5.2l-8.3-4.2l0.6-1.3
			l3.4-7.3c0,0,2.7-5.3,3.5-7c2.4-4.6,7.8-7.5,13.7-5.8c3.5,1,6.4,3.8,7.6,7.2C831.6,1011.2,830.9,1014.7,829.2,1017.5z"/>
	</g>
	<g>
		<path class="st2" d="M880.9,588.6h-85.6c-18,0-34.9-9.7-43.9-25.3l-42.8-74.1c-9-15.6-9-35,0-50.7l42.8-74.1
			c9-15.6,25.8-25.3,43.9-25.3h85.6c18,0,34.9,9.7,43.9,25.3l42.8,74.1c9,15.6,9,35,0,50.7l-42.8,74.1
			C915.8,578.9,899,588.6,880.9,588.6z M795.4,346.9c-15.3,0-29.5,8.2-37.1,21.4l-42.8,74.1c-7.6,13.2-7.6,29.6,0,42.9l42.8,74.1
			c7.6,13.2,21.9,21.4,37.1,21.4h85.6c15.3,0,29.5-8.2,37.1-21.4l42.8-74.1c7.6-13.2,7.6-29.6,0-42.9l-42.8-74.1
			c-7.6-13.2-21.9-21.4-37.1-21.4H795.4z"/>
	</g>
	<g>
		<path class="st2" d="M741.2,718.6l-61.5-106.4c-9-15.6-25.8-25.3-43.9-25.3H517.6l3.2-5.5c15.4-26.7,15.4-59.9,0-86.5l-75-129.8
			c-15.4-26.7-44.1-43.3-75-43.3H220.9c-30.8,0-59.5,16.6-75,43.3L71,494.8c-15.4,26.7-15.4,59.9,0,86.5l75,129.8
			c15.4,26.7,44.1,43.3,75,43.3h149.9c10.5,0,20.8-2,30.4-5.6c0.7,7.1,2.8,14,6.4,20.4l61.5,106.4c9,15.6,25.8,25.3,43.9,25.3h122.9
			c18,0,34.9-9.7,43.9-25.3l61.5-106.4C750.3,753.6,750.3,734.2,741.2,718.6z M401.1,740.6c-9.5,3.9-19.7,6.1-30.2,6.1H220.9
			c-28,0-54.2-15.1-68.2-39.4l-75-129.8c-14-24.3-14-54.5,0-78.7l75-129.8c14-24.3,40.2-39.4,68.2-39.4h149.9
			c28,0,54.2,15.1,68.2,39.4l75,129.8c14,24.3,14,54.5,0,78.7l-5.5,9.6l-5,8.7l-64.4,111.5c-7.2,12.4-17.5,22.4-29.6,29.2
			C406.7,738,404,739.4,401.1,740.6z M734.5,765.3L673,871.8c-7.6,13.2-21.9,21.4-37.1,21.4H513c-15.3,0-29.5-8.2-37.1-21.4
			l-61.5-106.4c-3.5-6.1-5.3-12.9-5.6-19.7c15.3-7.5,28.3-19.3,37-34.5l67.3-116.6h122.8c15.3,0,29.5,8.2,37.1,21.4l61.5,106.4
			C742.1,735.7,742.1,752.1,734.5,765.3z"/>
	</g>
	<g>
		<path class="st2" d="M1052.1,574.7c-1.6,0-3-1-3.6-2.4l-31.6-77.3c-0.8-2-3.1-2.9-5.1-2.1l0,0c-2,0.8-2.9,3.1-2.1,5.1l33.6,82.2
			c0.6,1.5,2,2.4,3.6,2.4h652.4c0.1-2.6,0.2-5.2,0.3-7.8H1052.1z"/>
	</g>
	<g>
		<path class="st2" d="M1910.6,993.6L1910.6,993.6c-2-0.8-4.3,0.1-5.1,2.1l-31.6,77.3c-0.6,1.5-2,2.4-3.6,2.4h-160v7.8h165.3
			c1.6,0,3-1,3.6-2.4l33.6-82.2C1913.6,996.7,1912.6,994.4,1910.6,993.6z"/>
	</g>
	<g>
		<path class="st2" d="M1560.9,1285.8H800.6c-1.6,0-3-1-3.6-2.4l-33.6-82.2c-0.8-2,0.1-4.3,2.1-5.1l0,0c2-0.8,4.3,0.1,5.1,2.1
			l31.6,77.3c0.6,1.5,2,2.4,3.6,2.4h755.1c2.2,0,3.9,1.7,3.9,3.9l0,0C1564.8,1284.1,1563,1285.8,1560.9,1285.8z"/>
	</g>
	<g>
		<g>
			<g>
				<g>
					<path class="st2" d="M1986.9,914.7l-9.7-16.2c-1.1-1.8-0.5-4.2,1.3-5.3l0,0c1.8-1.1,4.2-0.5,5.3,1.3l6.5,10.9l17.8-26.7
						c1.2-1.8,3.6-2.3,5.4-1.1l0,0c1.8,1.2,2.3,3.6,1.1,5.4l-21.2,31.9C1991.9,917.2,1988.4,917.2,1986.9,914.7z"/>
				</g>
			</g>
			<path class="st2" d="M2075,855.3c-11.1-10.1-25.8-16.2-41.9-16.2c-14.8,0-28.3,5.2-39,13.8c-10.7-8.6-24.2-13.8-39-13.8
				c-16.1,0-30.8,6.2-41.9,16.2c-2.6,2.4-0.9,6.7,2.6,6.7h0.3c0.9,0,1.8-0.4,2.5-1c9.7-8.8,22.5-14.1,36.5-14.1
				c13.5,0,25.8,5,35.3,13.1c0.6,1.1,6.7,1.1,7.3,0c9.5-8.1,21.8-13.1,35.3-13.1c14,0,26.8,5.4,36.5,14.1c0.7,0.6,1.6,1,2.5,1h0.3
				C2076,862,2077.6,857.7,2075,855.3z"/>
			<path class="st2" d="M2075,948.9c-11.1-10.1-25.8-16.2-41.9-16.2c-14.8,0-28.3,5.2-39,13.8c-10.7-8.6-24.2-13.8-39-13.8
				c-16.1,0-30.8,6.2-41.9,16.2c-2.6,2.4-0.9,6.7,2.6,6.7h0.3c0.9,0,1.8-0.4,2.5-1c9.7-8.8,22.5-14.1,36.5-14.1
				c13.5,0,25.8,5,35.3,13.1c0.6,1.1,6.7,1.1,7.3,0c9.5-8.1,21.8-13.1,35.3-13.1c14,0,26.8,5.4,36.5,14.1c0.7,0.6,1.6,1,2.5,1h0.3
				C2076,955.6,2077.6,951.3,2075,948.9z"/>
			<g>
				<path class="st2" d="M1904.5,943.9L1904.5,943.9c-2.2,0-3.9-1.7-3.9-3.9v-74.1c0-2.2,1.7-3.9,3.9-3.9l0,0c2.2,0,3.9,1.7,3.9,3.9
					V940C1908.4,942.1,1906.6,943.9,1904.5,943.9z"/>
			</g>
			<g>
				<path class="st2" d="M2083.8,943.9L2083.8,943.9c-2.2,0-3.9-1.7-3.9-3.9v-74.1c0-2.2,1.7-3.9,3.9-3.9l0,0c2.2,0,3.9,1.7,3.9,3.9
					V940C2087.7,942.1,2086,943.9,2083.8,943.9z"/>
			</g>
		</g>
	</g>
	<g>
		<g>
			<g>
				<path class="st2" d="M1661.8,852.2L1661.8,852.2c-2.2,0-3.9-1.7-3.9-3.9v-74.1c0-2.2,1.7-3.9,3.9-3.9l0,0c2.2,0,3.9,1.7,3.9,3.9
					v74.1C1665.7,850.5,1663.9,852.2,1661.8,852.2z"/>
			</g>
		</g>
		<g>
			<g>
				<g>
					<path class="st2" d="M1806,848.3L1806,848.3c-2.2,0-3.9-1.7-3.9-3.9v-74.1c0-2.2,1.7-3.9,3.9-3.9l0,0c2.2,0,3.9,1.7,3.9,3.9
						v74.1C1809.9,846.6,1808.2,848.3,1806,848.3z"/>
				</g>
			</g>
			<g>
				<path class="st2" d="M1782.7,774.2h-97.5c-2.2,0-3.9-1.7-3.9-3.9l0,0c0-2.2,1.7-3.9,3.9-3.9h97.5c2.2,0,3.9,1.7,3.9,3.9l0,0
					C1786.6,772.5,1784.8,774.2,1782.7,774.2z"/>
			</g>
			<g>
				<g>
					<path class="st2" d="M1806,871.7h-144.3c-2.2,0-3.9-1.7-3.9-3.9l0,0c0-2.2,1.7-3.9,3.9-3.9H1806c2.2,0,3.9,1.7,3.9,3.9l0,0
						C1809.9,870,1808.2,871.7,1806,871.7z"/>
				</g>
			</g>
			<g>
				<g>
					<path class="st2" d="M1733.2,843.4l-51.7-48c-1.6-1.5-1.7-3.9-0.2-5.5h0c1.5-1.6,3.9-1.7,5.5-0.2l49.1,45.6c0,0,0,0,0,0
						l49.1-45.6c1.6-1.5,4-1.4,5.5,0.2h0c1.5,1.6,1.4,4-0.2,5.5l-51.7,48C1737,844.8,1734.7,844.8,1733.2,843.4z"/>
				</g>
			</g>
			<g>
				<path class="st2" d="M1743.1,743.5v-6.6c0,0,0,0,0,0h-42.4c-3.8,0-7-3.1-7-7v-29.1c0-3.5,2.8-6.3,6.3-6.3h43.1c0,0,0,0,0,0v-5
					c0-5.2,6.4-7.6,9.8-3.8l29.2,32.5c0.7,0.7,0.6,1.9-0.1,2.6l-30.1,26.7C1748.6,750.5,1743.1,748.1,1743.1,743.5z M1702.6,729.8
					h47.5c0,0,0,0,0,0v9.7c0,0,0,0,0,0l23.1-20.6c0,0,0,0,0,0l-23.2-25.8v8.4c0,0,0,0,0,0h-47.5c-1,0-1.8,0.8-1.8,1.8V728
					C1700.8,729,1701.6,729.8,1702.6,729.8z"/>
			</g>
		</g>
	</g>
	<g>
		<g>
			<path class="st2" d="M1852.4,647.9c0-15.6-8.4-29.3-21-36.8c-2.6-1.6-6,0.2-6,3.3l0,0c0,1.4,0.8,2.7,2,3.4
				c10.3,6.1,17.2,17.3,17.2,30.1s-6.9,24-17.2,30.1c-1.2,0.7-2,2-2,3.4v0c0,3.1,3.4,4.9,6,3.3
				C1844,677.2,1852.4,663.5,1852.4,647.9z"/>
		</g>
		<path class="st2" d="M2087.2,605.9c-9.5-1.9-18.6-0.5-26.4,3H1852c-1.9,0-3.4,1.5-3.4,3.4v1c0,1.9,1.5,3.4,3.4,3.4h197.3h13.3
			c2.6-1.3,5.3-2.3,8.2-3c7-1.6,14.7-1.3,22.8,2.7c10.8,5.4,18.7,15.8,19.9,27.8c2.1,21-14.4,38.7-34.9,38.7c-5.8,0-11.2-1.4-16-3.9
			h-13.3h-196.7c-2.2,0-4,1.8-4,4v0.4c0,1.9,1.5,3.4,3.4,3.4h208.9c5.4,2.5,11.4,3.9,17.8,3.9c25.1,0,45.3-21.7,42.7-47.4
			C2119.3,625,2105.3,609.5,2087.2,605.9z"/>
		<g>
			<path class="st2" d="M1923.4,557.8c0-14-6.7-26.4-17.1-34.2c-2.6-2-6.3-0.2-6.3,3.1v0c0,1.2,0.6,2.4,1.6,3.1
				c8.5,6.4,14,16.6,14,28s-5.5,21.6-14,28c-1,0.7-1.6,1.9-1.6,3.1l0,0c0,3.2,3.7,5,6.3,3.1C1916.7,584.2,1923.4,571.8,1923.4,557.8
				z"/>
		</g>
		<g>
			<path class="st2" d="M2064,511.6c-11.9-2-23,1-31.8,7.2H1924c-2.1,0-3.7,1.7-3.7,3.7v0.2c0,2.2,1.8,3.9,3.9,3.9h99.5h11.1
				c6-4.9,13.7-7.8,22-7.8c8.3,0,16,2.9,22,7.8c8,6.4,13.1,16.3,13.1,27.3c0,13.6-7.8,25.4-19.1,31.2c-4.8,2.5-10.2,3.9-16,3.9
				c-5.8,0-11.2-1.4-16-3.9h-13.3h-103.1c-2.2,0-4,1.8-4,4v0.2c0,2,1.6,3.6,3.6,3.6H2039c5.4,2.5,11.4,3.9,17.8,3.9
				c6.3,0,12.3-1.4,17.8-3.9c2-0.9,3.8-1.9,5.6-3.1c13.1-8.5,21.2-24,19.2-41.1C2097.1,530.1,2082.5,514.7,2064,511.6z"/>
		</g>
		<g>
			<path class="st2" d="M1978,550h-58.5c-2.2,0-3.9-1.7-3.9-3.9l0,0c0-2.2,1.7-3.9,3.9-3.9h58.5c2.2,0,3.9,1.7,3.9,3.9l0,0
				C1981.9,548.3,1980.2,550,1978,550z"/>
		</g>
		<g>
			<path class="st2" d="M1978,569.5h-56.5c-2.2,0-3.9-1.7-3.9-3.9l0,0c0-2.2,1.7-3.9,3.9-3.9h56.5c2.2,0,3.9,1.7,3.9,3.9l0,0
				C1981.9,567.8,1980.2,569.5,1978,569.5z"/>
		</g>
		<g>
			<path class="st2" d="M1907,644h-58.5c-2.2,0-3.9-1.7-3.9-3.9l0,0c0-2.2,1.7-3.9,3.9-3.9h58.5c2.2,0,3.9,1.7,3.9,3.9l0,0
				C1910.9,642.3,1909.2,644,1907,644z"/>
		</g>
		<g>
			<path class="st2" d="M1907,663.5h-56.5c-2.2,0-3.9-1.7-3.9-3.9l0,0c0-2.2,1.7-3.9,3.9-3.9h56.5c2.2,0,3.9,1.7,3.9,3.9l0,0
				C1910.9,661.7,1909.2,663.5,1907,663.5z"/>
		</g>
	</g>
	<g>
		<path class="st2" d="M2184.3,560.6l-37.4-64.7c-0.7-1.2-2.1-2-3.5-2h-0.2c-2.9,0-4.7,3.1-3.2,5.6l37.5,65
			c10.3,17.8,10.3,39.9,0,57.6l-74.8,129.6c-10.3,17.8-29.4,28.8-49.9,28.8h-146h-3.6c-1.4,0-2.8-0.1-4.3-0.2
			c-18.9-1.4-36.1-12.1-45.6-28.6l-64.4-111.6l-4.5-7.9l-5.8-10.1c-10.3-17.8-10.3-39.9,0-57.6l37.3-64.6c0.1-0.1,0.2-0.2,0.3-0.2
			h48.3c25.1,0,48.6-13.5,61.2-35.3l33.5-58.1c0.1-0.1,0.2-0.2,0.3-0.2h50.3c2,0,3.7-1.6,3.7-3.7c0-2.3-1.8-4.1-4.1-4.1h-44.9
			c-0.3,0-0.5-0.3-0.3-0.6l4-7c12.6-21.8,12.6-48.8,0-70.6l-42.5-73.6c-12.6-21.8-36-35.3-61.2-35.3h-84.8
			c-25.4,0-48.8,13.5-61.5,35.5l-42.3,73.3c-12.7,22-12.7,49,0,71l42.3,73.3c12.7,22,36.1,35.5,61.5,35.5h26.6
			c0.3,0,0.5,0.3,0.3,0.6l-34.8,60.3c-11.7,20.2-11.7,45.2,0,65.4l3.6,6.2h-78.7c-26.6,0-51.5,14.3-64.8,37.4l-45.2,78.2
			c-13.3,23.1-13.3,51.7,0,74.8l45.2,78.2c13.3,23.1,38.1,37.4,64.8,37.4h90.4c26.6,0,51.5-14.3,64.8-37.4l45.2-78.2
			c6.1-10.6,9.4-22.5,9.9-34.4h146c23.3,0,45-12.5,56.7-32.7l74.8-129.6C2196,605.9,2196,580.8,2184.3,560.6z M1779.5,491.9
			c-22.4,0-43.2-12-54.4-31.4l-42.4-73.4c-11.3-19.6-11.3-43.7,0-63.2l42.4-73.4c11.2-19.4,32-31.4,54.4-31.4h84.8
			c22.6,0,43.4,12,54.7,31.6l42.4,73.4c11.2,19.4,11.2,43.4,0,62.8l-6.6,11.5l-4.5,7.8l-31.3,54.2c-11.3,19.6-32.2,31.6-54.7,31.6
			h-43.8h-9H1779.5z M1890.2,818.9l-45.2,78.2c-11.9,20.7-34.2,33.5-58,33.5h-90.4c-23.9,0-46.1-12.8-58-33.5l-45.2-78.2
			c-11.9-20.7-11.9-46.3,0-67l45.2-78.2c11.9-20.7,34.2-33.5,58-33.5h83.2l66.7,115.5c11,19,30.8,31.2,52.5,32.6
			C1898.6,798.8,1895.7,809.4,1890.2,818.9z"/>
	</g>
</g>
</svg>
