<?xml version="1.0" encoding="utf-8"?>
<!-- Generator: Adobe Illustrator 21.1.0, SVG Export Plug-In . SVG Version: 6.00 Build 0)  -->
<svg version="1.1" id="Capa_1" xmlns="http://www.w3.org/2000/svg" xmlns:xlink="http://www.w3.org/1999/xlink" x="0px" y="0px"
	 viewBox="0 0 786 201" style="enable-background:new 0 0 786 201;" xml:space="preserve">
<style type="text/css">
	.st0{fill:#FFFFFF;}
</style>
<g>
	<path class="st0" d="M290.4,97.9c0,9.7-5.8,17.2-18.2,17.2c-11.7,0-17.8-6.9-17.8-17.3V67.6h5.9v30.3c0,7.6,4.1,12,12.2,12
		c8.4,0,12-5,12-12V67.6h5.8V97.9z"/>
	<path class="st0" d="M332.1,114.4l-25-38.8h-0.3c0.2,3.1,0.5,7.9,0.5,12.7v26.1h-5.4V67.6h6.8l24.9,38.7h0.3
		c-0.1-2.1-0.5-8.1-0.5-12.3V67.6h5.5v46.7H332.1z"/>
	<polygon class="st0" points="347.2,114.4 349.2,109.1 352.7,109.1 352.7,72.8 347.2,72.8 347.2,67.6 364.1,67.6 362.1,72.8 
		358.6,72.8 358.6,109.1 364.1,109.1 364.1,114.4 	"/>
	<path class="st0" d="M391.5,114.4h-5.9l-16.7-46.7h6.2l10.5,30c1.4,3.9,2.3,7.1,2.9,10.2c0.6-3.1,1.6-6.4,2.9-10.3L402,67.6h6.2
		L391.5,114.4z"/>
	<polygon class="st0" points="414.9,114.4 414.9,67.6 441,67.6 441,72.8 420.8,72.8 420.8,87.4 438.3,87.4 438.3,92.5 420.8,92.5 
		420.8,109.2 442.4,109.2 440.5,114.4 	"/>
	<path class="st0" d="M480.2,80.9c0,7.5-4.6,10.9-9.4,12.5l12.8,20.9h-6.9l-11.3-19.3h-9.3v19.3h-5.9V67.6h12.9
		C474.8,67.6,480.2,72,480.2,80.9 M456.2,72.7v17.3h7c7.6,0,10.9-3,10.9-8.9c0-6.1-3.6-8.4-11.3-8.4H456.2z"/>
	<path class="st0" d="M502,115c-5.2,0-9.9-0.8-12.8-2.2l1.8-4.8c2,0.9,6.3,2,11.3,2c6.9,0,10.5-2.9,10.5-7.5c0-4.6-2.6-6.5-11-9.6
		c-8-2.9-12-6.6-12-13.9c0-7.4,6.1-11.9,14.9-11.9c5.1,0,9.4,1,12.9,2.6l-1.9,5c-3.3-1.4-7.1-2.5-11.1-2.5c-5.8,0-8.8,2.7-8.8,6.8
		c0,4.7,2.6,6.6,10.2,9.4c8.3,3.1,12.8,6.2,12.8,13.5C518.7,110.2,512.2,115,502,115"/>
	<polygon class="st0" points="524.4,114.4 526.4,109.1 529.9,109.1 529.9,72.8 524.4,72.8 524.4,67.6 541.3,67.6 539.3,72.8 
		535.8,72.8 535.8,109.1 541.3,109.1 541.3,114.4 	"/>
	<path class="st0" d="M562.6,114.4h-13V67.6h14.4c14.1,0,23,7.9,23,22.9C587,106.3,577.9,114.4,562.6,114.4 M563.1,72.7h-7.7v36.7
		h6.4c12.6,0,19-6.3,19-18.6C580.8,78.3,574.3,72.7,563.1,72.7"/>
	<path class="st0" d="M619.3,99.9h-18.5l-5.6,14.5h-6l18.3-46.9h5.3l18.2,46.9h-6.1L619.3,99.9z M612.3,80.5c-0.4-1-1.8-5.4-2.2-7
		c-0.7,2.7-1.5,5.5-2,7l-5.3,14.1h14.8L612.3,80.5z"/>
	<path class="st0" d="M650.7,114.4h-13V67.6h14.4c14.1,0,23,7.9,23,22.9C675.1,106.3,666.1,114.4,650.7,114.4 M651.2,72.7h-7.7v36.7
		h6.4c12.6,0,19-6.3,19-18.6C668.9,78.3,662.5,72.7,651.2,72.7"/>
	<path class="st0" d="M715.5,114.4h-13V67.6h14.4c14.1,0,23,7.9,23,22.9C740,106.3,730.9,114.4,715.5,114.4 M716.1,72.7h-7.7v36.7
		h6.4c12.6,0,19-6.3,19-18.6C733.7,78.3,727.3,72.7,716.1,72.7"/>
	<polygon class="st0" points="749.4,114.4 749.4,67.6 775.6,67.6 775.6,72.8 755.3,72.8 755.3,87.4 772.9,87.4 772.9,92.5 
		755.3,92.5 755.3,109.2 777,109.2 775,114.4 	"/>
	<path class="st0" d="M259.5,149.5h-0.3c0.3,3.1,0.5,7.3,0.5,12.5v28.2h-5.4v-46.4h8.6l14.3,38h0.3l14.6-38h8.6v46.4h-5.8v-28.5
		c0-3.7,0.2-7.8,0.5-12.1h-0.3l-15.5,40.6h-4.8L259.5,149.5z"/>
	<path class="st0" d="M350.8,179.5c-1.6,3.6-4.1,6.4-7.2,8.4c-3.2,2-7.1,3-11.7,3c-7.1,0-12.4-2.1-16-6.4
		c-3.6-4.3-5.4-10.1-5.4-17.6c0-7.4,1.8-13.2,5.5-17.4c3.6-4.2,9-6.4,16.1-6.4c4.6,0,8.4,1,11.6,2.9c3.2,1.9,5.6,4.7,7.3,8.3
		c1.6,3.6,2.4,7.8,2.4,12.6C353.3,171.7,352.4,175.9,350.8,179.5 M320.4,180.9c2.5,3.3,6.4,4.9,11.5,4.9c5.1,0,8.9-1.6,11.4-4.9
		c2.5-3.3,3.8-7.9,3.8-13.9c0-6-1.2-10.7-3.7-13.9c-2.5-3.2-6.3-4.8-11.4-4.8c-5.2,0-9,1.6-11.5,4.9c-2.5,3.3-3.8,7.9-3.8,13.8
		C316.6,173,317.9,177.6,320.4,180.9"/>
	<path class="st0" d="M392.9,190.2l-24.8-38.6h-0.3c0.3,5.4,0.5,9.6,0.5,12.6v25.9H363v-46.4h6.8l24.8,38.4h0.3
		c-0.3-4.9-0.5-8.9-0.5-12.2v-26.2h5.5v46.4H392.9z"/>
	<polygon class="st0" points="421.3,190.2 421.3,148.9 406.8,148.9 408.7,143.8 441.5,143.8 441.5,148.9 427.1,148.9 427.1,190.2 	
		"/>
	<polygon class="st0" points="448.5,190.2 448.5,143.8 474.5,143.8 474.5,148.9 454.4,148.9 454.4,163.4 471.8,163.4 471.8,168.5 
		454.4,168.5 454.4,185.1 475.9,185.1 474,190.2 	"/>
	<path class="st0" d="M489,149.5h-0.3c0.3,3.1,0.5,7.3,0.5,12.5v28.2h-5.4v-46.4h8.6l14.3,38h0.3l14.6-38h8.6v46.4h-5.8v-28.5
		c0-3.7,0.2-7.8,0.5-12.1h-0.3L509,190.2h-4.8L489,149.5z"/>
	<path class="st0" d="M580.2,179.5c-1.6,3.6-4.1,6.4-7.3,8.4c-3.2,2-7.1,3-11.7,3c-7.1,0-12.4-2.1-16-6.4
		c-3.6-4.3-5.4-10.1-5.4-17.6c0-7.4,1.8-13.2,5.5-17.4c3.6-4.2,9-6.4,16.1-6.4c4.6,0,8.4,1,11.6,2.9c3.2,1.9,5.6,4.7,7.3,8.3
		c1.6,3.6,2.4,7.8,2.4,12.6C582.7,171.7,581.9,175.9,580.2,179.5 M549.8,180.9c2.5,3.3,6.4,4.9,11.5,4.9c5.1,0,8.9-1.6,11.4-4.9
		c2.5-3.3,3.8-7.9,3.8-13.9c0-6-1.2-10.7-3.7-13.9c-2.5-3.2-6.3-4.8-11.4-4.8c-5.2,0-9,1.6-11.5,4.9c-2.5,3.3-3.8,7.9-3.8,13.8
		C546,173,547.3,177.6,549.8,180.9"/>
	<path class="st0" d="M617.9,147.1c2.8,2.2,4.2,5.5,4.2,9.9c0,6.1-3.1,10.3-9.3,12.4l12.7,20.8h-6.8L607.5,171h-9.2v19.2h-5.9v-46.4
		h12.8C610.9,143.8,615.2,144.9,617.9,147.1 M598.2,148.9v17.2h7c3.7,0,6.5-0.7,8.2-2.2c1.8-1.5,2.6-3.7,2.6-6.6
		c0-3-0.9-5.1-2.7-6.4c-1.8-1.3-4.6-1.9-8.5-1.9H598.2z"/>
	<polygon class="st0" points="632.7,190.2 632.7,143.8 658.6,143.8 658.6,148.9 638.5,148.9 638.5,163.4 656,163.4 656,168.5 
		638.5,168.5 638.5,185.1 660.1,185.1 658.1,190.2 	"/>
	<polygon class="st0" points="667.9,143.8 673.8,143.8 673.8,185 695.2,185 693.2,190.2 667.9,190.2 	"/>
	<path class="st0" d="M738.9,179.5c-1.6,3.6-4.1,6.4-7.2,8.4c-3.2,2-7.1,3-11.7,3c-7.1,0-12.4-2.1-16-6.4
		c-3.6-4.3-5.4-10.1-5.4-17.6c0-7.4,1.8-13.2,5.5-17.4c3.6-4.2,9-6.4,16.1-6.4c4.6,0,8.4,1,11.6,2.9c3.2,1.9,5.6,4.7,7.3,8.3
		c1.6,3.6,2.4,7.8,2.4,12.6C741.3,171.7,740.5,175.9,738.9,179.5 M708.5,180.9c2.5,3.3,6.4,4.9,11.5,4.9c5.1,0,8.9-1.6,11.4-4.9
		c2.5-3.3,3.8-7.9,3.8-13.9c0-6-1.2-10.7-3.7-13.9c-2.5-3.2-6.3-4.8-11.4-4.8c-5.2,0-9,1.6-11.5,4.9c-2.5,3.3-3.8,7.9-3.8,13.8
		C704.7,173,705.9,177.6,708.5,180.9"/>
	<path class="st0" d="M772.5,187.4c-3,2.3-7,3.4-12.1,3.4c-2.6,0-5-0.2-7.2-0.6c-2.2-0.4-4.1-0.9-5.5-1.6l1.8-4.8
		c1.2,0.5,2.8,1,4.7,1.4c2,0.4,4.1,0.6,6.4,0.6c3.4,0,6-0.7,7.8-2c1.8-1.3,2.7-3.2,2.7-5.5c0-1.5-0.3-2.8-1-3.8
		c-0.6-1-1.7-2-3.3-2.9c-1.5-0.9-3.8-1.8-6.7-2.9c-4.1-1.5-7.1-3.3-9.1-5.4c-1.9-2.1-2.9-4.9-2.9-8.4c0-3.6,1.4-6.5,4.1-8.6
		c2.7-2.1,6.3-3.2,10.7-3.2c4.6,0,8.9,0.9,12.8,2.6l-1.9,5c-3.9-1.6-7.6-2.5-11.1-2.5c-2.8,0-5,0.6-6.5,1.8
		c-1.5,1.2-2.3,2.9-2.3,4.9c0,1.6,0.3,2.9,0.9,3.9c0.6,1,1.7,2,3.1,2.8c1.4,0.8,3.5,1.7,6.1,2.7c2.9,1.1,5.3,2.2,7.1,3.3
		c1.8,1.1,3.2,2.5,4.1,4.1c1,1.6,1.4,3.6,1.4,5.9C777,181.9,775.5,185.1,772.5,187.4"/>
	<path class="st0" d="M127.1,142.4l-0.1-0.2c-2.7-8.2-2.8-18.4,4.9-29.3c6.2-8.7,12.7-16.2,11.3-29.9c0-0.1-0.1-1.5,1.3-2.1
		c1.6-0.6,2.6,0.7,2.6,0.8c7,11.7,8.6,24.4,4.9,34.3c-4.9,13.2-15.6,16.8-21.2,26.9c-0.3,0.6-1.2,1.1-1.9,1
		C128.2,143.9,127.4,143.3,127.1,142.4"/>
	<path class="st0" d="M89.7,149.1c-22.9-8.7-41.9-38.8-17.7-71.1c21.1-28.1,36.2-44.3,31.1-63.5c-0.1-0.4-0.2-1.7,1-2.4
		c1.9-1,3,0.9,3,1c12.3,20.4,1.1,44.5-16.9,72.3c-10.2,15.7-15.8,40.4,1.8,60.1c0.9,1,0.9,2.1,0.3,2.9
		C91.9,149.1,91,149.5,89.7,149.1"/>
	<path class="st0" d="M23.3,165.5c3.1-0.6,14.3-2.8,37.6-8.9c14.6-3.8,31.2-1.2,38,5.8c6.1,6.2,8.3,13.9,8.7,15.1
		c0.7,1.8,1.4,5.9,1.4,5.9s2.4-6.6,3.3-7.8c0.6-0.8,3.6-0.9,5.9-7.1c1.7-4.6,0.1-11-8.2-16.8C92.1,139.2,90,108.8,105.5,86
		c14.5-21.3,19.6-35.1,17.6-46.3c0-0.2-0.2-1.7,1.1-2.3c1.4-0.7,2.5,0.4,2.6,0.5c18.5,24.5,3.7,48.7-5.2,61.7
		c-8.6,12.6-11.5,23.3-8.8,35.5c0.5,2.6,1,6.6,3.4,10.9c2.2,3.4,5.7,12.7,11.3,10.6c9-3.3,17.7-1.2,32.7,2c21.1,4.5,31.2,6.4,34,6.9
		c0.9,0.2,1.4,0.9,1.5,1.1c0.1,0.1,15.3,20.8,15.3,20.8s0.8,1,0.2,2.2c-0.3,0.6-1,1.4-2.4,1.2c-12.7-2.4-44.5-8.5-57.5-10.3
		c-17-2.4-33.1-0.2-40.5,8.5c-0.3,0.4-0.8,1-1.8,1c-1,0-1.5-0.5-1.8-1c-7.3-8.6-23-11-39.3-8.6c-12.8,1.8-45.3,8-58.2,10.4
		c-1.5,0.4-2.5-0.5-2.8-1.5c-0.3-1,0.4-1.9,0.4-1.9l14.6-21.2C21.9,166.2,22.3,165.7,23.3,165.5"/>
</g>
</svg>
