<?xml version="1.0" encoding="utf-8"?>
<!-- Generator: Adobe Illustrator 21.1.0, SVG Export Plug-In . SVG Version: 6.00 Build 0)  -->
<svg version="1.1" id="Capa_1" xmlns="http://www.w3.org/2000/svg" xmlns:xlink="http://www.w3.org/1999/xlink" x="0px" y="0px"
	 viewBox="0 0 786 201" style="enable-background:new 0 0 786 201;" xml:space="preserve">
<style type="text/css">
	.st0{fill:#FFFFFF;}
	.st1{opacity:0.3;fill:#FFFFFF;}
</style>
<g>
	<path class="st0" d="M73.1,135c-2.4-0.1-2.6-0.6-3-11.7c-3.3,4.2-5,5.9-7.4,7.7c-4.6,3.3-12,5.7-18.2,5.7c-7.2,0-15.4-3.1-19.6-7.3
		c-4.8-4.6-7.4-12.3-7.4-21.3c0-0.9,0-2.2,0.2-3.7v-2.9V80.6c0-9.7-10.8-8.8-11.1-10.1c-0.4-1.6,13.1-2.5,21.5-4
		c1.8-0.3,2.2,0.5,2.2,5.7L30,103.3v4c0,13.6,8.2,22.9,20.2,22.9c11.5,0,20.9-8.3,20-17.8v-0.6V81.2c0.1-11.7-11.3-9.4-11.3-10.6
		c0-2,16.5-3.6,21.8-4.5c1.1-0.2,2.4,0.1,2.4,4.2v9.9C89.8,72,97.9,68,107.4,68c10.2,0,16.3,3.8,22,13.4c7-9.2,15.2-13.4,25.6-13.4
		c15.9,0,25.6,11,25.6,29.3v20.1c0,4,0.7,8.1,1.9,9.5c1.5,2,6.3,4.2,9.8,4.6c1.7,0.2,2.2,0.7,2.2,1.8c0,1.1-0.7,1.6-2,1.6
		c-0.7,0-29.3,0-29.8,0c-1.3,0-2.4-0.6-2.4-1.8c0-0.7,0.6-1.3,1.5-1.7c6.3-2.4,6.7-2.9,6.7-12.7v-18.4c0-8.6-1.3-13.4-4.8-18
		c-3.7-5-8.7-7.5-14.5-7.5c-8.9,0-18,6.1-18,11.9c0,0.5,0,1.3,0.2,2.2c0.6,2.9,0.6,3.3,0.6,6.1v23.4c0,9.2,2.4,12.1,11.1,12.8
		c2,0.2,3,0.9,3,2c0,1.1-0.9,1.6-2.4,1.6c0,0-29.4-0.1-30-0.1c-1.1,0-2.3-0.4-2.3-1.8c0-0.6,0.6-1.1,1.7-1.5
		c6.3-2.2,6.5-2.6,6.5-11.9V95.5c0-12.6-7-20.3-18.5-20.3C90.3,75.1,83.1,81,83.1,90v29.6c0,2.2,0.1,4.4,0.1,6.3
		c0.9,5.1,11.8,4.7,11.8,5.4c0,0.8-0.3,1.3-1,1.4C94,132.8,73.2,135,73.1,135z"/>
	<g>
		<path class="st0" d="M652.1,75.6l14.7,27.9c3.9,0.2,7.8,0.5,11.7,0.7l-20.2-36.3h-11.9l-18.3,33.6c3.4,0.2,6.8,0.3,10.1,0.5
			L652.1,75.6z"/>
		<path class="st0" d="M728.3,67.9h-11.1V107c3.7,0.3,7.5,0.6,11.1,0.9V67.9z"/>
		<path class="st0" d="M683.2,134.8h12.3l-17-30.6c-3.9-0.3-7.8-0.5-11.7-0.7L683.2,134.8z"/>
		<path class="st0" d="M620.9,134.8l17.3-32.9c-3.4-0.2-6.7-0.3-10.1-0.5l-18.2,33.3H620.9z"/>
		<path class="st0" d="M779,134.8v-9.3h-50.7v-17.6c-3.7-0.3-7.4-0.6-11.1-0.9v27.8H779z"/>
		<polygon class="st0" points="264.4,67.9 244.1,108 244.1,108 		"/>
		<path class="st0" d="M206.6,67.9h-12.1l23.2,42.4c3.6-0.3,7.2-0.7,10.8-1L206.6,67.9z"/>
		<path class="st0" d="M308.2,67.9H297v36.2c3.7-0.2,7.4-0.5,11.1-0.7V67.9z"/>
		<path class="st0" d="M467.6,77h30.7v-9.1h-72.5V77h30.6v21.5c3.7,0,7.4-0.1,11.1-0.1V77z"/>
		<path class="st0" d="M588.2,67.9H577v31.7c3.7,0.1,7.4,0.2,11.1,0.3V67.9z"/>
		<path class="st0" d="M528.3,67.9h-11.2v30.6c3.7,0,7.4,0.1,11.2,0.1V67.9z"/>
		<path class="st0" d="M373.8,100.1v0.3c2.5-0.1,5-0.2,7.5-0.3H373.8z"/>
		<path class="st0" d="M354.1,76.6h38.4c2.7,0,4.6,0.5,5.6,1.5c1.1,1,1.6,2.8,1.6,5.4v9.7c0,2.7-0.5,4.5-1.6,5.4
			c-0.5,0.4-1.1,0.7-1.9,1c4.8-0.1,9.6-0.3,14.4-0.4c0.2-1.1,0.3-2.2,0.3-3.4V80.9c0-4.6-1.1-7.9-3.4-9.9c-2.2-2-5.8-3-10.7-3h-53.8
			v33.7c3.7-0.2,7.4-0.3,11.1-0.5V76.6z"/>
		<polygon class="st0" points="254.9,107.1 275.4,67.9 254.9,107.1 		"/>
		<path class="st0" d="M254.9,107.1l20.5-39.2h-11L244.1,108C247.7,107.7,251.3,107.4,254.9,107.1z"/>
		<path class="st1" d="M392.4,100.1c1.5,0,2.7-0.2,3.7-0.5c-5,0.1-10,0.3-14.9,0.5H392.4z"/>
		<path class="st0" d="M231.1,134.8l5.1-11.1l8-15.7l0,0l-8,15.7l-7.6-14.3c-3.6,0.3-7.2,0.7-10.8,1L231.1,134.8L231.1,134.8z"/>
		<path class="st0" d="M308.2,134.8v-31.4c-3.7,0.2-7.5,0.4-11.1,0.7v30.7H308.2z"/>
		<path class="st0" d="M467.6,134.8V98.4c-3.7,0-7.4,0-11.1,0.1v36.3H467.6z"/>
		<path class="st0" d="M520.5,131.5c2.2,2.2,6.3,3.3,12.4,3.3h39.7c6.1,0,10.2-1.1,12.3-3.3c2.2-2.2,3.2-6.4,3.2-12.5V100
			c-3.7-0.1-7.4-0.2-11.1-0.3v25.9h-48.7V98.6c-3.7-0.1-7.4-0.1-11.2-0.1V119C517.2,125.1,518.3,129.3,520.5,131.5z"/>
		<path class="st0" d="M354.1,134.8v-33.7c-3.7,0.2-7.4,0.3-11.1,0.5v33.2H354.1z"/>
		<path class="st0" d="M392.4,100.1h-11.2c-2.5,0.1-5,0.2-7.5,0.3v8.4l27.2,26h16.6l-30.6-26.1h9.8c4.9,0,8.5-1,10.7-3
			c1.6-1.5,2.7-3.7,3.1-6.5c-4.8,0.1-9.6,0.2-14.4,0.4C395.2,99.9,393.9,100.1,392.4,100.1z"/>
		<path class="st0" d="M254.9,107.1c-3.6,0.3-7.2,0.6-10.8,0.9l-8,15.7l-5.1,11.1h9.3L254.9,107.1z"/>
		<path class="st0" d="M606.5,110.6l-3,6.8c38.2-0.7,80.5-6.9,90.5-22.9c-18.2,9.3-46.9,15-75.9,15.8c-0.9,0-8,0.2-8,0.2
			L606.5,110.6z"/>
	</g>
</g>
</svg>
